<svg xmlns="http://www.w3.org/2000/svg" width="57.533" height="106.052" viewBox="0 0 57.533 106.052"><defs><style>.a{fill:#f05929;}</style></defs><path class="a" d="M-11385.675-7786h-4.646l-6.069-13.155a21.883,21.883,0,0,1-3.189.672,25.112,25.112,0,0,1-3.385.227c-.143,0-.295,0-.417,0h-.04a25.657,25.657,0,0,1-4.484-.459,21.909,21.909,0,0,1-4.108-1.223,21.14,21.14,0,0,1-3.729-1.984,23.045,23.045,0,0,1-3.348-2.748,22.44,22.44,0,0,1-2.756-3.285,19.434,19.434,0,0,1-1.946-3.591,19.254,19.254,0,0,1-1.137-3.9,21.453,21.453,0,0,1-.325-4.209,21.529,21.529,0,0,1,.833-5.6,21.1,21.1,0,0,1,2.291-5.145,21.322,21.322,0,0,1,3.437-4.272,21.278,21.278,0,0,1,4.427-3.23l-24.226-52.514,4.028-1.631,24.125,52.439a21.732,21.732,0,0,1,3.394-.807,23.166,23.166,0,0,1,3.54-.267c.134,0,.272,0,.41,0a26.7,26.7,0,0,1,4.571.459,22.48,22.48,0,0,1,4.171,1.22,21.231,21.231,0,0,1,3.765,1.975,22.5,22.5,0,0,1,3.364,2.736,22,22,0,0,1,2.754,3.284,19.631,19.631,0,0,1,1.946,3.626,19.626,19.626,0,0,1,1.134,3.965,22.446,22.446,0,0,1,.327,4.307,22.429,22.429,0,0,1-.479,4.258,19.751,19.751,0,0,1-1.274,3.91,20.008,20.008,0,0,1-2.07,3.557,22.642,22.642,0,0,1-2.868,3.209,22.463,22.463,0,0,1-4.8,3.434l6.78,14.741Zm-26.853-48.139h0a17.126,17.126,0,0,0-5.879,5.75,17.053,17.053,0,0,0-2.5,8.78,16.2,16.2,0,0,0,4.973,12.248,17.537,17.537,0,0,0,12.432,5.171h.351a19.116,19.116,0,0,0,5.059-.669l-14.43-31.283Zm9.334-2.618a17.682,17.682,0,0,0-5.441.85l14.474,31.455a16.721,16.721,0,0,0,6.361-5.995,17.064,17.064,0,0,0,2.492-8.75,16.642,16.642,0,0,0-2.176-8.737,17.126,17.126,0,0,0-6.454-6.333,18.361,18.361,0,0,0-8.943-2.486C-11402.981-7836.754-11403.089-7836.754-11403.193-7836.754Z" transform="translate(11438.493 7892.05)"/></svg>