<svg xmlns="http://www.w3.org/2000/svg" width="263.537" height="541.053" viewBox="0 0 263.537 541.053"><defs><style>.a{fill:#f05929;}</style></defs><path class="a" d="M-11194.162-7351h-22.867l-29.872-67.113a106.568,106.568,0,0,1-15.7,3.44,119.47,119.47,0,0,1-16.665,1.145c-.845,0-1.582-.006-2.252-.02a122.2,122.2,0,0,1-22.077-2.347,105.5,105.5,0,0,1-20.218-6.238,102.857,102.857,0,0,1-18.353-10.127,112.892,112.892,0,0,1-16.489-14.021,114.146,114.146,0,0,1-13.567-16.751,100.978,100.978,0,0,1-9.58-18.328,100.908,100.908,0,0,1-5.589-19.906,114.065,114.065,0,0,1-1.6-21.482,112.916,112.916,0,0,1,4.106-28.546,109.788,109.788,0,0,1,11.281-26.249,107.93,107.93,0,0,1,16.912-21.784,104.973,104.973,0,0,1,21.793-16.493l-99.592-223.734v-52.425l.17-.071,118.756,267.53a104.833,104.833,0,0,1,16.7-4.107,110.233,110.233,0,0,1,17.424-1.369c.656,0,1.336.006,2.021.017a127.22,127.22,0,0,1,22.507,2.347,108.3,108.3,0,0,1,20.524,6.215,103.192,103.192,0,0,1,18.54,10.087,111.669,111.669,0,0,1,16.556,13.958,111.721,111.721,0,0,1,13.564,16.763,100.663,100.663,0,0,1,9.574,18.494,102.935,102.935,0,0,1,5.589,20.228,118.984,118.984,0,0,1,1.6,21.963,117.526,117.526,0,0,1-2.355,21.73,102.833,102.833,0,0,1-6.272,19.943,101.746,101.746,0,0,1-10.2,18.155,113.671,113.671,0,0,1-14.113,16.374,110.878,110.878,0,0,1-23.625,17.51l33.384,75.213Zm-132.187-245.587h0a85.885,85.885,0,0,0-28.937,29.343,89.405,89.405,0,0,0-12.336,44.794c-.426,24.37,7.812,45.39,24.484,62.477s37.257,25.955,61.194,26.375c.681.01,1.228.014,1.72.014a90.728,90.728,0,0,0,24.914-3.414l-71.036-159.589Zm45.948-13.362a84.438,84.438,0,0,0-26.78,4.337l71.24,160.487a83.772,83.772,0,0,0,31.316-30.586,89.553,89.553,0,0,0,12.267-44.656c.282-16.285-3.32-31.28-10.708-44.567a85.965,85.965,0,0,0-31.773-32.314,88.192,88.192,0,0,0-44.028-12.687C-11279.421-7609.942-11279.923-7609.947-11280.4-7609.947Z" transform="translate(11434.499 7892.051)"/></svg>