<svg xmlns="http://www.w3.org/2000/svg" width="143" height="64.118" viewBox="0 0 143 64.118"><defs><style>.a,.b{fill:#f05929;}.b{mix-blend-mode:multiply;isolation:isolate;}</style></defs><g transform="translate(0)"><path class="a" d="M276.516,213.9h2.368l6.336,14.229,5.791-14.286h2.3l-7.954,18.818a3.964,3.964,0,0,1-3.941,2.647,5.1,5.1,0,0,1-2.148-.463,9.088,9.088,0,0,1-2.561-2.185l1.523-1.252a9.876,9.876,0,0,0,2.105,1.765,2.82,2.82,0,0,0,1.067.213,2.356,2.356,0,0,0,1.429-.442,5.5,5.5,0,0,0,1.331-2.207Z" transform="translate(-187.67 -171.195)"/><g transform="translate(72.313 17.204)"><path class="a" d="M246.021,170.806l5.351-12.613L257,170.806h2.455l-7.735-16.922H251l-7.322,16.922Z" transform="translate(-241.08 -153.885)"/><rect class="a" width="20.953" height="1.95" transform="translate(0 18.988)"/></g><path class="a" d="M153.515,161.951a9.747,9.747,0,0,1,.143,1.674,9.085,9.085,0,0,1-1.162,4.559,8.469,8.469,0,0,1-3.236,3.234,8.959,8.959,0,0,1-4.512,1.182,8.807,8.807,0,0,1-8.825-8.875,9.072,9.072,0,0,1,1.169-4.573,8.939,8.939,0,0,1,7.656-4.473,8.854,8.854,0,0,1,4.477,1.211,8.678,8.678,0,0,1,3.272,3.226,8.522,8.522,0,0,1,.392.779h2.334a10.547,10.547,0,0,0-2.605-4.077,10.864,10.864,0,0,0-7.962-3.174,10.783,10.783,0,0,0-9.436,5.494,11.158,11.158,0,0,0-1.46,5.594,10.482,10.482,0,0,0,3.2,7.715,10.718,10.718,0,0,0,7.863,3.189,10.927,10.927,0,0,0,11-11,12.4,12.4,0,0,0-.112-1.681Z" transform="translate(-105.501 -135.966)"/><g transform="translate(54.492 17.204)"><rect class="a" width="2.092" height="6.725" transform="translate(0 0)"/><rect class="a" width="2.092" height="6.725" transform="translate(12.754 0)"/><path class="a" d="M195.571,174.574v12.157h2.092V176.625h10.661v10.106h2.092V174.574Z" transform="translate(-195.571 -165.793)"/></g><g transform="translate(60.356 42.653)"><rect class="a" width="2.092" height="6.926" transform="translate(0 0)"/><path class="a" d="M218.9,235.41a30.551,30.551,0,0,0-5.9-.4h-3.608v11.957h4.171a23.736,23.736,0,0,0,5.537-.448,4.887,4.887,0,0,0,2.719-1.907,6.068,6.068,0,0,0,1.067-3.68,5.905,5.905,0,0,0-1.1-3.694A4.853,4.853,0,0,0,218.9,235.41Zm1.132,7.957a3.167,3.167,0,0,1-1.708,1.246,19.481,19.481,0,0,1-4.6.334h-2.235v-7.886h1.765a31.026,31.026,0,0,1,4.59.221,3.28,3.28,0,0,1,2.028,1.2,3.915,3.915,0,0,1,.8,2.548A4,4,0,0,1,220.029,243.366Z" transform="translate(-209.389 -226.029)"/></g><g transform="translate(75.957 42.653)"><rect class="a" width="2.135" height="16.835" transform="translate(4.669 4.103)"/><rect class="a" width="11.473" height="2.05" transform="translate(0 0)"/></g><g transform="translate(126.545 42.653)"><path class="a" d="M398.982,229.386v12.881h2.178V226.845Z" transform="translate(-384.705 -221.329)"/><path class="a" d="M381.8,216.2v-2.356h-.47l-13.893,16.33v-16.33h-2.093v20.938h.47Z" transform="translate(-365.342 -213.848)"/></g><g transform="translate(3.848 42.653)"><path class="a" d="M78.376,218.866v-5.018H76.241v7.008Z" transform="translate(-76.241 -213.848)"/><path class="a" d="M79.5,223.243l10.056-9.395H86.746l-10.5,9.819v11.119h2.135v-9.753l9.177,9.753H90.34Z" transform="translate(-76.241 -213.848)"/></g><g transform="translate(38.308 42.653)"><path class="a" d="M164.5,224.925l-7.064,16.237h2.278l5.923-13.586Z" transform="translate(-157.438 -220.224)"/><path class="a" d="M178.112,213.848h-.456l-.919,2.112,8.079,18.827h2.278Z" transform="translate(-168.546 -213.848)"/></g><path class="b" d="M90.855,132.081l-5.791,14.286L58.853,89.428l-1.962.882,27.116,58.667a5.492,5.492,0,0,1-1.33,2.207,2.357,2.357,0,0,1-1.43.442,2.82,2.82,0,0,1-1.067-.213,9.875,9.875,0,0,1-2.106-1.765L76.551,150.9a9.087,9.087,0,0,0,2.561,2.185,5.1,5.1,0,0,0,2.148.463A3.963,3.963,0,0,0,85.2,150.9l7.954-18.818Z" transform="translate(-56.891 -89.428)"/><g transform="translate(109.265 42.653)"><path class="a" d="M328.662,225.049a25.049,25.049,0,0,0,4.876-.34,5.465,5.465,0,0,0,3.06-1.829,5.861,5.861,0,0,0-.028-6.9,5.371,5.371,0,0,0-2.932-1.815,24.009,24.009,0,0,0-4.84-.313h-4.171v11.2Zm-1.943-9.151h3.7a9.04,9.04,0,0,1,3.053.369,3.143,3.143,0,0,1,1.5,1.243,3.451,3.451,0,0,1,.57,1.925,3.5,3.5,0,0,1-.57,1.954,3.225,3.225,0,0,1-1.566,1.264,9.278,9.278,0,0,1-3.146.39L326.719,223Z" transform="translate(-324.627 -213.848)"/><rect class="a" width="2.092" height="7.681" transform="translate(0 13.257)"/></g><path class="a" d="M84.957,152.644a10.865,10.865,0,0,1,7.962,3.174,11.007,11.007,0,0,1-7.791,18.818,10.717,10.717,0,0,1-7.862-3.189,10.482,10.482,0,0,1-3.2-7.715,11.158,11.158,0,0,1,1.46-5.594,10.783,10.783,0,0,1,9.436-5.494Zm.093,2.035a8.625,8.625,0,0,0-4.405,1.211,8.712,8.712,0,0,0-3.251,3.262,9.072,9.072,0,0,0-1.169,4.573A8.807,8.807,0,0,0,85.05,172.6a8.957,8.957,0,0,0,4.512-1.182,8.467,8.467,0,0,0,3.237-3.234,9.089,9.089,0,0,0,1.162-4.559,8.865,8.865,0,0,0-1.162-4.509,8.677,8.677,0,0,0-3.272-3.226A8.857,8.857,0,0,0,85.05,154.68Z" transform="translate(-71.139 -135.966)"/></g></svg>