<svg xmlns="http://www.w3.org/2000/svg" xmlns:xlink="http://www.w3.org/1999/xlink" width="176" height="213" viewBox="0 0 176 213"><defs><style>.a,.d,.h{fill:#f05a2b;}.b{fill:#fff;}.c,.d{isolation:isolate;}.c{clip-path:url(#c);}.d{stroke:rgba(0,0,0,0);stroke-miterlimit:10;mix-blend-mode:multiply;}.e{fill:#545454;font-size:24px;}.e,.f{font-family:CenturyGothic-Bold, Century Gothic;font-weight:700;}.f{font-size:16px;}.g,.h{stroke:none;}.i{filter:url(#a);}</style><filter id="a" x="0" y="0" width="176" height="213" filterUnits="userSpaceOnUse"><feOffset dy="5" input="SourceAlpha"/><feGaussianBlur stdDeviation="7.5" result="b"/><feFlood flood-opacity="0.2"/><feComposite operator="in" in2="b"/><feComposite in="SourceGraphic"/></filter><clipPath id="c"><path class="a" d="M0,8.041,34.576-5V56.743L0,71.483Z" transform="translate(-0.178 -0.128)"/></clipPath></defs><g transform="translate(-972.5 -1633.5)"><g class="i" transform="matrix(1, 0, 0, 1, 972.5, 1633.5)"><g class="b" transform="translate(12.5 17.5)"><path class="g" d="M 140 167 L 11 167 L 11 1 L 99.89091491699219 1 L 140 50.67385101318359 L 140 167 Z"/><path class="h" d="M 12 2 L 12 166 L 139 166 L 139 51.02716064453125 L 99.41305541992188 2 L 12 2 M 10 0 L 100.3687515258789 0 L 141 50.32050323486328 L 141 168 L 10 168 L 10 0 Z"/></g></g><g class="c" transform="translate(1037.922 1695.628)"><path class="d" d="M91.91,226.338a13.339,13.339,0,0,1-3.759-3.209l2.234-1.838a14.582,14.582,0,0,0,3.09,2.592,4.152,4.152,0,0,0,1.567.313,3.462,3.462,0,0,0,2.1-.649,8.114,8.114,0,0,0,1.953-3.239L84.961,188.886a16.646,16.646,0,0,1-5.138.774,15.729,15.729,0,0,1-11.54-4.681,15.387,15.387,0,0,1-4.706-11.324,16.386,16.386,0,0,1,2.143-8.212,15.6,15.6,0,0,1,5.844-5.923l.149-.085L0,0H3.583L74.51,158.187a16.778,16.778,0,0,1,16.749,3.851,16.321,16.321,0,0,1,.012,22.919,16.383,16.383,0,0,1-3.541,2.717l12.915,28.8,8.5-20.97h3.377l-11.676,27.62a5.819,5.819,0,0,1-5.785,3.889A7.507,7.507,0,0,1,91.91,226.338ZM68.47,166.931a13.329,13.329,0,0,0-1.715,6.712,12.928,12.928,0,0,0,12.954,13.029,13.423,13.423,0,0,0,3.991-.59L73,162.288A12.758,12.758,0,0,0,68.47,166.931Zm18,17.927a12.4,12.4,0,0,0,4.615-4.67,13.961,13.961,0,0,0,1.707-6.683s0-.006,0-.008a13.024,13.024,0,0,0-1.707-6.618,12.739,12.739,0,0,0-4.8-4.736,13,13,0,0,0-6.572-1.777A12.448,12.448,0,0,0,75.77,161Zm6.321-11.352C92.784,173.971,92.79,173.744,92.79,173.506Z" transform="translate(-62.395 -139.736)"/></g><text class="e" transform="translate(1006 1685)"><tspan x="0" y="0">PDF</tspan></text><text class="f" transform="translate(1060 1779)"><tspan x="-50.211" y="0">Аналітичний</tspan><tspan x="-14.082" y="19">звіт</tspan></text></g></svg>