<svg xmlns="http://www.w3.org/2000/svg" width="238.431" height="112.553" viewBox="0 0 238.431 112.553"><defs><style>.a{stroke:rgba(0,0,0,0);stroke-miterlimit:10;}</style></defs><g transform="translate(-351.767 -584.627)"><g transform="translate(385.317 584.627)"><path d="M225.686,392.133l-.113,2.4h-3.69l-.128-2.372a10.542,10.542,0,0,0-1.095-.235,7.168,7.168,0,0,1-5.937-4.608,22.725,22.725,0,0,1-1.775-9.056c-.082-4.184-.284-8.4.927-12.456a16.488,16.488,0,0,1,2.406-4.861c1.387-1.906,3.6-2.406,5.97-2.409l.125-1.93h3.766l.125,1.872.918.116c3.559.454,5.592,2.662,6.641,5.9,1.561,4.827,1.592,9.807,1.238,14.789a31.51,31.51,0,0,1-.948,5.818C232.842,389.883,230.687,391.633,225.686,392.133Zm-.027-3.113a3.74,3.74,0,0,0,3.531-1.967,8.8,8.8,0,0,0,1.244-2.961,46.382,46.382,0,0,0,.034-17.485,10.75,10.75,0,0,0-1.43-3.33,2.981,2.981,0,0,0-2.882-1.592Zm-3.6-27.77a10.955,10.955,0,0,0-2.708,1.674A8.129,8.129,0,0,0,217.767,366c-1.363,4.827-1.037,9.776-.668,14.679a22.8,22.8,0,0,0,1.61,6.053,3.474,3.474,0,0,0,3.354,2.244Z" transform="translate(-178.787 -356.359)"/><path d="M211.716,394.209h-4.037c0-2.077-.046-4.168.006-6.257.165-6.483.369-12.965.552-19.448.1-3.568.22-7.138.265-10.709.012-1,.381-1.335,1.342-1.262.833.064,1.671.012,2.488.012V369.3c3.726.186,6.379-4.388,7.215-12.639H223.1c.64,7.306-3.787,13.764-11.124,16.061v7.215c1.342.073,2.744.04,4.11.25a5.371,5.371,0,0,1,4.11,2.912,21.982,21.982,0,0,1,2.33,11.084h-3.534c-.226-2.043-.329-4.059-.711-6.019a10.162,10.162,0,0,0-1.412-3.479,4.44,4.44,0,0,0-2.162-1.665c-2.156-.738-2.988-.061-2.988,2.168C211.713,388.141,211.716,391.1,211.716,394.209Z" transform="translate(-189.492 -356.523)"/><path d="M201.757,356.607h3.653c0,2.641-.131,5.254.03,7.849.244,3.879.537,7.767,1.11,11.606.348,2.339,1.677,3.421,3.183,3.382,1.525-.04,2.769-1.128,3.077-3.488.47-3.623.65-7.285.811-10.938.122-2.76.024-5.531.024-8.407h3.61c0,4.766.116,9.453-.049,14.127a27.752,27.752,0,0,1-1.113,6.773c-1.028,3.494-3.251,4.836-7.056,4.723a5.88,5.88,0,0,1-6.08-5.053,68.878,68.878,0,0,1-1.159-10.05C201.608,363.675,201.757,360.2,201.757,356.607Z" transform="translate(-201.702 -356.35)"/><path d="M207.135,365.483c4.7.061,7.7,3.372,6.827,7.544a4.613,4.613,0,0,1-3.79,3.674,6.522,6.522,0,0,1-7.812-6.632A4.5,4.5,0,0,1,207.135,365.483Zm3.6,5.891c.031-1.61-.967-2.488-2.876-2.531a1.847,1.847,0,0,0-2.15,2,2.364,2.364,0,0,0,2.58,2.534A2.241,2.241,0,0,0,210.734,371.375Z" transform="translate(-200.356 -338.161)"/></g><g transform="translate(351.767 648.324)"><g transform="translate(0 14.281)"><path d="M277.576,365.4v-5.416h.82V365.4Z" transform="translate(-275.051 -359.941)"/><path d="M281.314,365.4v-2.365h-2.19V365.4h-.82v-5.416h.82V362.3h2.19v-2.319h.829V365.4Z" transform="translate(-273.543 -359.941)"/><path d="M281.895,365.475a1.965,1.965,0,0,1-1.422-.577c-.535-.535-.525-1.134-.525-2.175s-.009-1.643.525-2.175a1.953,1.953,0,0,1,1.422-.577,1.859,1.859,0,0,1,1.929,1.665h-.835a1.12,1.12,0,0,0-1.892-.6c-.267.289-.329.6-.329,1.689s.061,1.4.329,1.686a1.082,1.082,0,0,0,.8.329,1.1,1.1,0,0,0,1.1-.928h.826A1.867,1.867,0,0,1,281.895,365.475Z" transform="translate(-270.139 -359.97)"/><path d="M283.695,360.721V365.4h-.82v-4.678h-1.49v-.737h3.8v.737Z" transform="translate(-267.16 -359.941)"/><path d="M286.1,365.4v-3.932L283.67,365.4h-.743v-5.416h.82v3.926l2.417-3.926h.756V365.4Z" transform="translate(-263.965 -359.941)"/><path d="M286.841,360.721V365.4h-.82v-4.678h-1.49v-.737h3.8v.737Z" transform="translate(-260.642 -359.941)"/><path d="M288.112,364.518a1.238,1.238,0,0,1-1.143.882h-.562v-.737h.387a.619.619,0,0,0,.633-.433l.19-.442-1.757-3.8h.866l1.293,2.9,1.164-2.9h.866Z" transform="translate(-257.888 -359.941)"/><path d="M289.623,360.721V365.4h-.82v-4.678h-1.49v-.737h3.8v.737Z" transform="translate(-254.878 -359.941)"/><path d="M279.259,368.445a1.966,1.966,0,0,1-1.422-.578c-.531-.535-.525-1.133-.525-2.175s-.006-1.643.525-2.175a1.954,1.954,0,0,1,1.422-.578,1.864,1.864,0,0,1,1.932,1.665h-.839a1.12,1.12,0,0,0-1.892-.6c-.267.289-.329.6-.329,1.69s.061,1.4.329,1.686a1.083,1.083,0,0,0,.8.329,1.1,1.1,0,0,0,1.1-.928h.829A1.872,1.872,0,0,1,279.259,368.445Z" transform="translate(-275.6 -353.817)"/><path d="M281.062,363.691v4.678h-.823v-4.678h-1.49v-.737h3.8v.737Z" transform="translate(-272.621 -353.788)"/><path d="M282.343,366.241h-1.232v2.129h-.82v-5.416h2.052a1.646,1.646,0,1,1,0,3.287Zm-.052-2.55h-1.18V365.5h1.18a.908.908,0,1,0,0-1.812Z" transform="translate(-269.426 -353.788)"/><path d="M285.277,368.37l-.381-1.087h-2.135l-.381,1.087h-.866l1.984-5.416h.661l1.978,5.416Zm-1.428-4.19-.854,2.4h1.68Z" transform="translate(-266.892 -353.788)"/><path d="M285.277,363.691v4.678h-.82v-4.678h-1.49v-.737h3.8v.737Z" transform="translate(-263.882 -353.788)"/><path d="M284.508,368.37v-5.416h3.468v.737h-2.645v1.582h2.249V366h-2.249v1.628h2.645v.737Z" transform="translate(-260.689 -353.788)"/><path d="M286.836,363.691v4.678h-.823v-5.416h3.333v.737Z" transform="translate(-257.571 -353.788)"/><path d="M287.4,368.37v-5.416h.823v5.416Z" transform="translate(-254.7 -353.788)"/><path d="M287.872,363.314v-.823h.7v.823Zm.783,6.015v-5.415h.82v5.415Zm.86-6.015v-.823h.7v.823Z" transform="translate(-253.72 -354.747)"/><path d="M276.754,371.34v-5.416h.823V368.5l2.021-2.571h1.011l-2.083,2.556,2.273,2.86h-1.041l-2.181-2.829v2.829Z" transform="translate(-276.754 -347.635)"/><path d="M280.33,370.458a1.235,1.235,0,0,1-1.14.882h-.565V370.6h.39a.616.616,0,0,0,.63-.433l.19-.443-1.757-3.8h.866l1.293,2.9,1.164-2.9h.866Z" transform="translate(-274.011 -347.635)"/><path d="M282.978,371.34v-4.678H281.42v1.711c0,2.276-.55,2.967-1.637,2.967h-.341V370.6h.144c.6,0,1.035-.381,1.035-2.344v-2.334H283.8v5.416Z" transform="translate(-271.185 -347.635)"/><path d="M283.4,371.34h-2.077v-5.416h.82v2.129H283.4a1.645,1.645,0,1,1,0,3.287Zm-.068-2.547h-1.189V370.6h1.189a.906.906,0,1,0,0-1.809Z" transform="translate(-267.288 -347.635)"/><path d="M284.913,366.661v4.678h-.823v-4.678H282.6v-.737h3.8v.737Z" transform="translate(-264.643 -347.635)"/><path d="M286.181,370.458a1.235,1.235,0,0,1-1.14.882h-.565V370.6h.39a.616.616,0,0,0,.63-.433l.19-.443-1.757-3.8h.866l1.293,2.9,1.164-2.9h.866Z" transform="translate(-261.889 -347.635)"/><path d="M287.59,369.211h-1.232v2.129h-.82v-5.416h2.052a1.646,1.646,0,1,1,0,3.287Zm-.052-2.55h-1.179v1.812h1.179a.908.908,0,1,0,0-1.812Z" transform="translate(-258.555 -347.635)"/><path d="M290.265,371.34v-3.932l-2.427,3.932H287.1v-5.416h.82v3.926l2.417-3.926h.753v5.416Z" transform="translate(-255.33 -347.635)"/></g><path d="M292.987,358.771a2.306,2.306,0,0,1,1.207-2.3,1.978,1.978,0,0,0,.255-.252,2.931,2.931,0,0,1,1.944-.875,18.724,18.724,0,0,1,3.569.141,1.266,1.266,0,0,1,.906.528c.27.359.731.584.971.955a3.8,3.8,0,0,1,.934,2.666,1.892,1.892,0,0,0,.04.43c.012.144.071.313.015.427a4.671,4.671,0,0,1-2.138,2.276,5.97,5.97,0,0,1-1.708.323,2.616,2.616,0,0,1-1.21-.16,13.817,13.817,0,0,0-1.542-.212,3.365,3.365,0,0,1-2.107-1.008,3.869,3.869,0,0,1-1.029-1.72C293.023,359.591,293.02,359.179,292.987,358.771Zm2.559,1.093c.329.012.43-.064.347-.285-.012-.034-.068-.052-.1-.077Zm.943-2.817.129.1.227-.3-.1-.077Zm-1.988,2.488c-.043-.055-.08-.12-.1-.117a.731.731,0,0,0-.157.092c.025.034.055.1.077.1A.638.638,0,0,0,294.5,359.536Z" transform="translate(-243.144 -355.321)"/><path d="M311.023,361.137c.452-.138.507-.777.8-.968a.655.655,0,0,1,.657,0,4.524,4.524,0,0,0-.525.519,2.462,2.462,0,0,1-.292.449,5.639,5.639,0,0,1-.866.365Z" transform="translate(-206.233 -345.464)"/><path d="M357.8,368.63c-.089-1.256-.491-6.961-.728-7.707a1.293,1.293,0,0,0-1.032-.845,15.316,15.316,0,0,0-1.8-.046,2.506,2.506,0,0,1-.5-.009,5.616,5.616,0,0,0-1.883-.037c-.756.08-1.342,1.306-1.822,1.88-.965,1.155-1.994,2.258-2.961,3.41a17.289,17.289,0,0,0-1.431,1.668,17.49,17.49,0,0,0-.064,2.258,2.515,2.515,0,0,1,.218.154,2.61,2.61,0,0,1,.479.525.864.864,0,0,1,.237.123,15.174,15.174,0,0,1,1.336,1.441c.473.642,1.078,1.183,1.6,1.794.6.71,1.819,2.451,1.849,2.488a4.477,4.477,0,0,1,.842,1.484c.049.132.157.412.068.541-.221.307-.525.313-1.345.363-.971.055-1.947.015-2.918.074-.614.037-.786.1-1.232-.412-.258-.292-.418-.663-.67-.958a29.7,29.7,0,0,1-2.129-2.669l-.123-.169a2.424,2.424,0,0,1-.19-.24l-.034-.055-.04-.052c-.08-.092-.163-.184-.249-.273-.166-.169-.335-.332-.5-.5a7.465,7.465,0,0,1-.931-1.17,6.444,6.444,0,0,0-.74-.012,3.366,3.366,0,0,0-.879.11c-.273.1-.323.531-.335.826a20.022,20.022,0,0,0-.037,2.187,4.545,4.545,0,0,1-.47,2.546c-.068.123-.144.283-.258.335a4.025,4.025,0,0,1-1.871.562c-.753-.037-1.505-.083-2.258-.123-.258-.015-.445-.141-.412-.405.111-.842-.316-1.686.034-2.528a.906.906,0,0,0-.006-.363c-.031-.458-.092-.915-.092-1.373,0-1.382.181-2.755.178-4.141a3.363,3.363,0,0,0-.141-1.284,1.378,1.378,0,0,1,.018-.568c.025-.286.089-.571.092-.857.006-.627-.058-1.259-.009-1.883a5.594,5.594,0,0,1,.071-.872,1.7,1.7,0,0,1-.043-.372,1.774,1.774,0,0,1,.135-.664,1.809,1.809,0,0,1-.111-.307,4.626,4.626,0,0,1-.092-.875c0-.184-.089-.746.031-.074a2.226,2.226,0,0,1,.175-1.385,2.671,2.671,0,0,0-.43-.16,9.151,9.151,0,0,0-3.45-.458c-1.134.141-2.283.141-3.422.218a1.858,1.858,0,0,0-.482.178,3.621,3.621,0,0,0-.028.531,9.612,9.612,0,0,1,.074,1.862,4.377,4.377,0,0,1-.7,2.018.767.767,0,0,1-.955.338,1.692,1.692,0,0,0-.707-.157c-.888.129-1.772.3-2.654.476-.329.064-.645.221-.977.255a1.646,1.646,0,0,0-1.477,1.963,3.058,3.058,0,0,1-.04.866c-.04.356-.123.713-.151,1.072-.031.43.114.869-.123,1.287-.046.083.009.236.04.35.123.473.239.946.384,1.413a1.8,1.8,0,0,0,.949,1.146c.415.2.823.415,1.241.614a1.525,1.525,0,0,0,.535.206,17.485,17.485,0,0,0,2.685.068,17.085,17.085,0,0,1,2.249.043c.335.012.568.147.571.522,0,.63.034,1.263-.015,1.889a.662.662,0,0,1-.264.565.919.919,0,0,1-.949.8.546.546,0,0,1-.1-.009.605.605,0,0,1-.353.114.847.847,0,0,1-.1-.018.606.606,0,0,1-.181.027.632.632,0,0,1-.384.04c-.1-.025-.209-.04-.317-.055l-.034.006h-.108a.506.506,0,0,1-.071-.012,2.606,2.606,0,0,1-1.2.1c-1.84-.209-3.689.046-5.529-.221a3.7,3.7,0,0,1-2.4-1.017,6.01,6.01,0,0,1-1.877-3.917,5.79,5.79,0,0,0-.089-1,5.273,5.273,0,0,1-.071-2.651.728.728,0,0,0-.089-.6.646.646,0,0,1-.151-.664,4.845,4.845,0,0,0-.034-2.316.8.8,0,0,1-.009-.494,1.858,1.858,0,0,0,.181-1.336.65.65,0,0,1,.061-.427,6.537,6.537,0,0,0,.445-1.834c.2-1.121-.077-1.508-1.229-1.637a1.824,1.824,0,0,1-.811-.255,1.137,1.137,0,0,0-1.17-.117,5.431,5.431,0,0,1-2.869.28,13.282,13.282,0,0,0-1.748-.108c-.221,0-.608.117-.636.243-.1.421-.384.817-.123,1.315a1.55,1.55,0,0,1,.129,1.115,2.435,2.435,0,0,0-.019,1.413,5.706,5.706,0,0,1,.049,2.59c-.166.611-.442,1.262.015,1.892.049.068.022.19.022.289.028,1.284.061,2.571.08,3.858,0,.359-.043.719-.061,1.078a10.873,10.873,0,0,0-.055,1.892,4.245,4.245,0,0,1-.322,1.92c-.148.452-.409.925-.974.986a18.534,18.534,0,0,1-2.329.157,21.415,21.415,0,0,1-2.153-.252.817.817,0,0,1-.719-.722c-.049-.215-.028-.5-.16-.627a1.6,1.6,0,0,1-.323-1.566.663.663,0,0,0-.028-.356c-.157-.362-.025-.86-.5-1.069a17.486,17.486,0,0,1-.295-1.855c-.031-.553.108-1.109.1-1.665-.012-.891-.068-1.782-.138-2.669-.052-.608-.375-1.192-.154-1.831.034-.1-.043-.237-.049-.359a8.808,8.808,0,0,1-.058-3.235,1.727,1.727,0,0,0,.043-.436,1.3,1.3,0,0,0-1.349-1.453c-1.646-.071-3.293-.147-5.038-.227a2.164,2.164,0,0,0-.092.424c-.015.75-.006,1.5-.028,2.242a4.016,4.016,0,0,0-.059,1.275,1.845,1.845,0,0,1-.107,1.352.552.552,0,0,0-.046.283c.049.605.077,1.213.169,1.809a9.568,9.568,0,0,1-.028,2.464,6.233,6.233,0,0,0,.191,2.789,6.476,6.476,0,0,1,.277,2.135,11.253,11.253,0,0,0,.2,1.659c.1.614.264,1.219.381,1.831a3.464,3.464,0,0,0,.94,2.153c.052.046.117.123.114.181-.055.872.918,1.309.918,2.163,0,.071.117.151.19.209.507.409,1.02.814,1.527,1.223a1.465,1.465,0,0,1,.375.338,1.305,1.305,0,0,0,.765.522c.314.117.615.258.826.347.215-.064.381-.175.485-.132a1.218,1.218,0,0,0,.909.12.5.5,0,0,1,.347.071.954.954,0,0,0,.974-.006.638.638,0,0,1,.424-.061,11.292,11.292,0,0,1,1.376.455c.535.233.777.23,1.167-.187a1.983,1.983,0,0,0,.249-.449c.372.194.627.332.829.28a2.859,2.859,0,0,1,2.043.123.374.374,0,0,0,.141.028c.9-.012,1.791-.015,2.688-.046a2.891,2.891,0,0,1,1.785.154.263.263,0,0,0,.212.034,3.6,3.6,0,0,1,1.484-.025c.092,0,.218.009.27-.043a.725.725,0,0,1,1-.043.67.67,0,0,0,.276.08c.842.046,1.686.061,2.525.135a2.242,2.242,0,0,1,1.4.31.512.512,0,0,0,.473.043,2.192,2.192,0,0,1,1.536-.209c.356.031.737-.135,1.081-.074a9.891,9.891,0,0,0,3.026-.065,3.406,3.406,0,0,1,.584.022c.289.012.58.015.869.037.839.065,1.711-.194,2.506.279a.411.411,0,0,0,.35.009c.221-.126.43.024.6,0a5.4,5.4,0,0,1,1.806-.043c.034.006.083-.046.123-.074a.871.871,0,0,1,1.029.046,1.149,1.149,0,0,0,.971.12,11.027,11.027,0,0,1,1.652-.206c.627-.034,1.269.074,1.883-.021a8.67,8.67,0,0,1,2.967.006,2.869,2.869,0,0,0,.716-.061,7.511,7.511,0,0,1,1.361-.068,1.509,1.509,0,0,1,.43.123h.012a1.867,1.867,0,0,1,.458.064,1.523,1.523,0,0,1,.667-.028,3.386,3.386,0,0,1,.74-.086l.061-.055a.958.958,0,0,1,.771-.329,8.659,8.659,0,0,0,1.444-.052c.673-.1,1.33-.286,2-.436a8.989,8.989,0,0,1,1.846-.387,12.454,12.454,0,0,0,2.067-.338,1.857,1.857,0,0,0,1.032-.479,2.159,2.159,0,0,1,.587-.279c.111-.049.28-.074.319-.157.24-.5.6-.547.934-.931.157-.178.528-.574.654-.765a8.724,8.724,0,0,0,1.272-2.663,27.634,27.634,0,0,0,.6-4.392C357.981,374.27,357.858,369.432,357.8,368.63Zm-8.469,2.5.728.049.067.67C349.73,371.653,349.389,371.622,349.334,371.131Zm.872.341c.369-.344.369-.344.777-.236C350.833,371.548,350.59,371.478,350.206,371.472Zm1.717-1.508c-.052-.009-.086-.129-.129-.2a.864.864,0,0,1,.24-.107c.028-.006.074.1.138.187C352.071,369.9,351.988,369.976,351.923,369.963Zm-58.389-2.113a10.285,10.285,0,0,1-.621,2.39c-.117.123-.233.249-.353.369A14.1,14.1,0,0,1,293.535,367.85Zm.316,3.6c-.455.141-.507.78-.8.971a.663.663,0,0,1-.657,0,4.561,4.561,0,0,0,.525-.519,2.576,2.576,0,0,1,.289-.452,6.039,6.039,0,0,1,.869-.363Zm1,6.187a.575.575,0,0,1-.166-.187s.1-.123.129-.114a1.1,1.1,0,0,1,.227.169C294.945,377.569,294.868,377.649,294.847,377.637Zm.624-1.069c0,.015-.12,0-.184-.006l.037-.421.221.037A3.309,3.309,0,0,1,295.47,376.568Zm.178-.9a3.963,3.963,0,0,1,1.032-2.126c.409.571.378.9-.012,1.3a5.921,5.921,0,0,0-.6.863Zm1.975-.587-1.158,1.579s-.332.175-.332.123a2.58,2.58,0,0,1,.209-.439c.037-.052.089-.043.23-.406a2.072,2.072,0,0,1,.455-.682c.052-.052.6-.489.6-.489Zm2.43,7.013a.89.89,0,0,0-.228.405,2.116,2.116,0,0,1-.458.682c-.052.052-.6.488-.6.488v-.313l1.158-1.579s.332-.175.332-.123A2.6,2.6,0,0,1,300.053,382.091Zm5.806,2.577a.579.579,0,0,1-.2-.261c-.015-.031.074-.163.1-.157a.843.843,0,0,1,.356.129c.077.058.111.181.215.372A1.862,1.862,0,0,1,305.859,384.668Zm3.493-16.692c.049-.074.906-1.244.906-1.244-.052.1-2.565,4.709-2.688,4.525A23.288,23.288,0,0,1,309.352,367.976Zm-1.874,8.048a.558.558,0,0,1,.178-.2c.009-.009.092.07.187.144l-.273.227C307.536,376.135,307.462,376.064,307.478,376.024Zm.98,8.7c-.015.074-.227.172-.341.163a1.93,1.93,0,0,1-.525-.227c.3-.4.4-.817.836-1C308.7,384.044,308.51,384.395,308.458,384.726Zm-.418-10.158c.362-.129.522-.037.605.273C308.347,375.016,308.206,374.878,308.04,374.568Zm1.109-4.393a15.476,15.476,0,0,1,1.21-2.233c.034-.049.617-.848.617-.848A31.219,31.219,0,0,1,309.149,370.175Zm1.76,14.152a1.969,1.969,0,0,1-.356.27c0-.243-.037-.378.009-.47a.708.708,0,0,1,.289-.273c.046-.025.224.092.221.108A1.121,1.121,0,0,1,310.909,384.327Zm2.184.568c-.295-.006-.513-.108-.547-.461l.605-.547a1.188,1.188,0,0,1,.27.184c.12.16.329.35.307.5C313.676,384.883,313.366,384.9,313.093,384.9Zm2.749-3.6c-.117.178-.731.765-.746.909a9.709,9.709,0,0,1-.513,1.085s-.264-.175-.234-.264.439-1.091.439-1.091l1.054-1.195.295-.206A4.434,4.434,0,0,1,315.842,381.3Zm10.788,1.047c-.307.574-.584,1.171-.891,1.745-.369.691-.912.774-1.619.16.138-.249.243-.485.39-.7.329-.473.679-.934,1.023-1.4a3.152,3.152,0,0,1,.273-.332c.194-.2.4-.393.544-.538l.992-.4c.2.141.326.335.071.605-.132.141-.28.267-.412.409A2.429,2.429,0,0,0,326.63,382.343Zm.485,1.849a.247.247,0,0,1-.021-.243c.178-.178.369-.181.587.08C327.49,384.21,327.34,384.37,327.116,384.192Zm.495-3.735c-.04,0-.086-.086-.129-.132a.806.806,0,0,1,.218-.141c.034-.009.1.074.191.154A1.083,1.083,0,0,1,327.61,380.456Zm.409,3.02c-.012.009-.129-.1-.12-.123a.913.913,0,0,1,.157-.237c.074.1.154.169.141.19A.473.473,0,0,1,328.019,383.476Zm.221-11.75-.018-.175.39-.046.022.129Zm2,4.943-.233-.55c.129-.012.218-.046.252-.015C330.433,376.254,330.491,376.423,330.24,376.669Zm-.218-4.43c.31.627-.184,1.035-.553,1.643-.556-.793-.009-1.29.243-1.806.178-.365.458-.387,1.078-.2C330.66,372.267,330.243,371.96,330.022,372.24Zm1.984,2.848c.092-.4.034-.8.507-.983.144-.055.221-.283.405-.535l.132.839C332.654,374.525,332.577,375.106,332.006,375.087Zm.3,3.247c.237-.338.258-.823.872-.906.16.516.43.971-.037,1.481Zm1.035,4.463-.111-.645.1-.074c.1.092.249.169.289.283C333.686,382.545,333.631,382.723,333.345,382.8Zm2.565,2.408a1.145,1.145,0,0,1-1.183-.2c.255-.538.255-.538,1.542-.891C336.669,384.665,336.537,385.073,335.91,385.206Zm3.007-.144-.845.068c-.277-.771-.277-.771.329-1.152.218-.138.433-.283.808-.528Zm.319-1.957-.178-.077c.052-.114.1-.23.163-.341l.114.04C339.307,382.852,339.271,382.978,339.237,383.1Zm2.037-3.063-.488.6C340.681,380.183,340.681,380.183,341.273,380.042Zm.2,4.368c-.387.2-.8.768-1.558.6a11.146,11.146,0,0,1,1.831-2.556l.273.713Zm2.645-.618c-.359.206-.366-.353-.5-.359-.427-.019-.3.568-.7.378l-.107-1.892a1.177,1.177,0,0,1,1.309.7ZM344,380.484c-.289-.012-.445-.089-.39-.393.1-.51.157-.577.676-.565Zm1.923,2.181c-.138-.5-.138-.5.24-.728A1,1,0,0,1,345.927,382.665Zm-.894-5.2a2.568,2.568,0,0,1,.326.111l-.065.172-.341-.117C344.981,377.569,345.021,377.459,345.033,377.462Zm-.028,2.08c.236-.366.482-.233.765-.129A.6.6,0,0,1,345.006,379.541Zm1.078,1.312c-.2.375-.461.353-.786.255C345.47,380.678,345.715,380.656,346.084,380.853Zm-.7,3.661.2-.82c.47-.151.759.015,1.01.528C346.148,384.284,345.887,384.659,345.387,384.514ZM348,381.3c-.24.025-.307-.144-.326-.4.258-.074.418-.018.464.2A.246.246,0,0,1,348,381.3Zm4.549-9.347.237.332-.166.1-.172-.375Zm-1.45,7.234a.513.513,0,0,1,.4,0c.071.034.114.209.1.313-.049.513-.258.719-.716.753C350.695,379.679,350.747,379.36,351.1,379.191Zm-.129,3.575c.034-.077.043-.157.083-.181.178-.107.35-.126.553.181Zm.719-1.238c.4-.5.418-.5,1.02.034C352.344,382.008,352.028,381.452,351.687,381.528Zm.983-.547c-.267-.578-.175-.759.445-.768Z" transform="translate(-247.025 -346.639)"/></g><g transform="translate(509.253 585.306)"><path d="M244.358,375.674l.1-.021v-.381c0-1.964.009-3.931-.006-5.9,0-.357.079-.493.466-.49,2.385.018,4.769-.027,7.151.027a11.807,11.807,0,0,1,2.76.384,5.626,5.626,0,0,1,3.423,8.473,5.9,5.9,0,0,1-3.7,2.6,14.38,14.38,0,0,1-4.24.36c-.348-.006-.475.094-.472.454.015,1.586.006,3.172.009,4.754,0,.13.024.257.045.457l8.34-3.813a10.314,10.314,0,0,0,20.4,1.586c.611-2.881-.505-7.529-2.034-8.376a3.153,3.153,0,0,1-.1.393,11,11,0,0,1-.648,1.595,5.775,5.775,0,0,1-3.668,2.584,14.229,14.229,0,0,1-4.2.36c-.375-.006-.484.112-.481.481.018,1.574,0,3.144.015,4.718,0,.327-.085.454-.436.451-1.522-.015-3.044-.012-4.566,0-.318,0-.43-.091-.43-.421q.014-8.325,0-16.656c0-.336.13-.412.436-.408.908.015,1.819.006,2.727,0,.127,0,.251-.021.414-.036-.058-.157-.088-.263-.133-.36q-2.46-5.374-4.926-10.752c-.272-.593-.275-.59-.862-.321q-9.614,4.4-19.231,8.8c-.33.151-.36.291-.215.608,1.316,2.842,2.615,5.692,3.919,8.54C244.249,375.471,244.306,375.571,244.358,375.674Z" transform="translate(-240.202 -355.638)"/><path d="M255.9,365.041c.221-.015.363-.03.5-.03,1.7,0,3.392.009,5.087-.012a.58.58,0,0,1,.651.472c.9,2.663,1.831,5.317,2.751,7.977.067.191.136.381.2.572a.935.935,0,0,0,.236-.4q1.421-4.108,2.832-8.219a.5.5,0,0,1,.551-.4c1.707.015,3.414.006,5.123.009.127,0,.254.018.418.033-.046.154-.067.26-.106.36q-3.1,8.3-6.216,16.592c-.269.717-.127.623-.9.629-.433,0-.866,0-1.407,0l2.778,3.695,11.732-27.157-29.375,3.692,8.391,11.169.091-.054Z" transform="translate(-218.803 -351.759)"/><path d="M243.391,364.325c0,.505.006,1.008,0,1.51,0,.251.1.357.351.345.294-.012.59.024.881-.009a7.4,7.4,0,0,0,1.583-.245,1.457,1.457,0,0,0,1.023-1.395,1.738,1.738,0,0,0-1.816-1.985c-.563-.036-1.129-.006-1.692-.018-.239-.006-.333.1-.33.327C243.394,363.344,243.391,363.835,243.391,364.325Z" transform="translate(-233.746 -344.945)"/><path d="M249.227,364.364c0,.505,0,1.008,0,1.51,0,.188.057.312.269.306.6-.009,1.207.027,1.8-.033a1.781,1.781,0,0,0,1.719-1.41,1.755,1.755,0,0,0-1.74-2.182c-.572-.051-1.153-.015-1.728-.027-.239-.006-.33.1-.324.33C249.23,363.359,249.224,363.862,249.227,364.364Z" transform="translate(-221.921 -344.948)"/><path d="M253.477,358.221a1.236,1.236,0,0,0,.042.206q.762,1.934,1.528,3.874a.332.332,0,0,0,.384.242c.357-.018.409-.23.442-.508.139-1.077.284-2.155.439-3.307l.145.393c.354.944.711,1.885,1.053,2.832a.357.357,0,0,0,.445.263.362.362,0,0,0,.372-.363c.157-1.129.336-2.257.5-3.386.045-.321.076-.641.112-.965-.572-.018-.593-.006-.654.463-.073.548-.145,1.1-.212,1.643-.067.53-.127,1.062-.188,1.592a.6.6,0,0,1-.16-.257q-.527-1.416-1.056-2.829c-.073-.194-.139-.363-.412-.321-.251.04-.378.13-.409.412-.13,1.117-.29,2.23-.448,3.42-.055-.13-.085-.194-.109-.257q-.531-1.434-1.065-2.866C254.058,358.04,253.994,358.019,253.477,358.221Z" transform="translate(-213.304 -355.137)"/><path d="M260.549,366.565c1.147.2,2.245.384,3.341.587a.357.357,0,0,0,.463-.227.37.37,0,0,0-.13-.53c-1.047-.835-2.079-1.685-3.117-2.53-.091-.076-.194-.136-.287-.2-.33.463-.33.505.051.8.808.623,1.616,1.241,2.424,1.864a1.562,1.562,0,0,1,.16.178c-1.126-.2-2.188-.387-3.247-.578-.23-.042-.415-.063-.536.221s0,.4.191.551c.893.69,1.776,1.389,2.708,2.118-1.135-.2-2.215-.4-3.3-.593-.5-.091-.587-.021-.617.518a.947.947,0,0,0,.13.048c1.383.224,2.766.442,4.146.669a.358.358,0,0,0,.43-.239c.13-.257.036-.4-.16-.557C262.326,367.978,261.457,367.282,260.549,366.565Z" transform="translate(-202.806 -342.643)"/><path d="M251.269,359.181c.257.339.457.614.672.88.626.772,1.262,1.537,1.885,2.312.185.23.4.163.6.085.073-.027.127-.221.115-.33-.154-1.289-.327-2.578-.487-3.871-.027-.215-.088-.339-.345-.306s-.275.194-.251.4c.058.424.115.85.173,1.277.085.611.169,1.222.269,1.937-.124-.16-.182-.239-.239-.312-.747-.926-1.5-1.849-2.239-2.784-.218-.272-.475-.172-.7-.094-.073.021-.1.29-.082.442.142,1.208.3,2.412.454,3.616.06.5.118.539.645.333Z" transform="translate(-219.061 -354.224)"/><path d="M258.192,370.585c.62-.079,1.129-.136,1.634-.209.8-.118,1.6-.224,2.4-.387.16-.033.288-.281.4-.448.021-.033-.076-.2-.148-.23q-1.87-.822-3.752-1.613a.354.354,0,0,0-.312.115c-.17.215-.091.351.166.457.984.405,1.961.829,2.954,1.25-.772.109-1.531.212-2.288.324a14.663,14.663,0,0,0-1.628.284c-.169.046-.294.309-.405.493-.021.036.094.209.179.248,1.235.542,2.475,1.074,3.713,1.613.175.076.26.018.342-.142.139-.263.015-.363-.215-.46C260.247,371.468,259.269,371.048,258.192,370.585Z" transform="translate(-205.748 -334.485)"/><path d="M261.654,356.874c-.209.03-.466.048-.717.1a2.266,2.266,0,0,0-1.867,2.315,2.113,2.113,0,0,0,1.912,2.273,7.143,7.143,0,0,0,1.792-.281c.248-.048.321-.227.284-.472-.076-.521-.148-1.044-.206-1.568-.027-.248-.151-.3-.375-.263-.275.048-.557.082-.838.115-.179.021-.345.027-.312.29s.179.242.369.215c.563-.076.563-.073.651.5.009.06.018.121.027.185.076.636.073.639-.557.744l-.109.018a1.6,1.6,0,0,1-1.891-1.235,1.68,1.68,0,0,1,.965-2.218,4.877,4.877,0,0,1,1.3-.139c.173-.006.315-.015.293-.206a.446.446,0,0,0-.206-.308A1.759,1.759,0,0,0,261.654,356.874Z" transform="translate(-201.974 -356.398)"/><path d="M250.363,360.407l-.082-.018c-.07-.557-.145-1.114-.212-1.67-.027-.221-.124-.324-.366-.294s-.306.148-.269.375c.054.327.091.657.133.987.124.971.251,1.946.369,2.92.03.233.133.315.369.282s.3-.136.26-.372c-.064-.351-.07-.711-.139-1.059a.838.838,0,0,1,.333-.832l1.489,1.691c.288.324.457.348.9.112-.082-.1-.157-.191-.236-.281-.536-.608-1.065-1.22-1.61-1.822a.3.3,0,0,1-.033-.445c.173-.239.327-.49.487-.738.227-.357.454-.714.7-1.1a.793.793,0,0,0-.944.39C251.162,359.172,250.751,359.784,250.363,360.407Z" transform="translate(-221.514 -353.87)"/><path d="M265.872,361.722a.337.337,0,0,0-.106-.018c-.627.112-1.253.23-1.882.342-.336.058-.742.242-.99.118s-.354-.557-.511-.859c-.212-.408-.412-.82-.63-1.253-.354.454-.369.554-.16.959l1.068,2.061c-.2-.073-.309-.109-.418-.154-.418-.179-.838-.351-1.25-.542-.239-.109-.321.012-.414.2-.109.218-.024.306.169.387,1.216.521,2.436,1.041,3.649,1.577.227.1.324.033.418-.178.1-.227.03-.333-.185-.418-.354-.139-.7-.309-1.05-.448a.7.7,0,0,1-.445-.687c.723-.136,1.431-.272,2.14-.4C265.721,362.325,265.817,362.216,265.872,361.722Z" transform="translate(-199.011 -349.959)"/><path d="M260.218,369.246c.2-.472.384-.911.578-1.347.079-.175.07-.29-.127-.378-.212-.094-.284.009-.357.179-.151.363-.3.726-.478,1.077-.039.085-.2.194-.254.173-.375-.136-.738-.3-1.129-.472.218-.512.409-.977.611-1.434.076-.17.091-.291-.115-.385s-.284-.021-.36.16c-.245.587-.5,1.174-.76,1.758-.091.2-.042.312.16.4q1.829.781,3.652,1.577c.194.085.315.064.4-.145q.386-.94.8-1.864c.1-.215.027-.348-.178-.369a.39.39,0,0,0-.3.188c-.236.493-.445,1-.672,1.519Z" transform="translate(-204.578 -336.654)"/><path d="M261.254,361.532c.741-.094,1.4-.179,2.052-.26.191-.024.369-.1.281-.318a.424.424,0,0,0-.345-.191,11.251,11.251,0,0,0-1.313.154c-.254.042-.333-.057-.357-.278-.033-.318-.057-.635-.118-.947-.048-.266.058-.354.3-.381.363-.039.729-.1,1.092-.139.172-.021.306-.048.278-.285-.027-.254-.176-.251-.363-.221-.169.027-.339.036-.508.064-.89.136-.89.136-1.014-.738-.009-.061-.018-.121-.033-.182-.067-.266.051-.384.309-.415.4-.045.8-.106,1.2-.154.182-.021.3-.064.266-.294-.033-.212-.148-.248-.336-.224-.593.085-1.189.173-1.786.233-.306.03-.39.157-.348.454q.263,1.911.5,3.828C261.039,361.447,261.109,361.562,261.254,361.532Z" transform="translate(-199.063 -356.717)"/><path d="M257.954,361.42c-.293.145-.348-.082-.375-.366-.024-.269-.061-.539-.106-.8-.051-.3.075-.427.369-.451.354-.03.705-.094,1.059-.133.206-.021.309-.136.227-.315a.465.465,0,0,0-.315-.185,1.293,1.293,0,0,0-.4.033c-1.053.151-1.038.148-1.189-.89-.049-.318.076-.39.333-.421.4-.045.805-.085,1.2-.163.1-.021.164-.179.242-.272-.1-.079-.2-.23-.291-.221-.66.064-1.316.164-1.973.248-.191.024-.239.118-.215.3q.259,1.97.5,3.946c.027.221.115.321.36.285.645-.091,1.292-.161,1.937-.242.157-.021.318-.03.3-.275s-.154-.275-.351-.248C258.859,361.305,258.444,361.357,257.954,361.42Z" transform="translate(-207.144 -355.667)"/><path d="M262.183,359.463c-.263-.375-.372-.39-.635.009a3.087,3.087,0,0,0-.39.82,1.207,1.207,0,0,0,2.018,1.241c.224-.191.43-.4.657-.587a.722.722,0,0,1,.92-.055.733.733,0,0,1,.266.884,2.18,2.18,0,0,1-.294.587,6.206,6.206,0,0,1-.49.569c.257.058.478.182.584.118a2.115,2.115,0,0,0,.723-2.073,1.24,1.24,0,0,0-1.888-.645c-.333.221-.611.523-.929.775a.663.663,0,0,1-1.041-.784A8.674,8.674,0,0,1,262.183,359.463Z" transform="translate(-197.868 -351.731)"/><path d="M259.908,365.646c-.1-.064-.191-.172-.281-.172a.372.372,0,0,0-.288.17c-.387.862-.753,1.731-1.135,2.6-.082.188-.051.287.139.372.206.088.294,0,.363-.172.088-.215.2-.421.272-.642.1-.3.248-.327.523-.2,1,.445,2,.868,3,1.3.191.082.345.167.466-.115.115-.266.03-.366-.209-.466-.993-.418-1.976-.869-2.975-1.274-.345-.139-.384-.306-.227-.608C259.69,366.2,259.778,365.943,259.908,365.646Z" transform="translate(-203.811 -338.974)"/><path d="M256.164,362.037c.8-.109,1.471-.206,2.14-.287.212-.027.3-.151.23-.324a.391.391,0,0,0-.306-.194,8.393,8.393,0,0,0-1.2.148c-.324.063-.46,0-.5-.354-.118-1.1-.278-2.191-.411-3.286-.03-.23-.118-.321-.357-.293s-.321.121-.275.36c.048.254.067.511.1.769.13,1.02.257,2.043.4,3.062C256,361.816,255.982,362.07,256.164,362.037Z" transform="translate(-209.257 -355.249)"/><path d="M244.358,375.674c-.052-.1-.109-.2-.154-.306-1.3-2.848-2.6-5.7-3.919-8.54-.145-.318-.115-.457.215-.608q9.619-4.389,19.231-8.8c.587-.269.59-.272.862.321q2.465,5.374,4.926,10.752c.045.1.076.2.133.36-.163.015-.287.036-.414.036-.908,0-1.819.012-2.727,0-.306,0-.436.073-.436.408q.014,8.33,0,16.656c0,.33.112.424.43.421,1.522-.012,3.044-.015,4.566,0,.351,0,.439-.124.436-.451-.012-1.574,0-3.144-.015-4.718,0-.369.106-.487.481-.481a14.229,14.229,0,0,0,4.2-.36,5.775,5.775,0,0,0,3.668-2.584,11,11,0,0,0,.648-1.595,3.153,3.153,0,0,0,.1-.393c1.528.847,2.645,5.5,2.034,8.376a10.334,10.334,0,0,1-9.057,8.161,10.358,10.358,0,0,1-11.342-9.747l-8.34,3.813c-.021-.2-.045-.327-.045-.457,0-1.583.006-3.168-.009-4.754,0-.36.124-.46.472-.454a14.38,14.38,0,0,0,4.24-.36,5.9,5.9,0,0,0,3.7-2.6,5.626,5.626,0,0,0-3.423-8.473,11.807,11.807,0,0,0-2.76-.384c-2.382-.054-4.766-.009-7.151-.027-.387,0-.469.133-.466.49.015,1.964.006,3.931.006,5.9v.381Z" transform="translate(-240.202 -355.638)"/><path d="M255.9,365.041l3.341,8.93-.091.054-8.391-11.169,29.375-3.692-11.732,27.157-2.778-3.695c.542,0,.974,0,1.407,0,.775-.006.632.088.9-.629q3.114-8.293,6.216-16.592c.039-.1.061-.206.106-.36-.164-.015-.291-.033-.418-.033-1.71,0-3.417.006-5.123-.009a.5.5,0,0,0-.551.4q-1.4,4.112-2.832,8.219a.935.935,0,0,1-.236.4c-.067-.191-.136-.381-.2-.572-.92-2.66-1.846-5.314-2.751-7.977a.58.58,0,0,0-.651-.472c-1.695.021-3.389.009-5.087.012C256.267,365.01,256.125,365.026,255.9,365.041Z" transform="translate(-218.803 -351.759)"/><path d="M243.391,364.325c0-.49,0-.98,0-1.471,0-.23.091-.333.33-.327.563.012,1.129-.018,1.692.018a1.738,1.738,0,0,1,1.816,1.985,1.457,1.457,0,0,1-1.023,1.395,7.4,7.4,0,0,1-1.583.245c-.291.033-.587,0-.881.009-.254.012-.354-.094-.351-.345C243.4,365.333,243.391,364.83,243.391,364.325Z" transform="translate(-233.746 -344.945)"/><path d="M249.224,364.364c0-.5.006-1,0-1.507-.006-.233.085-.336.324-.33.575.012,1.156-.024,1.728.027a1.755,1.755,0,0,1,1.74,2.182,1.781,1.781,0,0,1-1.719,1.41c-.6.06-1.2.024-1.8.033-.212.006-.269-.118-.269-.306C249.227,365.371,249.227,364.869,249.224,364.364Z" transform="translate(-221.921 -344.948)"/><path d="M253.477,358.221c.517-.2.581-.181.753.278q.536,1.43,1.065,2.866c.024.064.054.127.109.257.157-1.189.318-2.3.448-3.42.03-.281.157-.372.409-.412.272-.042.339.127.412.321q.527,1.416,1.056,2.829a.6.6,0,0,0,.16.257c.061-.53.121-1.062.188-1.592.067-.548.139-1.1.212-1.643.06-.469.082-.481.654-.463-.036.324-.067.645-.112.965-.166,1.129-.345,2.257-.5,3.386a.362.362,0,0,1-.372.363.357.357,0,0,1-.445-.263c-.342-.947-.7-1.888-1.053-2.832l-.145-.393c-.154,1.153-.3,2.23-.439,3.307-.033.278-.085.49-.442.508a.332.332,0,0,1-.384-.242q-.762-1.938-1.528-3.874A1.236,1.236,0,0,1,253.477,358.221Z" transform="translate(-213.304 -355.137)"/><path d="M260.549,366.565c.908.717,1.776,1.413,2.654,2.1.2.157.29.3.16.557a.358.358,0,0,1-.43.239c-1.38-.227-2.763-.445-4.146-.669a.947.947,0,0,1-.13-.048c.03-.539.118-.608.617-.518,1.08.194,2.161.39,3.3.593-.932-.729-1.816-1.428-2.708-2.118-.191-.151-.306-.275-.191-.551s.306-.263.536-.221c1.059.191,2.121.378,3.247.578a1.562,1.562,0,0,0-.16-.178c-.808-.623-1.616-1.241-2.424-1.864-.381-.294-.381-.336-.051-.8.094.067.2.127.287.2,1.038.844,2.07,1.695,3.117,2.53a.37.37,0,0,1,.13.53.357.357,0,0,1-.463.227C262.795,366.949,261.7,366.765,260.549,366.565Z" transform="translate(-202.806 -342.643)"/><path d="M251.269,359.181l.469,3.583c-.527.206-.584.169-.645-.333-.151-1.2-.312-2.409-.454-3.616-.015-.151.009-.421.082-.442.224-.079.481-.179.7.094.735.935,1.492,1.858,2.239,2.784.058.073.115.151.239.312-.1-.714-.185-1.325-.269-1.937-.057-.427-.115-.853-.173-1.277-.024-.2-.015-.36.251-.4s.318.091.345.306c.16,1.292.333,2.581.487,3.871.012.109-.042.3-.115.33-.2.079-.415.145-.6-.085-.623-.775-1.259-1.54-1.885-2.312C251.726,359.8,251.526,359.52,251.269,359.181Z" transform="translate(-219.061 -354.224)"/><path d="M258.192,370.585c1.077.463,2.055.883,3.035,1.3.23.1.354.2.215.46-.082.16-.167.218-.342.142-1.238-.539-2.478-1.071-3.713-1.613-.085-.039-.2-.212-.179-.248.112-.184.236-.448.405-.493a14.663,14.663,0,0,1,1.628-.284c.757-.112,1.516-.215,2.288-.324-.992-.421-1.97-.844-2.954-1.25-.257-.106-.336-.242-.166-.457a.354.354,0,0,1,.312-.115q1.884.79,3.752,1.613c.073.033.169.2.148.23-.112.166-.239.414-.4.448-.793.163-1.595.269-2.4.387C259.321,370.449,258.813,370.506,258.192,370.585Z" transform="translate(-205.748 -334.485)"/><path d="M261.6,359.428a2.058,2.058,0,0,1-1.546,2.152,12.084,12.084,0,0,1-1.625.278c-.191.03-.293-.045-.321-.251-.163-1.313-.342-2.624-.5-3.937a.387.387,0,0,1,.191-.318,7.5,7.5,0,0,1,1.737-.233A2.034,2.034,0,0,1,261.6,359.428Zm-2.466-1.825a3.163,3.163,0,0,0-.6.109.432.432,0,0,0-.236.327c.112,1.008.245,2.015.393,3.02a.356.356,0,0,0,.281.218,3.744,3.744,0,0,0,.932-.178,1.708,1.708,0,0,0,1-2.146A1.582,1.582,0,0,0,259.134,357.6Z" transform="translate(-204.928 -355.911)"/><path d="M252.075,360.131a2.119,2.119,0,0,1,2.6-2.282,2.269,2.269,0,0,1,.245.076,2.611,2.611,0,0,1,1.286,3.005,2.055,2.055,0,0,1-2.258,1.586,2.174,2.174,0,0,1-1.861-2.112C252.078,360.294,252.078,360.182,252.075,360.131Zm.587-.157a3.184,3.184,0,0,0,.469,1.425,1.272,1.272,0,0,0,1.338.578,1.238,1.238,0,0,0,1.026-.9,2.384,2.384,0,0,0-.284-2.152,1.27,1.27,0,0,0-2.164-.039A5.052,5.052,0,0,0,252.662,359.974Z" transform="translate(-216.144 -354.553)"/><path d="M259.6,364.559a1.973,1.973,0,0,1,2.436-2.006,2.819,2.819,0,0,1,1.807,1.041,1.95,1.95,0,0,1,.169,2.185,1.858,1.858,0,0,1-1.785,1.083,2.815,2.815,0,0,1-2.143-.987A1.864,1.864,0,0,1,259.6,364.559Zm2.469,1.643c.887.006,1.335-.266,1.553-.8a1.306,1.306,0,0,0-.354-1.51,2.438,2.438,0,0,0-1.795-.72,1.232,1.232,0,0,0-1.247.8,1.3,1.3,0,0,0,.3,1.462A2.371,2.371,0,0,0,262.066,366.2Z" transform="translate(-200.904 -344.98)"/><path d="M262.956,362.6c.8-.378,1.537-.012,2.291.033-.042.527-.148.611-.617.542-.327-.052-.654-.118-.983-.139a.933.933,0,0,0-.972.856c-.006.079.115.2.2.242.412.194.829.375,1.247.545.2.082.272.179.175.39-.088.191-.166.309-.412.2-1.2-.53-2.409-1.038-3.607-1.574-.1-.045-.227-.26-.2-.342a9.411,9.411,0,0,1,.626-1.443,1.084,1.084,0,0,1,1.222-.551,1.219,1.219,0,0,1,.993,1.05C262.935,362.462,262.941,362.51,262.956,362.6Zm-.738,1.256a9.032,9.032,0,0,0,.251-1.174.673.673,0,0,0-.5-.654.644.644,0,0,0-.8.166,4.236,4.236,0,0,0-.445.823.254.254,0,0,0,.1.227C261.246,363.445,261.685,363.627,262.217,363.857Z" transform="translate(-199.926 -347.355)"/><path d="M261.654,356.874a1.759,1.759,0,0,1,.518.067.446.446,0,0,1,.206.308c.021.191-.121.2-.293.206a4.877,4.877,0,0,0-1.3.139,1.68,1.68,0,0,0-.965,2.218,1.6,1.6,0,0,0,1.891,1.235l.109-.018c.629-.106.632-.109.557-.744-.009-.063-.018-.124-.027-.185-.088-.572-.088-.575-.651-.5-.191.027-.336.039-.369-.215s.133-.269.312-.29c.281-.033.563-.067.838-.115.224-.039.348.015.375.263.057.524.13,1.047.206,1.568.036.245-.036.424-.284.472a7.143,7.143,0,0,1-1.792.281,2.113,2.113,0,0,1-1.912-2.273,2.266,2.266,0,0,1,1.867-2.315C261.188,356.922,261.445,356.9,261.654,356.874Z" transform="translate(-201.974 -356.398)"/><path d="M250.363,360.407c.387-.623.8-1.235,1.153-1.876a.793.793,0,0,1,.944-.39c-.248.387-.475.744-.7,1.1-.16.248-.315.5-.487.738a.3.3,0,0,0,.033.445c.545.6,1.074,1.214,1.61,1.822.079.091.154.185.236.281-.445.236-.614.212-.9-.112l-1.489-1.691a.838.838,0,0,0-.333.832c.07.348.076.708.139,1.059.042.236-.021.339-.26.372s-.339-.049-.369-.282c-.118-.974-.245-1.949-.369-2.92-.042-.33-.079-.66-.133-.987-.036-.227.03-.342.269-.375s.339.073.366.294c.066.557.142,1.114.212,1.67Z" transform="translate(-221.514 -353.87)"/><path d="M265.872,361.722c-.054.493-.151.6-.6.684-.708.13-1.416.266-2.14.4a.7.7,0,0,0,.445.687c.354.139.7.309,1.05.448.215.085.281.191.185.418-.094.212-.191.278-.418.178-1.214-.536-2.433-1.056-3.649-1.577-.194-.082-.279-.17-.169-.387.094-.188.175-.309.414-.2.412.191.832.363,1.25.542.109.045.221.082.418.154l-1.068-2.061c-.209-.406-.194-.505.16-.959.218.433.418.844.63,1.253.157.3.26.735.511.859s.654-.06.99-.118c.629-.112,1.256-.23,1.882-.342A.337.337,0,0,1,265.872,361.722Z" transform="translate(-199.011 -349.959)"/><path d="M260.218,369.246l1.471.632c.227-.521.436-1.026.672-1.519a.39.39,0,0,1,.3-.188c.206.021.275.154.178.369q-.413.926-.8,1.864c-.088.209-.209.23-.4.145q-1.825-.794-3.652-1.577c-.2-.085-.251-.194-.16-.4.263-.584.514-1.171.76-1.758.076-.181.16-.251.36-.16s.191.215.115.385c-.2.457-.393.923-.611,1.434.391.169.754.336,1.129.472.058.021.215-.088.254-.173.176-.351.327-.714.478-1.077.073-.17.145-.272.357-.179.2.088.206.2.127.378C260.6,368.335,260.421,368.774,260.218,369.246Z" transform="translate(-204.578 -336.654)"/><path d="M261.254,361.532c-.145.03-.215-.085-.242-.293q-.236-1.916-.5-3.828c-.042-.3.042-.424.348-.454.6-.06,1.192-.148,1.786-.233.188-.024.3.012.336.224.036.23-.085.272-.266.294-.4.048-.8.109-1.2.154-.257.03-.375.148-.309.415.015.06.024.121.033.182.124.875.124.875,1.014.738.17-.027.339-.036.508-.064.188-.03.336-.033.363.221.027.236-.106.263-.278.285-.363.042-.729.1-1.092.139-.242.027-.348.115-.3.381.061.312.085.629.118.947.024.221.1.321.357.278a11.251,11.251,0,0,1,1.313-.154.424.424,0,0,1,.345.191c.088.221-.091.293-.281.318C262.649,361.353,262,361.438,261.254,361.532Z" transform="translate(-199.063 -356.717)"/><path d="M257.954,361.42c.49-.064.9-.115,1.316-.169.2-.027.33,0,.351.248s-.142.254-.3.275c-.645.082-1.292.151-1.937.242-.245.036-.333-.064-.36-.285q-.245-1.974-.5-3.946c-.024-.184.024-.278.215-.3.657-.085,1.313-.185,1.973-.248.088-.009.194.142.291.221-.079.094-.145.251-.242.272-.4.079-.8.118-1.2.163-.257.03-.381.1-.333.421.151,1.038.136,1.041,1.189.89a1.293,1.293,0,0,1,.4-.033.465.465,0,0,1,.315.185c.082.179-.021.294-.227.315-.354.039-.705.1-1.059.133-.294.024-.421.148-.369.451.045.263.082.533.106.8C257.606,361.339,257.661,361.566,257.954,361.42Z" transform="translate(-207.144 -355.667)"/><path d="M262.183,359.463a8.674,8.674,0,0,0-.5.859.663.663,0,0,0,1.041.784c.318-.251.6-.554.929-.775a1.24,1.24,0,0,1,1.888.645,2.115,2.115,0,0,1-.723,2.073c-.106.063-.327-.061-.584-.118a6.206,6.206,0,0,0,.49-.569,2.18,2.18,0,0,0,.294-.587.733.733,0,0,0-.266-.884.722.722,0,0,0-.92.055c-.227.185-.433.4-.657.587a1.207,1.207,0,0,1-2.018-1.241,3.087,3.087,0,0,1,.39-.82C261.811,359.073,261.92,359.088,262.183,359.463Z" transform="translate(-197.868 -351.731)"/><path d="M259.908,365.646c-.13.3-.218.554-.345.79-.157.3-.118.469.227.608,1,.405,1.982.856,2.975,1.274.239.1.324.2.209.466-.121.281-.275.2-.466.115-1-.436-2.006-.859-3-1.3-.275-.124-.424-.094-.523.2-.073.221-.185.427-.272.642-.07.172-.157.26-.363.172-.191-.085-.221-.185-.139-.372.381-.866.748-1.734,1.135-2.6a.372.372,0,0,1,.288-.17C259.718,365.474,259.811,365.583,259.908,365.646Z" transform="translate(-203.811 -338.974)"/><path d="M256.164,362.037c-.182.033-.16-.221-.185-.4-.139-1.02-.266-2.043-.4-3.062-.03-.257-.048-.515-.1-.769-.045-.239.039-.333.275-.36s.327.063.357.293c.133,1.1.294,2.188.411,3.286.036.357.173.418.5.354a8.393,8.393,0,0,1,1.2-.148.391.391,0,0,1,.306.194c.07.173-.018.3-.23.324C257.634,361.831,256.966,361.928,256.164,362.037Z" transform="translate(-209.257 -355.249)"/></g><g transform="translate(497.031 654.466)"><path class="a" d="M16.461,42.214a15.59,15.59,0,0,1-6.407-1.368,16.389,16.389,0,0,1-5.232-3.731A17.815,17.815,0,0,1,0,24.8V0H32.919V24.8A17.817,17.817,0,0,1,28.1,37.115a16.385,16.385,0,0,1-5.231,3.731A15.586,15.586,0,0,1,16.461,42.214Zm2.9-10.645h0a.58.58,0,0,0,.195.381l.034-.066a.951.951,0,0,1,.164-.252.659.659,0,0,1-.124.013.53.53,0,0,1-.268-.076Zm3.762-.089h0c0,.025,0,.048.006.067a.922.922,0,0,0,.055.276.536.536,0,0,1,.21-.162A.263.263,0,0,1,23.125,31.48Zm1,.018a.72.72,0,0,0,.219.219.974.974,0,0,1,.068-.243l.013-.036a.223.223,0,0,1-.176.085A.347.347,0,0,1,24.126,31.5Zm-5.684-.216h0a.751.751,0,0,0-.025.36v.008a1.259,1.259,0,0,0,.114-.078.513.513,0,0,1,.21-.105c-.179-.024-.252-.069-.3-.185Zm-6.982-.039a.619.619,0,0,0,.177.267c.022-.043.044-.1.066-.146a1.1,1.1,0,0,1,.064-.136l-.012,0a.721.721,0,0,1-.182.032A.285.285,0,0,1,11.461,31.242Zm11.8-.51a1.015,1.015,0,0,1,.36.087.408.408,0,0,0-.405.206.342.342,0,0,0,.036.349.263.263,0,0,0,.2.1.311.311,0,0,0,.227-.116.551.551,0,0,0,.1-.216.457.457,0,0,1,.306-.378.6.6,0,0,0-.045.423.211.211,0,0,0,.19.15.188.188,0,0,0,.152-.085.7.7,0,0,0,.045-.45.607.607,0,0,0,.458-.16.5.5,0,0,0,.09-.4,2.721,2.721,0,0,0-.088-.42,2.848,2.848,0,0,1-.076-.341.72.72,0,0,0,.42-.234.614.614,0,0,1-.4-.293l.064-.02c.094-.027.211-.061.254-.143H25.1a.345.345,0,0,1-.382-.241c-.039-.085-.075-.165-.19-.191l-.119-.019a1,1,0,0,1-.672-.29,1.567,1.567,0,0,1-.285-1.208,1.22,1.22,0,0,0,.4.147,2.657,2.657,0,0,1-.531-.6c.065.006.163.014.262.014a1.421,1.421,0,0,0,.154-.008l0,0,.033,0h-.036a4.824,4.824,0,0,1-.379-.362c-.067-.068-.115-.117-.119-.117a4.012,4.012,0,0,1,.039.5c0,.086,0,.173,0,.256,0,.186,0,.377.019.565a1.2,1.2,0,0,0,.651,1.127c.062.021.123.04.185.06.087.027.176.056.262.088a.451.451,0,0,1,.258.543,1.878,1.878,0,0,0,.1,1.109,1.1,1.1,0,0,1-.306-1.157.269.269,0,0,0-.1-.249,2.1,2.1,0,0,0-.288-.1l-.131-.039a1.284,1.284,0,0,1-.815-1.02,9.343,9.343,0,0,1-.075-1.05v-.009q0-.082-.006-.164a6.962,6.962,0,0,0-.077-.867l-.039-.174a1.927,1.927,0,0,1,.309.464,2.111,2.111,0,0,0,.458.081,1.6,1.6,0,0,0-.636-.723c.217.021.4.036.582.036a1.355,1.355,0,0,0,1.033-.339.867.867,0,0,0,.031-1.106,4,4,0,0,0-1.458-.889c-.149-.064-.29-.125-.428-.19a.415.415,0,0,1-.081.192c.157.083.317.165.471.244.273.14.555.285.829.437.362.206.678.427.558.87a.66.66,0,0,1-.733.471,2.789,2.789,0,0,1-1.111-.288,5.706,5.706,0,0,0-2.551-.527l-.2,0c-.506.02-1.019.066-1.516.11l-.514.045c.052.1.112.191.171.283l.039.061a1.752,1.752,0,0,1-.675-.169.223.223,0,0,0-.05-.02,1.807,1.807,0,0,0,0,.273l0,.049a.889.889,0,0,1-.621-.345,2.937,2.937,0,0,1-1.208,1.379l-.159-.39a2.187,2.187,0,0,1-.4.5,1.545,1.545,0,0,0-.476.733.64.64,0,0,1-.474-.429,1.463,1.463,0,0,0,.126.977,1.886,1.886,0,0,1-.355.043.831.831,0,0,1-.365-.079,1.883,1.883,0,0,1-.9,1.52L12,29.4a1.086,1.086,0,0,1-.907.569,1.428,1.428,0,0,1-.151-.008,2.368,2.368,0,0,0-.323-.028c-.168,0-.273.035-.32.107a.316.316,0,0,0,.02.3l.006.009a.521.521,0,0,1,.367-.14,1.66,1.66,0,0,1,.295.037l.071.013c-.062.024-.123.044-.181.063a.651.651,0,0,0-.356.192.344.344,0,0,0-.039.358.323.323,0,0,0,.3.161.734.734,0,0,0,.307-.078c.056-.38.2-.56.51-.621-.2.3-.274.508-.225.634a.191.191,0,0,0,.144.112.256.256,0,0,0,.056.006c.23,0,.348-.331.412-.51a.531.531,0,0,0,.357.214.184.184,0,0,0,.157-.082.512.512,0,0,0,0-.45c.391-.2.768-.428,1.121-.648a1.077,1.077,0,0,0,.347.067.824.824,0,0,0,.127-.01l-.009,0a2.761,2.761,0,0,1-.353-.434l-.01.008a2.091,2.091,0,0,1-1.049.6c.194-.177.412-.353.644-.54.771-.621,1.646-1.325,1.746-2.263a1.137,1.137,0,0,1,.077.561,5.289,5.289,0,0,0,2.446-.912A3.237,3.237,0,0,1,15.094,27.8h-.036a1.331,1.331,0,0,1-.135.258c-.018.03-.036.058-.051.084a1.376,1.376,0,0,0,.668.11,6.788,6.788,0,0,0,.855-.062,1.222,1.222,0,0,1-.087-.45,2.529,2.529,0,0,0,.567.063h.038l-.046-.038a1.312,1.312,0,0,1-.22-.208l1.787-.92a3.422,3.422,0,0,1,1.226-.428,1.326,1.326,0,0,1,1.2.785c.065.125.128.253.189.377a7.7,7.7,0,0,0,.435.8,2.211,2.211,0,0,0,1.418.96,1.715,1.715,0,0,1,.81.435.863.863,0,0,1,.162.765.337.337,0,0,1-.359.194,2.145,2.145,0,0,1-.253-.021,2.136,2.136,0,0,0-.246-.021.286.286,0,0,0-.333.291c.014.124.1.206.252.243A.325.325,0,0,1,23.265,30.733Zm-3.657.072,0,0-.014.012c-.109.089-.274.224-.268.375a.324.324,0,0,0,.167.239.17.17,0,0,0,.1.027c.161,0,.361-.185.415-.528a.829.829,0,0,0,.367.1.265.265,0,0,0,.272-.158c.039-.113-.008-.3-.256-.5l.006,0a1.337,1.337,0,0,1,.577-.179.833.833,0,0,1,.265.045.719.719,0,0,0-.213-.3l-.015-.015-.107-.1a3.943,3.943,0,0,0-.667.713c-.06.076-.122.154-.184.229a1.9,1.9,0,0,1,1.268-1.409c.117-.051.168-.089.174-.134s-.031-.1-.129-.178c-.375-.314-.528-.474-.24-.965L21.088,28c-.286-.693-.61-1.477-1.254-1.535a2.487,2.487,0,0,1-.435.581,1.36,1.36,0,0,0-.537.96,1.405,1.405,0,0,0,.8.872c.334.175.478.315.387.639a1.88,1.88,0,0,1-.3.566.526.526,0,0,1-.429.267.911.911,0,0,1-.389-.114.66.66,0,0,0-.283-.088.373.373,0,0,0-.248.1.275.275,0,0,0,0,.4.493.493,0,0,1,.3-.159.6.6,0,0,1,.358.186.945.945,0,0,0-.185-.02.33.33,0,0,0-.327.158.271.271,0,0,0,.02.267.345.345,0,0,0,.292.173.4.4,0,0,0,.246-.093.508.508,0,0,1,.5-.362Zm.71.372a.836.836,0,0,0,.082.117.784.784,0,0,1,.1.161.476.476,0,0,0,.1-.188c.008-.025.017-.053.032-.09a.55.55,0,0,1-.148.028A.85.85,0,0,1,20.319,31.177Zm-9.965-.087a.594.594,0,0,0-.027.282l0,0a.549.549,0,0,1,.24-.14A.752.752,0,0,1,10.354,31.09Zm2.216-.159h0c-.038.059-.184.065-.239.068h-.016l.03.041a.909.909,0,0,1,.108.172.4.4,0,0,0,.117-.282ZM25,30.844a.344.344,0,0,1-.219.117l.14.165A.579.579,0,0,0,25,30.844Zm.882-1.939-.095,2.216h3.166V28.9Zm-21.243,0V31.12h3.2L7.736,28.9Zm17.91,1.927a.517.517,0,0,0-.146.26.668.668,0,0,1,.142-.014c.039,0,.078,0,.118.005A.426.426,0,0,1,22.544,30.832Zm-4.407-.549a.764.764,0,0,0-.263.282.847.847,0,0,1,.282.1l.048.024a.775.775,0,0,1-.059-.3C18.142,30.356,18.14,30.32,18.136,30.283Zm-8.217.047a.633.633,0,0,1,.222.048h0a1.607,1.607,0,0,1-.066-.324,1.156,1.156,0,0,0-.23.282A.392.392,0,0,1,9.919,30.331Zm11.052-.569a1.569,1.569,0,0,1,.562.138.629.629,0,0,0-.139-.285.073.073,0,0,0-.045-.028h-.007c-.041.018-.084.033-.126.048a.8.8,0,0,0-.259.127h.015Zm-6.8-.878c-.093.068-.185.139-.3.23a2.543,2.543,0,0,0,.464.039,2.647,2.647,0,0,0,.5-.044,3.912,3.912,0,0,0-.57-.2l-.006,0-.092-.027Zm.668-.714a4.425,4.425,0,0,1-.569.632h0a.517.517,0,0,0,.064-.009c.044-.008.1-.018.179-.028A3.5,3.5,0,0,1,15,28.728c.055,0,.108,0,.158.005a2.226,2.226,0,0,0-.165-.292A2.367,2.367,0,0,1,14.839,28.17Zm11.727-1.34h0c.082.634.133,1.227.156,1.813H28.5l-.054-1.813ZM16.824,15.918h0A16.237,16.237,0,0,1,21,18.237a13.025,13.025,0,0,1,3.2,3.547,14.535,14.535,0,0,1,1.855,6.859h.417a18.158,18.158,0,0,0-.162-1.849,13.651,13.651,0,0,0-5.141-9.074,16.4,16.4,0,0,0-4.395-2.284,14.1,14.1,0,0,0-7.195,5.192l-.18.27a16,16,0,0,0-2.293,7.737h.426A15.09,15.09,0,0,1,9.98,20.78a13.61,13.61,0,0,1,4.242-3.8,11.894,11.894,0,0,1,2.6-1.064ZM5.139,26.83l-.051,1.8H6.856V28.56a14.466,14.466,0,0,1,.189-1.729Zm7.326.066h0c.389.29.359.514.3.96l0,.016,0,.017a1.847,1.847,0,0,1,.01.328,2.541,2.541,0,0,0,.534-1.544l.051.036a.947.947,0,0,0,.512.228h.013a1.594,1.594,0,0,1,.159-1.247l.022.036a3.464,3.464,0,0,0,.364.512,1.392,1.392,0,0,1,.43-.565c.041-.038.081-.075.122-.114a1.5,1.5,0,0,0,.336-.915c-.078.13-.165.254-.25.374a3.767,3.767,0,0,0-.386.633l-.012-.057c-.11-.5-.19-.863.351-1.163L15,24.477a1.279,1.279,0,0,0-.163.478,3.515,3.515,0,0,1,.491-.38l.012-.138c.133.324.255.623.387.941a2.25,2.25,0,0,0,.611-.656,4.1,4.1,0,0,0,.417-.968l.045.089a1.444,1.444,0,0,0,.389.546,3.283,3.283,0,0,1,.132-.5l.008.01a1.141,1.141,0,0,0,.358.349,1.928,1.928,0,0,1-.144-.722l-.174-.417a1.99,1.99,0,0,1-.548.594,1.148,1.148,0,0,1,.032-1.046c0,.024,0,.049,0,.074a1.153,1.153,0,0,0,.077.562,2.59,2.59,0,0,0,.515-1.055l.016-.05c-.046-.086-.087-.169-.126-.252a.924.924,0,0,1-.49.57l-.022.014a3.362,3.362,0,0,0,.362-1.157,1.913,1.913,0,0,1,.336.482c.193.344.392.7.884.756a2.148,2.148,0,0,1-.45-.99,3.523,3.523,0,0,0-.135-.452c-.471-.139-.577-.416-.606-.878.1.17.449.657.769.657a.306.306,0,0,0,.194-.07.936.936,0,0,1-.459-.453l-.011-.021a1.692,1.692,0,0,0-.43-.605l0,0a.718.718,0,0,1-.287.346l-.025.019A1.836,1.836,0,0,0,17,19.069a1.306,1.306,0,0,0-.914.506v-.007a.683.683,0,0,1,.024-.334l-.093-.024a2.1,2.1,0,0,0-.538-.095,1.036,1.036,0,0,0-.29.041c-.071.031-.14.069-.207.105s-.111.06-.167.087a1.969,1.969,0,0,0,.727.24l.062.012a.556.556,0,0,1-.017.5.291.291,0,0,1-.253.124.747.747,0,0,1-.3-.077c.093-.023.556-.151.525-.5a2.968,2.968,0,0,0-.744.657.8.8,0,0,1,.318-.6.525.525,0,0,1-.378-.333.959.959,0,0,1-.239.056h0a1.558,1.558,0,0,0-.591.117,1.5,1.5,0,0,0-.5.348l.018.06.022,0a.286.286,0,0,0,.139-.06l.03-.019a.442.442,0,0,1,.242-.079.476.476,0,0,1,.152.027c-.037.024-.078.047-.12.07a.645.645,0,0,0-.311.269c-.063.144.012.311.222.5a2.542,2.542,0,0,0,.361-.056c.085-.017.172-.035.26-.046a.362.362,0,0,1,.378.248.337.337,0,0,1-.036.283.653.653,0,0,1-.468.179l-.131,0a2.859,2.859,0,0,1-.441-.032l-.012.024a.4.4,0,0,0,0,.361.375.375,0,0,0,.321.115,1.657,1.657,0,0,0,.285-.029c.051-.009.1-.016.156-.023a1.1,1.1,0,0,0,.515-.154.919.919,0,0,0,.35-.573c.017-.054.034-.109.055-.168.035.746-.227,1.079-.9,1.148a1.433,1.433,0,0,1-.98.642,2.434,2.434,0,0,0,.639.238c.073.02.142.038.21.059l-.085.006a3.144,3.144,0,0,0-.866.143,2.346,2.346,0,0,0-.652.41l-.035.028a1.059,1.059,0,0,1-.318.186.493.493,0,0,0,.212.045,1.983,1.983,0,0,0,.982-.471l.134-.1a1.077,1.077,0,0,1-.21.725l.012.006h0a1.064,1.064,0,0,0,.758-.569c-.079.58-.3.838-.7.838A1.771,1.771,0,0,1,13,23.991l.083-.057a1.155,1.155,0,0,0,.337-.294,3.483,3.483,0,0,1-.4.195c-.084.037-.171.075-.255.117a1.771,1.771,0,0,0-.581.872,1.8,1.8,0,0,1-.554.774.476.476,0,0,0,.275.074,1.685,1.685,0,0,0,.31-.04l.086-.016a1.706,1.706,0,0,0-.258.594,3.8,3.8,0,0,0,0,.445c0,.116.01.236.006.355l.225-.216a2.583,2.583,0,0,1,.075,1.19,1.053,1.053,0,0,0,.112-1.086Zm-3.133.875a.452.452,0,0,0,.033.312.209.209,0,0,1,.1-.107.12.12,0,0,0,.055-.046l-.041-.015c-.107-.039-.116-.042-.15-.144h0Zm.725-.183h0a2.3,2.3,0,0,0,.376.456s0,0,0-.006a5.6,5.6,0,0,1-.084-.71.563.563,0,0,1-.368-.267,4.436,4.436,0,0,0,1.05.153,1.983,1.983,0,0,0,.764-.138,3.359,3.359,0,0,0,0-.459,2.807,2.807,0,0,1,.01-.552,4.97,4.97,0,0,1-1.972.507.366.366,0,0,1-.249-.126,1.516,1.516,0,0,1-.147-.463.571.571,0,0,0-.162-.319.112.112,0,0,0-.041-.006c-.091,0-.239.056-.256.108a.033.033,0,0,0,.015.039.863.863,0,0,1,.255.561l.01.051a1.7,1.7,0,0,0-.384-.336.374.374,0,0,0-.131-.028.163.163,0,0,0-.14.069.6.6,0,0,0-.01.466.811.811,0,0,1,.213-.029,1.4,1.4,0,0,1,.371.065c-.32.054-.533.3-.524.482.005.107.087.173.224.183H8.9a1.243,1.243,0,0,0,.446-.156L9.4,27.1c0,.3.024.446.1.521a.221.221,0,0,0,.166.06,1.2,1.2,0,0,0,.389-.1Zm.383-.234a1.04,1.04,0,0,0,.549.6l-.012-.06a4.445,4.445,0,0,1-.084-.471l-.453-.066Zm1.7-.093-.441.42h.006a2.963,2.963,0,0,0,.435.05A2.232,2.232,0,0,0,12.144,27.262Zm-1.157.159h0l.086.036a3.764,3.764,0,0,0,.559.206l.028-.083v0c.023-.067.044-.131.063-.2l.006-.012a3.68,3.68,0,0,1-.671.054Zm-2.567-.282,0,0a.488.488,0,0,0-.117.308,1.058,1.058,0,0,1,.279-.075.39.39,0,0,1-.159-.237ZM26.67,24.856V26.58h1.767l-.05-1.725Zm-21.475,0h0L5.144,26.58H6.914V24.856H5.195Zm3.181,1.216a.46.46,0,0,0-.27.129c.058,0,.195.108.222.129v-.011a.447.447,0,0,1,.048-.247ZM7.159,24.857h0l0,1.277c.088-.47.182-.887.285-1.277H7.159Zm19.014,0c.1.393.181.753.249,1.1v-1.1Zm-17.36.509a.671.671,0,0,1,.057.24.3.3,0,0,1,.177-.14C9.017,25.408,8.833,25.369,8.814,25.367ZM25.5,22.882a14.8,14.8,0,0,1,.606,1.724H28.38l-.047-1.724H25.5Zm-20.25,0L5.2,24.606H7.512A16.157,16.157,0,0,1,8.1,22.882H5.249Zm12.363-.447-.007.07c-.039.408-.092.966.363,1.1a2.182,2.182,0,0,1-.18-.974,1.071,1.071,0,0,1-.089-.1A1.006,1.006,0,0,0,17.612,22.435Zm4.272-.842a.343.343,0,0,0-.241.285.553.553,0,0,0,.319.476l.453.165-.054,0a3.131,3.131,0,0,0-.4.046.525.525,0,0,0-.382.3.317.317,0,0,0,.061.316c.029-.27.241-.291.466-.314.174-.017.353-.035.439-.178s-.136-.318-.273-.415l-.065-.047A.62.62,0,0,1,21.884,21.593Zm-.4.714a.781.781,0,0,0-.607.314h.009a2.624,2.624,0,0,1,.364.034l.152.02a1.131,1.131,0,0,1,.255-.258.575.575,0,0,1-.123-.107Zm2.984-1.4a15.262,15.262,0,0,1,.923,1.727h1.031V20.906Zm-17.309,0h0v1.727H8.2a14.478,14.478,0,0,1,.9-1.727H7.159Zm-1.856,0-.044,1.727H6.91l0-.859q0-.433,0-.868Zm21.367,0v1.725h1.656l-.05-1.725Zm-7.212-1.4a.748.748,0,0,0-.7.469A.95.95,0,0,0,18.937,21a4.233,4.233,0,0,0,2.12,1.2c.09-.037.172-.07.255-.1-.075-.025-.153-.058-.228-.091a2.394,2.394,0,0,0-.272-.1,5.935,5.935,0,0,1-1.2-.609,1.551,1.551,0,0,1-.617-.659.693.693,0,0,1,.23-.882.788.788,0,0,1,.287-.063.906.906,0,0,1,.265.048.864.864,0,0,1,.1-.138A1.114,1.114,0,0,0,19.458,19.512Zm-5.635,1.3h0a.831.831,0,0,0,.1.222l0-.008a.443.443,0,0,1,.1-.22.418.418,0,0,1-.12.022.267.267,0,0,1-.09-.016Zm6.726-.556.086.085a2.219,2.219,0,0,0,1,.678L21.62,21a3.894,3.894,0,0,0-.71-.679l-.138-.112.108.04a1.84,1.84,0,0,0,.619.153.607.607,0,0,0,.376-.118,2.5,2.5,0,0,1-.812-.384l-.081-.063a.812.812,0,0,0-.495-.236.648.648,0,0,0-.2.036.536.536,0,0,0-.308.252,1,1,0,0,0-.016.3,1,1,0,0,1-.014.288c.179-.036.3-.293.382-.462l0,0,.033-.068,0,.018a1.546,1.546,0,0,0,.379,1.061,4.156,4.156,0,0,0-.194-.762Zm4.11-1.327-1.721.009A14.025,14.025,0,0,1,24.3,20.661h.356Zm-15.738,0v1.724h.342a12.93,12.93,0,0,1,1.358-1.724Zm15.986,0V20.66H28.27l-.049-1.726Zm-19.546,0-.049,1.724H8.677V18.936Zm17.425-1.974-2.216.03a14.332,14.332,0,0,1,2.1,1.694h.111Zm-11.991,0h0v1.724h.066A13.216,13.216,0,0,1,13,16.962H10.8Zm-3.636,0h0v1.723h3.389V16.962H7.159Zm-1.742,0-.047,1.723H6.914V16.962Zm21.253,0v1.722h1.543l-.046-1.722Zm-3.634,0v1.722h3.386V16.962Zm1.871-1.974v1.725h3.251l-.049-1.725Zm-3.964,0v1.725H24.66V14.988Zm-8.3,0H8.922v1.724h3.718Zm-7.167,0h0l-.049,1.724H8.677V14.989h-3.2Zm11.3.186h0a17.536,17.536,0,0,1,3.364,1.538h.554V14.989H12.888v1.724h.506a17.517,17.517,0,0,1,3.381-1.538Zm9.894-1.9v1.462H28.1l-.043-1.462Zm-3.634,0v1.462h3.386V13.279Zm-3.856,0v1.462h3.607V13.279Zm-4.529,0v1.462h4.281V13.279Zm-3.855,0h0v1.462H14.4V13.279H10.8Zm-3.636,0h0v1.462h3.389V13.279H7.159Zm-1.639,0-.036,1.462h1.43V13.279Zm-.74-.732.145.479h23.73l.142-.478H4.78Zm16-1.716h0V12.3h.965V10.831h-.965Zm-3.9-.248V12.3H19.3V10.582Zm-.248,0H14.282V12.3h2.353Zm-5.028.248V12.3h.964V10.831h-.964Zm-6-.232v1.685H7.749V11.4H7.391v-.8ZM8,11.4v.882H10.14V10.6H8.353v.8Zm17.783,0v.881h2.143V10.6H26.138v.8Zm-2.389-.8v1.684h2.142V11.4h-.359v-.8Zm1.783-1.347h.964v1.1h1.786V8.667H23.391v1.684h1.783v-1.1Zm-17.783,0h.962v1.1H10.14V8.667H5.607v1.684H7.391v-1.1Zm11.417-.842v1.924H19.3V8.411Zm-3.788,0v1.924h3.541V8.411H17.274V9.453H16.31V8.411Zm-.739,0v1.924h.492V8.411Zm8.433-2.188V8.407l5.887,0V6.223H27.554V7.511H26.2V6.223H25.12V7.511h-1.36V6.223Zm-17.784,0V8.407h5.885V6.223H9.772V7.511H8.413V6.223H7.335V7.511H5.974V6.223H4.93Zm11.985.254V7.3h.358v.855H19.3V6.477Zm-2.633,0V8.159H16.31V7.3h.358V6.477Zm-.588-2.443V6.215h6.2V4.034H18.783V5.32H17.365V4.034H16.219V5.32H14.8V4.034Zm31.422,31.8h-1V26.59h.675l.261.857a1.968,1.968,0,0,1,1.561-.992c1.53,0,2.306,1.258,2.306,3.738,0,2.457-.776,3.7-2.306,3.7a1.8,1.8,0,0,1-1.5-.885v2.826Zm1.367-8.484c-1.226,0-1.367,1.62-1.367,2.839,0,1.3.155,2.791,1.367,2.791,1.271,0,1.418-1.6,1.418-2.8S47.754,27.354,46.483,27.354Zm9.928,8.017h-.783V32.942l.405-.078c.772-.706,1.051-2.348,1.067-6.274h3.732v6.274h.654V35.37H60.7l-.129-1.61H56.54l-.129,1.61Zm1.64-7.881c-.1,2.86-.255,4.239-.95,5.375h2.731V27.489ZM64.215,33.9c-1.123,0-1.82-.806-1.82-2.1,0-1.614.928-2.467,2.683-2.467.249,0,.507,0,.753.015v-.564c0-1.2-.4-1.433-1.094-1.433a1.153,1.153,0,0,0-1.118.935l-.908-.267a1.972,1.972,0,0,1,2.042-1.568c1.429,0,2.1.745,2.1,2.344v3.432c0,.486.128.684.441.684a.838.838,0,0,0,.134-.016l.064-.011v.884a1.971,1.971,0,0,1-.381.042c-.547,0-.9-.314-1.142-1.02A1.718,1.718,0,0,1,64.215,33.9Zm1.628-3.765c-1.358.011-2.431.021-2.431,1.58,0,.841.356,1.286,1.028,1.286a1.182,1.182,0,0,0,1.11-.643,3.148,3.148,0,0,0,.292-1.489ZM51.78,33.9c-1.124,0-1.822-.806-1.822-2.1,0-1.614.927-2.467,2.68-2.467.249,0,.506,0,.755.015v-.564c0-1.2-.4-1.433-1.094-1.433a1.16,1.16,0,0,0-1.118.935l-.912-.267a1.972,1.972,0,0,1,2.042-1.568c1.429,0,2.1.745,2.1,2.344v3.432c0,.479.133.684.444.684a.818.818,0,0,0,.128-.016l.066-.011v.884a1.949,1.949,0,0,1-.378.039c-.555,0-.9-.3-1.145-1.016A1.714,1.714,0,0,1,51.78,33.9ZM53.4,30.13c-1.36.011-2.434.021-2.434,1.58C50.971,32.3,51.149,33,52,33a1.185,1.185,0,0,0,1.113-.643,3.143,3.143,0,0,0,.293-1.489ZM21.143,29.123h0a.75.75,0,0,1-.658-.58c-.03-.249.138-.472.46-.612-.368.6-.215.786.2,1.192Zm-5.312-1.958h0a1.421,1.421,0,0,0,.371-.949.451.451,0,0,1,.159.523.675.675,0,0,1-.528.428Zm-2.71-.024h0c-.469-.164-.564-.369-.442-.953l.007.018a2.459,2.459,0,0,0,.283.552,1.561,1.561,0,0,1,.84-1.2,2.537,2.537,0,0,0-.687,1.582ZM21.5,27.1h0a1.143,1.143,0,0,1-.478-.614,3.286,3.286,0,0,0-.6-.849c-.06-.067-.12-.136-.181-.207a1.329,1.329,0,0,1,.929.729,6.062,6.062,0,0,1,.335.939Zm-5.169-.046h0a1.35,1.35,0,0,0,.388-1.08.6.6,0,0,1,.253.523C16.932,26.7,16.716,26.891,16.329,27.053Zm.591-.194v0a1.184,1.184,0,0,0,.322-.931c.2.186.284.371.238.535a.682.682,0,0,1-.56.4Zm-4.365-.723h0a.771.771,0,0,1-.083,0,1.381,1.381,0,0,1,.135-.7.974.974,0,0,1-.266.046.754.754,0,0,1-.087-.006l-.055,0a2.16,2.16,0,0,1,.168-.485c.338-.516.45-.655,1.034-.747a2.566,2.566,0,0,0-.852.959,2.893,2.893,0,0,0,.406-.2c.057-.031.116-.063.173-.092l-.076.148,0,0a3.349,3.349,0,0,0-.327.785,1.607,1.607,0,0,0,.673-.551c.056-.065.108-.126.16-.181C13.409,25.607,13.068,26.136,12.554,26.136ZM15.8,24.993h0a2.715,2.715,0,0,0,0-.909,1.523,1.523,0,0,1-.774.411l.1-.416a5.607,5.607,0,0,1-1.085.809,1.746,1.746,0,0,1,1.016-1.655c-.066.094-.142.191-.223.293a2.358,2.358,0,0,0-.529.912,6.568,6.568,0,0,0,1.307-1.3l-.237.965a1.105,1.105,0,0,0,.386-.35,1.677,1.677,0,0,1,.192-.216c.015.077.029.147.043.214A1.249,1.249,0,0,1,15.8,24.993Zm.331-1.352h0a1.337,1.337,0,0,1,.114-1.5l-.011.069a2.22,2.22,0,0,0-.028.857,2.942,2.942,0,0,1,.848-1.355c-.127.255-.246.519-.361.774-.174.385-.353.781-.561,1.155Zm-1.5-.456h0a1.707,1.707,0,0,1,.725-1.207L15.3,22.1l-.016.033a2.348,2.348,0,0,0-.19.495A2.955,2.955,0,0,0,16,21.443a2.024,2.024,0,0,1-1.372,1.741Zm58.447-1.121c-1.123,0-1.82-.808-1.82-2.108,0-1.612.927-2.464,2.68-2.464.249,0,.506,0,.755.012v-.561c0-1.2-.4-1.435-1.094-1.435a1.148,1.148,0,0,0-1.119.938l-.911-.267a1.972,1.972,0,0,1,2.042-1.568c1.429,0,2.1.745,2.1,2.344v3.429c0,.339.053.686.444.686a.828.828,0,0,0,.129-.016l.066-.011v.884a1.959,1.959,0,0,1-.378.039c-.555,0-.9-.3-1.146-1.02A1.717,1.717,0,0,1,73.076,22.063ZM74.7,18.3h0c-1.36.011-2.434.021-2.434,1.583,0,.587.178,1.286,1.028,1.286a1.185,1.185,0,0,0,1.113-.643,3.144,3.144,0,0,0,.293-1.488V18.3ZM56.984,22.063c-1.567,0-2.329-1.211-2.329-3.7a5.949,5.949,0,0,1,.442-2.576,1.955,1.955,0,0,1,1.887-1.159,2.218,2.218,0,0,1,2.185,2.182l-.977.228c-.153-1-.559-1.514-1.208-1.514-1.16,0-1.316,1.409-1.316,2.788,0,1.327.15,2.851,1.316,2.851.654,0,1.037-.476,1.208-1.5l.406.1h0a5.791,5.791,0,0,1,.567.145A2.224,2.224,0,0,1,56.984,22.063Zm13.1-.081a1.39,1.39,0,0,1-1.316-1.139l-.546-1.595c-.183-.418-.424-.63-.714-.63h-.77v3.31h-1v-7.17h1v2.974h.522a.857.857,0,0,0,.767-.587l.612-1.5a1.428,1.428,0,0,1,1.34-.912,1.851,1.851,0,0,1,.378.027v.9a1.822,1.822,0,0,0-.249-.012c-.344,0-.56.182-.7.59l-.417,1.031a1.308,1.308,0,0,1-.806.83,1.455,1.455,0,0,1,.974.885l.432,1.406a.867.867,0,0,0,.716.671.4.4,0,0,0,.168-.027v.9A1.456,1.456,0,0,1,70.084,21.982Zm-53.743-.036v0a1.842,1.842,0,0,0,.263-1.246.884.884,0,0,1,.206.8.659.659,0,0,1-.468.451Zm28.775-.018h-1v-7.17h1l2.12,4.275,2.123-4.275h1v7.17h-1v-2.44c0-.63.068-2.429.144-2.947l-1.927,3.831H46.9l-1.927-3.831c.067.539.144,2.345.144,2.947v2.44Zm8.055,0h-1V14.758h1v7.17Zm9.455,0h-2.2v-7.17h1V17.6H62.6a2.058,2.058,0,0,1,1.495.621,2.3,2.3,0,0,1,.615,1.615A2.067,2.067,0,0,1,62.626,21.928Zm-1.2-3.432v2.533H62.56c.762,0,1.148-.429,1.148-1.274A1.125,1.125,0,0,0,62.575,18.5Zm-46.8,2.969a.555.555,0,0,1-.295-.085c.231-.026.392-.064.476-.179a.619.619,0,0,0,.042-.481.547.547,0,0,1,.137.553A.391.391,0,0,1,14.627,21.465Zm.835-.164h0a1.161,1.161,0,0,0,.4-1.236.825.825,0,0,1,.234.735C16.016,21.1,15.794,21.216,15.462,21.3Zm1.3-1.075h0c0-.042,0-.081.007-.119v0a1.589,1.589,0,0,0-.04-.6h-.013a1.4,1.4,0,0,0-.546.365.982.982,0,0,1,.708-.713A1.018,1.018,0,0,1,16.762,20.226Zm-1.929-.246c-.061,0-.108-.09-.108-.2s.048-.2.108-.2.108.1.108.2S14.892,19.98,14.833,19.98Zm37.828-6.121a.608.608,0,0,1-.6-.63.6.6,0,0,1,.6-.614.607.607,0,0,1,.612.614A.622.622,0,0,1,52.661,13.859ZM89.4,10.231c-1.124,0-1.823-.807-1.823-2.107,0-1.612.927-2.464,2.68-2.464.249,0,.506,0,.755.012V5.108c0-1.2-.4-1.433-1.094-1.433a1.161,1.161,0,0,0-1.118.938l-.911-.267a1.972,1.972,0,0,1,2.044-1.568c1.428,0,2.093.745,2.093,2.344V8.553c0,.481.133.686.444.686a.836.836,0,0,0,.153-.022l.042-.008V10.1a1.983,1.983,0,0,1-.378.039c-.555,0-.9-.3-1.146-1.02A1.714,1.714,0,0,1,89.4,10.231Zm1.624-3.768h0c-1.36.014-2.434.026-2.434,1.583,0,.587.178,1.286,1.028,1.286.92,0,1.406-.737,1.406-2.131V6.463ZM73.283,10.228c-1.569,0-2.332-1.21-2.332-3.7a5.949,5.949,0,0,1,.442-2.575,1.953,1.953,0,0,1,1.885-1.16h0a1.971,1.971,0,0,1,1.526.644,2.877,2.877,0,0,1,.66,1.538l-.975.228c-.159-1.021-.555-1.516-1.211-1.516-1.16,0-1.316,1.411-1.316,2.791,0,1.329.15,2.854,1.316,2.854.649,0,1.033-.477,1.211-1.5l.465.112c.314.075.506.12.509.129A2.224,2.224,0,0,1,73.283,10.228Zm13.124-.078a1.388,1.388,0,0,1-1.313-1.139l-.549-1.6c-.185-.418-.425-.629-.714-.629h-.767V10.1h-1V2.926h1V5.9h.519a.86.86,0,0,0,.767-.587l.611-1.5A1.434,1.434,0,0,1,86.3,2.9a1.832,1.832,0,0,1,.375.027v.9a1.787,1.787,0,0,0-.246-.012c-.347,0-.564.182-.7.591l-.42,1.031a1.31,1.31,0,0,1-.8.83,1.464,1.464,0,0,1,.975.885l.429,1.406a.867.867,0,0,0,.716.671A.393.393,0,0,0,86.8,9.2v.9A1.473,1.473,0,0,1,86.407,10.15Zm-42.646-.03a1.718,1.718,0,0,1-.363-.027V9.116a.33.33,0,0,0,.117.014c1.363,0,1.511-2.524,1.523-8.282h4.647V10.1H48.63V1.826H46.105A24.433,24.433,0,0,1,45.5,8.411C45.132,9.577,44.58,10.12,43.761,10.12ZM78.856,10.1h-2.2V2.922h1V5.767h1.169a2.056,2.056,0,0,1,1.494.62A2.3,2.3,0,0,1,80.936,8,2.066,2.066,0,0,1,78.856,10.1Zm-1.2-3.433V9.2h1.13c.76,0,1.145-.429,1.145-1.274A1.124,1.124,0,0,0,78.8,6.664ZM67.731,10.1h-2.12V2.922h2.108a1.861,1.861,0,0,1,2.017,1.706A1.7,1.7,0,0,1,68.6,6.289a1.757,1.757,0,0,1,1.328,1.849A1.8,1.8,0,0,1,69.2,9.584,2.467,2.467,0,0,1,67.731,10.1ZM66.613,6.784V9.2h1.211c.7,0,1.068-.417,1.068-1.2a1.085,1.085,0,0,0-1.043-1.208Zm0-2.974V5.9h1.079a1.009,1.009,0,0,0,1.016-1.046c0-.862-.531-1.043-.977-1.043ZM63.7,10.1h-1V2.922h1V10.1Zm-4.62,0H56.957V2.922h2.107a1.861,1.861,0,0,1,2.018,1.706,1.685,1.685,0,0,1-1.133,1.661,1.757,1.757,0,0,1,1.328,1.849,1.8,1.8,0,0,1-.728,1.446A2.468,2.468,0,0,1,59.076,10.1ZM57.958,6.784V9.2h1.211c.7,0,1.064-.417,1.064-1.2a1.084,1.084,0,0,0-1.04-1.208Zm0-2.974V5.9h1.079a1.009,1.009,0,0,0,1.016-1.046c0-.682-.338-1.043-.978-1.043ZM53.768,10.1h-2.2V2.922h1V5.767h1.172a2.055,2.055,0,0,1,1.492.621A2.3,2.3,0,0,1,55.851,8,2.068,2.068,0,0,1,53.768,10.1Zm-1.2-3.433V9.2H53.7c.76,0,1.145-.429,1.145-1.274a1.125,1.125,0,0,0-1.133-1.259ZM63.189,2.027a.609.609,0,0,1-.6-.63.606.606,0,1,1,1.211,0A.622.622,0,0,1,63.189,2.027Z" transform="translate(0 0)"/></g></g></svg>