<svg xmlns="http://www.w3.org/2000/svg" width="470.162" height="47.2" viewBox="0 0 470.162 47.2"><defs><style>.a{stroke:rgba(0,0,0,0);stroke-miterlimit:10;}</style></defs><g transform="translate(-111.167 -645.423)"><g transform="translate(111.168 648.627)"><path d="M225.247,390.916l-.109,2.315h-3.563l-.124-2.291a10.185,10.185,0,0,0-1.057-.227,6.923,6.923,0,0,1-5.734-4.45,21.947,21.947,0,0,1-1.714-8.746c-.079-4.04-.274-8.11.9-12.03a15.925,15.925,0,0,1,2.324-4.694c1.34-1.841,3.475-2.324,5.766-2.326l.121-1.864h3.637l.121,1.808.886.112c3.437.439,5.4,2.571,6.414,5.7,1.508,4.662,1.537,9.471,1.2,14.283a30.43,30.43,0,0,1-.916,5.619C232.159,388.743,230.077,390.434,225.247,390.916Zm-.027-3.007a3.612,3.612,0,0,0,3.41-1.9,8.5,8.5,0,0,0,1.2-2.859,44.794,44.794,0,0,0,.032-16.886,10.382,10.382,0,0,0-1.381-3.216,2.879,2.879,0,0,0-2.783-1.537Zm-3.472-26.819a10.581,10.581,0,0,0-2.615,1.617,7.85,7.85,0,0,0-1.534,2.968c-1.316,4.662-1,9.441-.645,14.177a22.022,22.022,0,0,0,1.555,5.846,3.355,3.355,0,0,0,3.239,2.167Z" transform="translate(-179.955 -356.367)"/><path d="M211.577,392.919h-3.9c0-2.005-.044-4.025.006-6.043.159-6.261.356-12.521.533-18.782.1-3.445.212-6.894.256-10.342.012-.966.368-1.29,1.3-1.219.8.062,1.614.012,2.4.012v12.318c3.6.18,6.161-4.238,6.968-12.206h3.428c.618,7.056-3.657,13.293-10.743,15.511v6.967c1.3.071,2.65.038,3.97.241a5.188,5.188,0,0,1,3.97,2.812,21.23,21.23,0,0,1,2.25,10.7H218.6c-.218-1.973-.318-3.92-.686-5.813a9.813,9.813,0,0,0-1.363-3.36,4.288,4.288,0,0,0-2.088-1.608c-2.082-.713-2.886-.059-2.886,2.094C211.574,387.058,211.577,389.912,211.577,392.919Z" transform="translate(-190.114 -356.523)"/><path d="M201.755,356.607h3.528c0,2.55-.127,5.074.029,7.58.236,3.746.518,7.5,1.072,11.208.336,2.259,1.62,3.3,3.074,3.266,1.472-.038,2.674-1.09,2.971-3.369.453-3.5.627-7.035.783-10.563.118-2.665.024-5.342.024-8.119h3.487c0,4.6.112,9.129-.047,13.643a26.8,26.8,0,0,1-1.075,6.541c-.992,3.375-3.139,4.671-6.814,4.561a5.678,5.678,0,0,1-5.872-4.88,66.519,66.519,0,0,1-1.119-9.706C201.611,363.433,201.755,360.079,201.755,356.607Z" transform="translate(-201.702 -356.359)"/><path d="M206.972,365.483c4.541.059,7.436,3.257,6.594,7.286a4.455,4.455,0,0,1-3.66,3.549,6.3,6.3,0,0,1-7.545-6.405A4.346,4.346,0,0,1,206.972,365.483Zm3.475,5.689c.029-1.555-.933-2.4-2.777-2.444a1.784,1.784,0,0,0-2.076,1.935,2.283,2.283,0,0,0,2.491,2.447A2.164,2.164,0,0,0,210.447,371.173Z" transform="translate(-200.425 -339.097)"/></g><g transform="translate(330.767 645.423)"><g transform="translate(0 13.792)"><path d="M277.576,365.214v-5.23h.792v5.23Z" transform="translate(-275.138 -359.942)"/><path d="M281.211,365.214V362.93H279.1v2.284H278.3v-5.23h.792v2.24h2.115v-2.24h.8v5.23Z" transform="translate(-273.706 -359.942)"/><path d="M281.828,365.286a1.9,1.9,0,0,1-1.373-.558c-.516-.516-.507-1.095-.507-2.1s-.009-1.587.507-2.1a1.886,1.886,0,0,1,1.373-.558,1.8,1.8,0,0,1,1.863,1.608h-.807a1.081,1.081,0,0,0-1.828-.581c-.258.279-.317.581-.317,1.632s.059,1.35.317,1.629a1.045,1.045,0,0,0,.771.317,1.058,1.058,0,0,0,1.065-.9h.8A1.8,1.8,0,0,1,281.828,365.286Z" transform="translate(-270.475 -359.97)"/><path d="M283.616,360.7v4.518h-.792V360.7h-1.439v-.712h3.673v.712Z" transform="translate(-267.647 -359.942)"/><path d="M285.988,365.214v-3.8l-2.344,3.8h-.718v-5.23h.792v3.791l2.335-3.791h.73v5.23Z" transform="translate(-264.614 -359.942)"/><path d="M286.762,360.7v4.518h-.792V360.7h-1.439v-.712h3.67v.712Z" transform="translate(-261.46 -359.942)"/><path d="M288.035,364.363a1.2,1.2,0,0,1-1.1.851h-.543V364.5h.374a.6.6,0,0,0,.611-.418l.184-.427-1.7-3.673h.837l1.249,2.8,1.124-2.8h.837Z" transform="translate(-258.846 -359.942)"/><path d="M289.544,360.7v4.518h-.792V360.7h-1.439v-.712h3.67v.712Z" transform="translate(-255.989 -359.942)"/><path d="M279.192,368.256a1.9,1.9,0,0,1-1.374-.558c-.513-.516-.507-1.095-.507-2.1s-.006-1.587.507-2.1a1.887,1.887,0,0,1,1.374-.558,1.8,1.8,0,0,1,1.866,1.608h-.81a1.081,1.081,0,0,0-1.827-.581c-.258.279-.317.581-.317,1.632s.059,1.35.317,1.629a1.045,1.045,0,0,0,.771.317,1.058,1.058,0,0,0,1.065-.9h.8A1.808,1.808,0,0,1,279.192,368.256Z" transform="translate(-275.659 -354.129)"/><path d="M280.983,363.666v4.518h-.8v-4.518h-1.439v-.712h3.673v.712Z" transform="translate(-272.831 -354.102)"/><path d="M282.273,366.128h-1.19v2.056h-.792v-5.23h1.982a1.589,1.589,0,1,1,0,3.174Zm-.05-2.462h-1.139v1.75h1.139a.877.877,0,1,0,0-1.75Z" transform="translate(-269.798 -354.102)"/><path d="M285.148,368.184l-.368-1.05h-2.062l-.368,1.05h-.837l1.916-5.23h.638l1.91,5.23Zm-1.38-4.046-.825,2.32h1.623Z" transform="translate(-267.393 -354.102)"/><path d="M285.2,363.666v4.518h-.792v-4.518h-1.439v-.712h3.67v.712Z" transform="translate(-264.536 -354.102)"/><path d="M284.508,368.184v-5.23h3.349v.712H285.3v1.528h2.172v.706H285.3v1.572h2.554v.712Z" transform="translate(-261.505 -354.102)"/><path d="M286.808,363.666v4.518h-.8v-5.23h3.219v.712Z" transform="translate(-258.546 -354.102)"/><path d="M287.4,368.184v-5.23h.8v5.23Z" transform="translate(-255.82 -354.102)"/><path d="M287.872,363.286v-.8h.676v.8Zm.756,5.809v-5.23h.792v5.23Zm.831-5.809v-.8h.673v.8Z" transform="translate(-254.89 -355.012)"/><path d="M276.754,371.154v-5.23h.8v2.483l1.952-2.483h.976l-2.011,2.468,2.2,2.762h-1.006l-2.106-2.732v2.732Z" transform="translate(-276.754 -348.261)"/><path d="M280.253,370.3a1.192,1.192,0,0,1-1.1.852h-.546v-.712h.377a.6.6,0,0,0,.608-.418l.184-.427-1.7-3.672h.837l1.249,2.8,1.124-2.8h.837Z" transform="translate(-274.15 -348.261)"/><path d="M282.857,371.154v-4.518h-1.5v1.652c0,2.2-.531,2.866-1.581,2.866h-.329v-.712h.139c.581,0,1-.368,1-2.263v-2.255h3.067v5.23Z" transform="translate(-271.468 -348.261)"/><path d="M283.328,371.154h-2.005v-5.23h.792v2.056h1.213a1.589,1.589,0,1,1,0,3.174Zm-.065-2.459h-1.148v1.747h1.148a.875.875,0,1,0,0-1.747Z" transform="translate(-267.769 -348.261)"/><path d="M284.834,366.636v4.518h-.795v-4.518H282.6v-.712h3.673v.712Z" transform="translate(-265.258 -348.261)"/><path d="M286.1,370.3a1.192,1.192,0,0,1-1.1.852h-.546v-.712h.377a.6.6,0,0,0,.608-.418l.184-.427-1.7-3.672h.837l1.249,2.8,1.124-2.8h.837Z" transform="translate(-262.644 -348.261)"/><path d="M287.52,369.1h-1.19v2.056h-.792v-5.23h1.982a1.589,1.589,0,1,1,0,3.174Zm-.051-2.462H286.33v1.75h1.139a.877.877,0,1,0,0-1.75Z" transform="translate(-259.48 -348.261)"/><path d="M290.156,371.154v-3.8l-2.344,3.8H287.1v-5.23h.792v3.791l2.335-3.791h.727v5.23Z" transform="translate(-256.418 -348.261)"/></g><path d="M292.986,358.653a2.227,2.227,0,0,1,1.166-2.219,1.911,1.911,0,0,0,.246-.243,2.831,2.831,0,0,1,1.878-.845,18.082,18.082,0,0,1,3.447.136,1.223,1.223,0,0,1,.875.51c.261.347.706.564.938.923a3.675,3.675,0,0,1,.9,2.575,1.828,1.828,0,0,0,.039.415c.012.139.068.3.015.412a4.511,4.511,0,0,1-2.065,2.2,5.764,5.764,0,0,1-1.649.312,2.526,2.526,0,0,1-1.169-.154,13.343,13.343,0,0,0-1.489-.2,3.249,3.249,0,0,1-2.035-.973,3.736,3.736,0,0,1-.994-1.661C293.022,359.445,293.019,359.047,292.986,358.653Zm2.471,1.056c.317.012.415-.062.335-.276-.012-.033-.065-.051-.1-.074Zm.911-2.72.125.1.219-.294-.092-.074Zm-1.919,2.4c-.041-.053-.077-.116-.092-.113a.705.705,0,0,0-.151.089c.024.033.053.095.074.092A.616.616,0,0,0,294.449,359.391Z" transform="translate(-244.851 -355.321)"/><path d="M311.016,361.1c.436-.134.489-.751.768-.935a.633.633,0,0,1,.635,0,4.369,4.369,0,0,0-.507.5,2.377,2.377,0,0,1-.282.433,5.447,5.447,0,0,1-.837.353Z" transform="translate(-209.814 -345.965)"/><path d="M355.518,368.318c-.086-1.213-.475-6.722-.7-7.443a1.249,1.249,0,0,0-1-.816,14.789,14.789,0,0,0-1.741-.044,2.421,2.421,0,0,1-.487-.009,5.423,5.423,0,0,0-1.819-.036c-.73.077-1.3,1.261-1.759,1.816-.932,1.115-1.925,2.18-2.86,3.293a16.7,16.7,0,0,0-1.382,1.611,16.884,16.884,0,0,0-.062,2.18,2.43,2.43,0,0,1,.211.148,2.52,2.52,0,0,1,.463.507.833.833,0,0,1,.228.119,14.648,14.648,0,0,1,1.291,1.391c.457.62,1.041,1.142,1.543,1.732.579.685,1.756,2.367,1.786,2.4a4.323,4.323,0,0,1,.813,1.433c.047.128.151.4.065.522-.214.3-.507.3-1.3.35-.937.053-1.881.015-2.818.071-.593.036-.759.1-1.189-.4-.249-.282-.4-.641-.647-.926a28.679,28.679,0,0,1-2.056-2.578l-.119-.163a2.339,2.339,0,0,1-.184-.232l-.033-.053-.039-.05c-.077-.089-.157-.178-.24-.264-.16-.163-.323-.32-.48-.484a7.209,7.209,0,0,1-.9-1.13,6.224,6.224,0,0,0-.715-.012,3.252,3.252,0,0,0-.848.107c-.264.1-.311.513-.323.8a19.332,19.332,0,0,0-.035,2.112,4.389,4.389,0,0,1-.454,2.459c-.065.119-.139.273-.249.323a3.887,3.887,0,0,1-1.807.543c-.727-.036-1.454-.08-2.18-.119-.249-.015-.43-.136-.4-.392.107-.813-.306-1.629.033-2.441a.875.875,0,0,0-.006-.35c-.03-.442-.089-.884-.089-1.326,0-1.335.175-2.661.172-4a3.248,3.248,0,0,0-.137-1.24,1.331,1.331,0,0,1,.018-.549c.024-.276.086-.552.089-.828.006-.605-.056-1.216-.009-1.818a5.405,5.405,0,0,1,.068-.843,1.64,1.64,0,0,1-.042-.359,1.713,1.713,0,0,1,.131-.641,1.748,1.748,0,0,1-.107-.3,4.467,4.467,0,0,1-.089-.845c0-.178-.086-.721.03-.071a2.15,2.15,0,0,1,.169-1.338,2.578,2.578,0,0,0-.415-.154,8.837,8.837,0,0,0-3.331-.442c-1.095.137-2.2.137-3.3.211a1.8,1.8,0,0,0-.466.172,3.5,3.5,0,0,0-.027.513,9.282,9.282,0,0,1,.071,1.8,4.227,4.227,0,0,1-.679,1.949.741.741,0,0,1-.923.326,1.633,1.633,0,0,0-.682-.151c-.857.124-1.712.291-2.563.46-.317.062-.623.214-.943.246a1.589,1.589,0,0,0-1.427,1.9,2.954,2.954,0,0,1-.039.837c-.039.344-.119.688-.145,1.035-.03.415.11.84-.119,1.243-.044.08.009.228.039.338.118.457.231.914.371,1.364a1.741,1.741,0,0,0,.917,1.107c.4.2.8.4,1.2.593a1.472,1.472,0,0,0,.516.2,16.883,16.883,0,0,0,2.593.065,16.5,16.5,0,0,1,2.172.042c.323.012.549.142.552.5,0,.608.033,1.219-.015,1.824a.64.64,0,0,1-.255.546.888.888,0,0,1-.917.774.528.528,0,0,1-.1-.009.585.585,0,0,1-.341.11.823.823,0,0,1-.1-.018.585.585,0,0,1-.175.027.61.61,0,0,1-.371.039c-.1-.024-.2-.039-.306-.053l-.033.006h-.1a.487.487,0,0,1-.068-.012,2.516,2.516,0,0,1-1.16.1c-1.777-.2-3.563.044-5.34-.214a3.572,3.572,0,0,1-2.32-.982,5.8,5.8,0,0,1-1.813-3.782,5.59,5.59,0,0,0-.086-.97,5.093,5.093,0,0,1-.068-2.56.7.7,0,0,0-.086-.578.624.624,0,0,1-.145-.641,4.679,4.679,0,0,0-.033-2.237.776.776,0,0,1-.009-.478,1.794,1.794,0,0,0,.175-1.29.628.628,0,0,1,.059-.412,6.312,6.312,0,0,0,.43-1.771c.193-1.083-.074-1.457-1.187-1.581a1.762,1.762,0,0,1-.783-.246,1.1,1.1,0,0,0-1.13-.113,5.244,5.244,0,0,1-2.771.27,12.82,12.82,0,0,0-1.688-.1c-.214,0-.587.113-.614.234-.092.406-.371.789-.119,1.27a1.5,1.5,0,0,1,.125,1.077,2.351,2.351,0,0,0-.018,1.365,5.511,5.511,0,0,1,.048,2.5c-.16.59-.427,1.219.015,1.827.047.065.021.184.021.279.027,1.24.059,2.483.077,3.726,0,.347-.042.694-.059,1.041a10.5,10.5,0,0,0-.053,1.827,4.1,4.1,0,0,1-.311,1.854c-.143.436-.395.893-.94.952a17.9,17.9,0,0,1-2.249.151,20.678,20.678,0,0,1-2.079-.243.789.789,0,0,1-.694-.7c-.047-.208-.027-.481-.154-.605a1.541,1.541,0,0,1-.312-1.513.641.641,0,0,0-.027-.344c-.151-.35-.024-.831-.483-1.032a16.885,16.885,0,0,1-.285-1.792c-.03-.534.1-1.071.095-1.608-.012-.86-.065-1.721-.133-2.578-.051-.587-.362-1.151-.148-1.768.033-.1-.042-.229-.048-.347a8.507,8.507,0,0,1-.056-3.124,1.668,1.668,0,0,0,.042-.421,1.255,1.255,0,0,0-1.3-1.4c-1.59-.068-3.18-.142-4.865-.22a2.088,2.088,0,0,0-.089.409c-.015.724-.006,1.445-.027,2.166a3.877,3.877,0,0,0-.056,1.231,1.782,1.782,0,0,1-.1,1.305.533.533,0,0,0-.044.273c.047.584.074,1.172.163,1.747a9.242,9.242,0,0,1-.027,2.379,6.019,6.019,0,0,0,.184,2.694,6.254,6.254,0,0,1,.267,2.062,10.866,10.866,0,0,0,.193,1.6c.1.593.255,1.178.368,1.768a3.345,3.345,0,0,0,.908,2.08c.05.044.113.119.11.175-.053.843.887,1.264.887,2.088,0,.068.113.146.184.2.489.395.985.786,1.474,1.181a1.415,1.415,0,0,1,.362.326,1.261,1.261,0,0,0,.739.5c.3.113.593.249.8.335.208-.062.368-.169.469-.128a1.176,1.176,0,0,0,.878.116.485.485,0,0,1,.335.068.921.921,0,0,0,.94-.006.616.616,0,0,1,.409-.059,10.9,10.9,0,0,1,1.329.439c.516.225.751.222,1.127-.181a1.914,1.914,0,0,0,.24-.433c.359.187.605.32.8.27a2.761,2.761,0,0,1,1.973.119.361.361,0,0,0,.136.027c.866-.012,1.73-.015,2.6-.045a2.792,2.792,0,0,1,1.723.148.254.254,0,0,0,.2.032,3.48,3.48,0,0,1,1.433-.024c.089,0,.211.009.261-.042a.7.7,0,0,1,.961-.042.647.647,0,0,0,.267.077c.813.045,1.629.059,2.438.131a2.166,2.166,0,0,1,1.353.3.494.494,0,0,0,.457.042,2.117,2.117,0,0,1,1.483-.2c.344.03.712-.13,1.044-.071a9.552,9.552,0,0,0,2.922-.062,3.287,3.287,0,0,1,.564.021c.279.012.561.015.84.036.81.062,1.652-.187,2.421.27a.4.4,0,0,0,.338.009c.214-.122.415.024.581,0a5.219,5.219,0,0,1,1.744-.042c.033.006.08-.044.119-.071a.841.841,0,0,1,.994.044,1.109,1.109,0,0,0,.937.116,10.646,10.646,0,0,1,1.6-.2c.605-.032,1.225.071,1.819-.021a8.373,8.373,0,0,1,2.866.006,2.772,2.772,0,0,0,.691-.059,7.253,7.253,0,0,1,1.314-.065,1.456,1.456,0,0,1,.415.119h.012a1.8,1.8,0,0,1,.442.062,1.471,1.471,0,0,1,.644-.027,3.271,3.271,0,0,1,.715-.083l.059-.053a.925.925,0,0,1,.745-.318,8.363,8.363,0,0,0,1.394-.05c.65-.1,1.284-.276,1.928-.421a8.682,8.682,0,0,1,1.783-.374,12.024,12.024,0,0,0,2-.326,1.793,1.793,0,0,0,1-.463,2.083,2.083,0,0,1,.566-.27c.107-.048.27-.071.309-.151.231-.483.576-.528.9-.9.151-.172.51-.555.632-.739a8.427,8.427,0,0,0,1.228-2.572,26.688,26.688,0,0,0,.576-4.242C355.69,373.765,355.572,369.092,355.518,368.318Zm-8.179,2.415.7.047.065.647C347.722,371.237,347.393,371.207,347.339,370.733Zm.842.329c.356-.332.356-.332.75-.228C348.787,371.136,348.553,371.068,348.182,371.062Zm1.658-1.457c-.051-.009-.083-.125-.125-.193a.834.834,0,0,1,.231-.1c.027-.006.071.092.133.181C349.983,369.54,349.9,369.617,349.84,369.605Zm-56.389-2.041a9.933,9.933,0,0,1-.6,2.308c-.113.119-.225.24-.341.356A13.617,13.617,0,0,1,293.452,367.564Zm.306,3.477c-.439.136-.49.753-.768.937a.64.64,0,0,1-.635,0,4.406,4.406,0,0,0,.507-.5,2.487,2.487,0,0,1,.279-.436,5.833,5.833,0,0,1,.84-.35Zm.961,5.975a.556.556,0,0,1-.16-.181s.1-.119.125-.11a1.063,1.063,0,0,1,.22.163C294.813,376.951,294.739,377.028,294.718,377.016Zm.6-1.032c0,.015-.116,0-.178-.006l.036-.407.214.036A3.189,3.189,0,0,1,295.321,375.984Zm.172-.872a3.828,3.828,0,0,1,1-2.053c.395.552.365.869-.012,1.258a5.718,5.718,0,0,0-.575.834Zm1.908-.567-1.118,1.525s-.32.169-.32.119a2.492,2.492,0,0,1,.2-.424c.036-.05.086-.042.223-.392a2,2,0,0,1,.439-.659c.05-.051.576-.472.576-.472Zm2.347,6.773a.859.859,0,0,0-.22.392,2.045,2.045,0,0,1-.442.659c-.05.05-.576.472-.576.472v-.3l1.118-1.525s.321-.169.321-.119A2.506,2.506,0,0,1,299.747,381.317Zm5.607,2.489a.559.559,0,0,1-.2-.252c-.015-.03.071-.157.095-.151a.815.815,0,0,1,.344.125c.074.056.107.175.208.359A1.8,1.8,0,0,1,305.354,383.806Zm3.373-16.12c.047-.071.875-1.2.875-1.2a43.472,43.472,0,0,1-2.6,4.37A22.487,22.487,0,0,1,308.727,367.686Zm-1.81,7.772a.539.539,0,0,1,.172-.2c.009-.009.089.068.181.139l-.264.219C306.973,375.565,306.9,375.5,306.917,375.458Zm.946,8.4c-.015.071-.22.166-.329.157a1.864,1.864,0,0,1-.507-.22c.288-.383.386-.789.807-.97C308.1,383.2,307.914,383.542,307.863,383.863Zm-.4-9.81c.35-.125.5-.036.584.264C307.756,374.485,307.62,374.352,307.46,374.052Zm1.071-4.242a14.944,14.944,0,0,1,1.169-2.157c.033-.048.6-.819.6-.819A30.151,30.151,0,0,1,308.531,369.81Zm1.7,13.667a1.9,1.9,0,0,1-.344.261c0-.234-.036-.365.009-.454a.683.683,0,0,1,.279-.264c.045-.024.216.089.214.1A1.084,1.084,0,0,1,310.231,383.477Zm2.109.549c-.285-.006-.5-.1-.528-.445l.584-.528a1.148,1.148,0,0,1,.261.178c.116.154.318.338.3.481C312.9,384.014,312.6,384.029,312.34,384.026Zm2.655-3.477c-.113.172-.706.739-.721.878a9.378,9.378,0,0,1-.5,1.047s-.255-.169-.226-.255.424-1.053.424-1.053l1.017-1.154.285-.2A4.283,4.283,0,0,1,314.995,380.549Zm10.419,1.012c-.3.555-.564,1.13-.86,1.685-.356.668-.881.748-1.563.154.134-.24.234-.469.377-.673.317-.457.656-.9.988-1.35a3.045,3.045,0,0,1,.264-.32c.187-.193.383-.38.525-.519l.958-.386c.2.136.314.323.068.584-.128.137-.27.258-.4.395A2.347,2.347,0,0,0,325.414,381.561Zm.469,1.786a.238.238,0,0,1-.021-.234c.172-.172.356-.175.567.077C326.244,383.364,326.1,383.519,325.882,383.346Zm.478-3.607c-.038,0-.083-.083-.125-.128a.779.779,0,0,1,.211-.136c.033-.009.092.071.184.148A1.045,1.045,0,0,1,326.36,379.739Zm.395,2.916c-.012.009-.125-.092-.116-.119a.881.881,0,0,1,.151-.228c.071.092.148.163.136.184A.457.457,0,0,1,326.754,382.655Zm.214-11.347-.018-.169.377-.045.021.125Zm1.931,4.773-.225-.531c.125-.012.211-.044.243-.015C329.086,375.681,329.142,375.844,328.9,376.081Zm-.211-4.278c.3.605-.178,1-.534,1.587-.537-.765-.009-1.246.234-1.744.172-.353.442-.374,1.041-.19C329.306,371.83,328.9,371.534,328.689,371.8Zm1.917,2.75c.089-.389.032-.774.489-.949.139-.053.214-.273.392-.516l.128.81C331.231,374.011,331.157,374.571,330.605,374.554Zm.294,3.136c.228-.326.249-.8.843-.875.154.5.415.938-.036,1.43Zm1,4.31-.107-.623.1-.071c.095.089.24.163.279.273C332.228,381.757,332.174,381.928,331.9,382Zm2.477,2.326a1.106,1.106,0,0,1-1.142-.2c.246-.519.246-.519,1.489-.86C335.108,383.8,334.981,384.2,334.376,384.326Zm2.9-.139-.816.065c-.267-.745-.267-.745.317-1.112.211-.134.418-.273.78-.51Zm.308-1.89-.172-.074c.051-.11.1-.222.157-.329l.11.039C337.657,382.053,337.621,382.175,337.588,382.3Zm1.967-2.958-.472.581C338.983,379.475,338.983,379.475,339.555,379.339Zm.2,4.218c-.374.19-.771.742-1.5.575a10.765,10.765,0,0,1,1.768-2.468l.264.688Zm2.554-.6c-.347.2-.353-.341-.481-.347-.412-.018-.288.549-.679.365l-.1-1.827a1.137,1.137,0,0,1,1.264.677Zm-.113-3.195c-.279-.012-.43-.086-.377-.38.092-.492.151-.558.653-.546Zm1.857,2.106c-.133-.484-.133-.484.231-.7A.964.964,0,0,1,344.049,381.872Zm-.863-5.025a2.482,2.482,0,0,1,.315.107l-.062.166-.329-.113C343.136,376.951,343.174,376.844,343.186,376.847Zm-.027,2.008c.228-.353.466-.225.739-.125A.579.579,0,0,1,343.16,378.855Zm1.041,1.267c-.193.362-.445.341-.76.246C343.608,379.953,343.845,379.932,344.2,380.122Zm-.674,3.536.19-.792c.454-.145.733.015.976.51C344.263,383.436,344.011,383.8,343.527,383.658Zm2.522-3.1c-.231.024-.3-.139-.314-.385.249-.071.4-.018.448.193A.238.238,0,0,1,346.049,380.558Zm4.394-9.027.228.32-.16.1-.166-.362Zm-1.4,6.986a.5.5,0,0,1,.386,0c.068.032.11.2.1.3-.047.5-.249.694-.691.727C348.654,378.989,348.7,378.68,349.042,378.517Zm-.125,3.453c.033-.074.042-.151.08-.175.172-.1.338-.122.534.175Zm.694-1.2c.383-.486.4-.486.985.033C350.247,381.237,349.941,380.7,349.612,380.774Zm.949-.528c-.258-.558-.169-.733.43-.742Z" transform="translate(-248.535 -347.08)"/></g><g transform="translate(224.14 649.282)"><path d="M244.215,375.043l.1-.02v-.368c0-1.9.009-3.8-.006-5.693,0-.345.076-.476.45-.473,2.3.018,4.606-.026,6.906.026a11.4,11.4,0,0,1,2.665.371,5.433,5.433,0,0,1,3.305,8.183,5.7,5.7,0,0,1-3.577,2.51,13.888,13.888,0,0,1-4.094.348c-.336-.006-.459.091-.456.438.015,1.532.006,3.063.009,4.591,0,.126.023.248.044.441l8.054-3.682a9.961,9.961,0,0,0,19.7,1.531c.59-2.782-.488-7.271-1.964-8.089a3.037,3.037,0,0,1-.1.38,10.622,10.622,0,0,1-.625,1.54,5.578,5.578,0,0,1-3.542,2.5,13.744,13.744,0,0,1-4.059.348c-.362-.006-.468.108-.465.465.018,1.52,0,3.037.015,4.556,0,.316-.082.438-.421.436-1.47-.015-2.94-.012-4.41,0-.307,0-.415-.088-.415-.406q.013-8.04,0-16.085c0-.324.126-.4.421-.395.877.015,1.756.006,2.633,0,.123,0,.242-.02.4-.035-.056-.152-.085-.254-.129-.348q-2.376-5.19-4.758-10.384c-.263-.573-.266-.57-.833-.31q-9.285,4.252-18.573,8.5c-.319.146-.348.281-.208.587,1.271,2.744,2.525,5.5,3.785,8.247C244.11,374.847,244.166,374.944,244.215,375.043Z" transform="translate(-240.202 -355.693)"/><path d="M255.728,364.839c.213-.015.351-.029.485-.029,1.64,0,3.276.009,4.913-.012a.561.561,0,0,1,.628.456c.874,2.572,1.768,5.135,2.657,7.7.064.184.131.368.2.552a.9.9,0,0,0,.228-.383q1.372-3.967,2.735-7.937a.478.478,0,0,1,.532-.389c1.648.015,3.3.006,4.948.009.123,0,.245.018.4.032-.044.149-.064.251-.1.348q-3,8.013-6,16.024c-.26.693-.123.6-.871.608-.418,0-.836,0-1.359,0l2.683,3.568,11.331-26.226-28.369,3.565,8.1,10.787.088-.053Z" transform="translate(-219.897 -352.012)"/><path d="M243.391,364.263c0,.488.006.973,0,1.458,0,.243.093.345.339.333.283-.012.57.023.85-.009a7.145,7.145,0,0,0,1.528-.237,1.407,1.407,0,0,0,.988-1.347,1.679,1.679,0,0,0-1.753-1.917c-.544-.035-1.09-.006-1.634-.017-.231-.006-.321.093-.319.316C243.394,363.316,243.391,363.79,243.391,364.263Z" transform="translate(-234.076 -345.547)"/><path d="M249.227,364.3c0,.488,0,.973,0,1.458,0,.181.056.3.26.3.582-.009,1.166.026,1.742-.032a1.72,1.72,0,0,0,1.66-1.362,1.7,1.7,0,0,0-1.68-2.107c-.552-.05-1.113-.015-1.669-.026-.231-.006-.318.093-.313.319C249.23,363.331,249.224,363.816,249.227,364.3Z" transform="translate(-222.856 -345.55)"/><path d="M253.477,358.2a1.2,1.2,0,0,0,.041.2q.736,1.868,1.476,3.741a.321.321,0,0,0,.371.234c.345-.017.395-.222.427-.491.134-1.04.275-2.081.424-3.194l.14.38c.342.912.687,1.821,1.017,2.735a.345.345,0,0,0,.43.254.35.35,0,0,0,.359-.351c.152-1.09.324-2.18.485-3.27.044-.31.073-.62.108-.932-.552-.018-.573-.006-.631.447-.07.529-.14,1.058-.2,1.587-.064.511-.123,1.026-.181,1.537a.575.575,0,0,1-.155-.248q-.509-1.368-1.02-2.732c-.07-.187-.134-.351-.4-.31-.243.038-.365.126-.395.4-.126,1.078-.28,2.154-.432,3.3-.053-.126-.082-.187-.105-.248q-.513-1.385-1.029-2.767C254.038,358.021,253.977,358,253.477,358.2Z" transform="translate(-214.68 -355.218)"/><path d="M260.485,366.466c1.108.193,2.168.371,3.226.567a.345.345,0,0,0,.447-.219.358.358,0,0,0-.126-.511c-1.011-.807-2.008-1.628-3.01-2.443-.088-.073-.187-.132-.278-.2-.319.447-.319.488.05.772.78.6,1.561,1.2,2.341,1.8a1.507,1.507,0,0,1,.155.172c-1.087-.193-2.113-.374-3.136-.558-.222-.041-.4-.061-.517.214s0,.386.184.532c.862.666,1.715,1.341,2.616,2.046-1.1-.2-2.139-.386-3.183-.573-.482-.088-.567-.021-.6.5a.913.913,0,0,0,.126.047c1.335.216,2.671.427,4,.646a.346.346,0,0,0,.415-.231c.126-.248.035-.386-.155-.538C262.2,367.83,261.361,367.158,260.485,366.466Z" transform="translate(-204.719 -343.363)"/><path d="M251.248,359.139c.248.327.441.593.649.85.6.745,1.219,1.485,1.821,2.233.178.222.389.158.579.082.07-.026.123-.213.111-.319-.149-1.245-.316-2.49-.471-3.738-.026-.207-.085-.327-.333-.3s-.266.187-.243.383c.056.409.111.821.167,1.233.082.59.164,1.181.26,1.87-.12-.155-.175-.231-.231-.3-.722-.894-1.452-1.786-2.163-2.689-.21-.263-.459-.166-.675-.09-.07.02-.093.281-.079.427.137,1.166.292,2.329.438,3.492.058.485.114.52.623.322Z" transform="translate(-220.142 -354.351)"/><path d="M258.158,370.486c.6-.076,1.09-.132,1.578-.2.775-.114,1.549-.216,2.315-.374.155-.032.278-.272.386-.433.02-.032-.073-.19-.143-.222q-1.806-.793-3.624-1.558a.341.341,0,0,0-.3.111c-.164.207-.088.339.161.441.95.392,1.894.8,2.852,1.207-.745.105-1.479.2-2.209.313a14.161,14.161,0,0,0-1.572.275c-.164.044-.283.3-.392.476-.02.035.091.2.172.24,1.192.523,2.391,1.038,3.586,1.558.169.073.251.018.33-.137.134-.254.015-.351-.207-.444C260.143,371.339,259.2,370.933,258.158,370.486Z" transform="translate(-207.51 -335.623)"/><path d="M261.565,356.874c-.2.029-.45.047-.693.1a2.188,2.188,0,0,0-1.8,2.236,2.041,2.041,0,0,0,1.847,2.195,6.9,6.9,0,0,0,1.73-.272c.24-.047.31-.219.275-.456-.073-.5-.143-1.008-.2-1.514-.026-.24-.146-.292-.362-.254-.266.047-.538.079-.81.111-.172.02-.333.026-.3.281s.172.234.357.208c.543-.073.543-.07.628.482.009.058.017.117.026.178.073.614.07.617-.538.719l-.105.018a1.546,1.546,0,0,1-1.827-1.192,1.623,1.623,0,0,1,.932-2.142,4.71,4.71,0,0,1,1.257-.134c.167-.006.3-.015.283-.2a.43.43,0,0,0-.2-.3A1.7,1.7,0,0,0,261.565,356.874Z" transform="translate(-203.93 -356.415)"/><path d="M250.331,360.329l-.079-.018c-.067-.538-.14-1.076-.2-1.613-.026-.213-.12-.313-.354-.284s-.3.143-.26.362c.053.316.088.634.129.953.12.938.242,1.879.356,2.82.029.225.129.3.357.272s.292-.132.251-.36c-.061-.339-.067-.687-.134-1.023a.809.809,0,0,1,.322-.8l1.438,1.634c.278.313.441.336.871.108-.079-.094-.152-.184-.228-.272-.517-.587-1.029-1.178-1.555-1.759a.288.288,0,0,1-.032-.43c.167-.231.316-.473.471-.713.219-.345.438-.69.678-1.064a.766.766,0,0,0-.912.377C251.1,359.136,250.705,359.727,250.331,360.329Z" transform="translate(-222.47 -354.016)"/><path d="M265.689,361.665a.326.326,0,0,0-.1-.018c-.605.108-1.21.222-1.818.33-.325.056-.716.234-.956.114s-.342-.538-.494-.83c-.2-.394-.4-.792-.608-1.21-.342.438-.356.535-.155.926l1.032,1.99c-.19-.07-.3-.105-.4-.149-.4-.172-.81-.339-1.207-.523-.231-.105-.31.012-.4.193-.105.21-.023.3.164.374,1.175.5,2.353,1.005,3.524,1.523.219.1.313.032.4-.172s.029-.322-.178-.4c-.342-.134-.672-.3-1.014-.432a.672.672,0,0,1-.43-.663c.7-.131,1.382-.263,2.066-.389C265.543,362.247,265.636,362.142,265.689,361.665Z" transform="translate(-201.118 -350.305)"/><path d="M260.135,369.156c.2-.456.371-.88.558-1.3.076-.169.067-.28-.123-.365s-.275.009-.345.172c-.146.351-.292.7-.462,1.04-.038.082-.19.187-.245.167-.362-.132-.713-.292-1.09-.456.21-.494.395-.944.59-1.385.073-.164.088-.281-.111-.371s-.275-.02-.348.155c-.237.567-.479,1.134-.734,1.7-.088.2-.041.3.155.383q1.767.754,3.527,1.522c.187.082.3.061.389-.14q.373-.908.771-1.8c.094-.208.026-.336-.172-.357a.377.377,0,0,0-.292.181c-.228.476-.43.964-.649,1.467Z" transform="translate(-206.4 -337.68)"/><path d="M261.229,361.367c.716-.091,1.347-.173,1.982-.251.184-.023.357-.094.272-.307a.41.41,0,0,0-.333-.184,10.873,10.873,0,0,0-1.268.149c-.246.041-.322-.056-.345-.269-.032-.307-.056-.614-.114-.915-.047-.257.056-.342.289-.368.351-.038.7-.094,1.055-.134.167-.021.3-.047.269-.275-.026-.245-.17-.243-.351-.213-.164.026-.327.035-.491.061-.859.132-.859.132-.979-.713-.009-.059-.017-.117-.032-.175-.064-.257.05-.371.3-.4.389-.044.775-.1,1.163-.149.175-.021.292-.061.257-.284-.032-.2-.143-.24-.324-.216-.573.082-1.148.167-1.724.225-.3.029-.377.152-.336.438q.254,1.846.479,3.7C261.021,361.285,261.088,361.4,261.229,361.367Z" transform="translate(-201.167 -356.717)"/><path d="M257.9,361.277c-.283.14-.336-.079-.362-.354s-.058-.52-.1-.774c-.05-.292.073-.412.357-.436.342-.029.681-.091,1.023-.128.2-.02.3-.132.219-.3a.449.449,0,0,0-.3-.178,1.248,1.248,0,0,0-.386.032c-1.017.146-1,.143-1.148-.859-.047-.307.073-.377.321-.406.389-.044.777-.082,1.16-.158.094-.02.158-.173.234-.263-.094-.076-.2-.222-.281-.213-.637.061-1.271.158-1.905.24-.184.023-.231.114-.207.292q.25,1.9.485,3.811c.026.213.111.31.348.275.623-.088,1.248-.155,1.87-.234.152-.02.307-.029.289-.266s-.149-.266-.339-.24C258.779,361.166,258.378,361.216,257.9,361.277Z" transform="translate(-208.835 -355.721)"/><path d="M262.146,359.454c-.254-.362-.359-.377-.614.009a2.982,2.982,0,0,0-.377.792,1.165,1.165,0,0,0,1.949,1.2c.216-.184.415-.389.634-.567a.7.7,0,0,1,.888-.053.708.708,0,0,1,.257.854,2.105,2.105,0,0,1-.283.567,5.992,5.992,0,0,1-.474.549c.248.056.462.175.564.114a2.043,2.043,0,0,0,.7-2,1.2,1.2,0,0,0-1.824-.623c-.322.213-.59.505-.9.748a.641.641,0,0,1-1.005-.757A8.378,8.378,0,0,1,262.146,359.454Z" transform="translate(-200.033 -351.986)"/><path d="M259.848,365.641c-.094-.061-.184-.167-.272-.167a.359.359,0,0,0-.278.164c-.374.833-.728,1.672-1.1,2.507-.079.181-.05.278.134.359s.284,0,.351-.167c.085-.208.193-.406.263-.62.1-.286.24-.316.506-.2.964.43,1.935.839,2.9,1.26.184.079.333.161.45-.111s.029-.354-.2-.45c-.959-.4-1.908-.839-2.873-1.23-.333-.135-.371-.3-.219-.587C259.638,366.175,259.723,365.927,259.848,365.641Z" transform="translate(-205.673 -339.881)"/><path d="M256.14,361.879c.775-.105,1.42-.2,2.066-.278.2-.026.289-.146.222-.313a.377.377,0,0,0-.3-.187,8.1,8.1,0,0,0-1.16.143c-.313.061-.444,0-.479-.342-.114-1.061-.269-2.116-.4-3.174-.029-.222-.114-.31-.345-.283s-.31.117-.266.348.064.494.094.742c.126.985.248,1.973.383,2.957C255.985,361.666,255.965,361.912,256.14,361.879Z" transform="translate(-210.84 -355.324)"/><path d="M244.215,375.043c-.05-.1-.105-.2-.149-.3-1.26-2.75-2.513-5.5-3.785-8.247-.14-.307-.111-.441.208-.587q9.289-4.239,18.573-8.5c.567-.26.57-.263.833.31q2.38,5.19,4.758,10.384c.044.094.073.2.129.348-.158.015-.278.035-.4.035-.877,0-1.757.012-2.633,0-.3,0-.421.07-.421.395q.013,8.044,0,16.085c0,.319.108.409.415.406,1.47-.012,2.94-.015,4.41,0,.339,0,.424-.12.421-.436-.012-1.52,0-3.037-.015-4.556,0-.356.1-.47.465-.465a13.744,13.744,0,0,0,4.059-.348,5.578,5.578,0,0,0,3.542-2.5,10.622,10.622,0,0,0,.625-1.54,3.037,3.037,0,0,0,.1-.38c1.476.818,2.554,5.307,1.964,8.089a9.98,9.98,0,0,1-8.747,7.882,10,10,0,0,1-10.954-9.413l-8.054,3.682c-.02-.193-.044-.316-.044-.441,0-1.528.006-3.06-.009-4.591,0-.348.12-.444.456-.438a13.888,13.888,0,0,0,4.094-.348,5.7,5.7,0,0,0,3.577-2.51,5.433,5.433,0,0,0-3.305-8.183,11.4,11.4,0,0,0-2.665-.371c-2.3-.053-4.6-.009-6.906-.026-.374,0-.453.129-.45.473.015,1.9.006,3.8.006,5.693v.368Z" transform="translate(-240.202 -355.693)"/><path d="M255.728,364.839l3.226,8.624-.088.053-8.1-10.787,28.369-3.565L267.8,385.39l-2.683-3.568c.523,0,.941,0,1.359,0,.748-.006.611.085.871-.608q3.007-8.009,6-16.024c.038-.1.059-.2.1-.348-.158-.015-.281-.032-.4-.032-1.651,0-3.3.006-4.948-.009a.478.478,0,0,0-.532.389q-1.355,3.972-2.735,7.937a.9.9,0,0,1-.228.383c-.064-.184-.132-.368-.2-.552-.888-2.569-1.783-5.132-2.657-7.7a.561.561,0,0,0-.628-.456c-1.637.02-3.273.009-4.913.012C256.079,364.81,255.942,364.825,255.728,364.839Z" transform="translate(-219.897 -352.012)"/><path d="M243.391,364.263c0-.473,0-.947,0-1.42,0-.222.088-.322.319-.316.544.012,1.09-.018,1.634.017a1.679,1.679,0,0,1,1.753,1.917,1.407,1.407,0,0,1-.988,1.347,7.145,7.145,0,0,1-1.528.237c-.281.032-.567,0-.85.009-.246.012-.342-.091-.339-.333C243.4,365.237,243.391,364.751,243.391,364.263Z" transform="translate(-234.076 -345.547)"/><path d="M249.224,364.3c0-.485.006-.97,0-1.455-.006-.225.082-.324.313-.319.555.012,1.116-.023,1.669.026a1.7,1.7,0,0,1,1.68,2.107,1.72,1.72,0,0,1-1.66,1.362c-.576.058-1.16.023-1.742.032-.2.006-.26-.114-.26-.3C249.227,365.274,249.227,364.789,249.224,364.3Z" transform="translate(-222.856 -345.55)"/><path d="M253.477,358.2c.5-.2.561-.175.728.269q.517,1.381,1.029,2.767c.023.061.053.123.105.248.152-1.148.307-2.224.432-3.3.029-.272.152-.359.395-.4.263-.041.327.123.4.31q.509,1.368,1.02,2.732a.575.575,0,0,0,.155.248c.059-.511.117-1.026.181-1.537.064-.529.134-1.058.2-1.587.058-.453.079-.465.631-.447-.035.313-.064.622-.108.932-.161,1.09-.333,2.18-.485,3.27a.35.35,0,0,1-.359.351.345.345,0,0,1-.43-.254c-.33-.915-.675-1.824-1.017-2.735l-.14-.38c-.149,1.113-.289,2.154-.424,3.194-.032.269-.082.473-.427.491a.321.321,0,0,1-.371-.234q-.736-1.872-1.476-3.741A1.2,1.2,0,0,1,253.477,358.2Z" transform="translate(-214.68 -355.218)"/><path d="M260.485,366.466c.877.693,1.715,1.365,2.563,2.025.19.152.281.289.155.538a.346.346,0,0,1-.415.231c-1.333-.219-2.668-.43-4-.646a.913.913,0,0,1-.126-.047c.029-.52.114-.587.6-.5,1.043.187,2.087.377,3.183.573-.9-.7-1.753-1.379-2.616-2.046-.184-.146-.3-.266-.184-.532s.3-.254.517-.214c1.023.184,2.049.365,3.136.558a1.507,1.507,0,0,0-.155-.172c-.78-.6-1.561-1.2-2.341-1.8-.368-.284-.368-.324-.05-.772.091.064.19.123.278.2,1,.815,2,1.637,3.01,2.443a.358.358,0,0,1,.126.511.345.345,0,0,1-.447.219C262.653,366.837,261.592,366.659,260.485,366.466Z" transform="translate(-204.719 -343.363)"/><path d="M251.248,359.139l.453,3.46c-.509.2-.564.164-.623-.322-.146-1.163-.3-2.326-.438-3.492-.015-.146.009-.406.079-.427.216-.076.465-.173.675.09.71.9,1.441,1.794,2.163,2.689.056.07.111.146.231.3-.1-.69-.178-1.28-.26-1.87-.056-.412-.111-.824-.167-1.233-.023-.2-.015-.348.243-.383s.307.088.333.3c.155,1.248.321,2.493.471,3.738.012.105-.041.292-.111.319-.19.076-.4.14-.579-.082-.6-.748-1.216-1.488-1.821-2.233C251.689,359.732,251.5,359.466,251.248,359.139Z" transform="translate(-220.142 -354.351)"/><path d="M258.158,370.486c1.04.447,1.984.853,2.931,1.251.222.093.342.19.207.444-.079.155-.161.21-.33.137-1.2-.52-2.394-1.035-3.586-1.558-.082-.038-.193-.2-.172-.24.108-.178.228-.432.392-.476a14.161,14.161,0,0,1,1.572-.275c.731-.108,1.464-.208,2.209-.313-.958-.406-1.9-.816-2.852-1.207-.248-.1-.324-.234-.161-.441a.341.341,0,0,1,.3-.111q1.819.763,3.624,1.558c.07.032.164.19.143.222-.108.161-.231.4-.386.433-.766.158-1.54.26-2.315.374C259.248,370.354,258.757,370.41,258.158,370.486Z" transform="translate(-207.51 -335.623)"/><path d="M261.463,359.349a1.988,1.988,0,0,1-1.493,2.078,11.674,11.674,0,0,1-1.569.269c-.184.029-.283-.044-.31-.243-.158-1.268-.33-2.534-.479-3.8a.374.374,0,0,1,.184-.307,7.247,7.247,0,0,1,1.677-.225A1.964,1.964,0,0,1,261.463,359.349Zm-2.382-1.762a3.059,3.059,0,0,0-.582.105.417.417,0,0,0-.228.316c.108.973.237,1.946.38,2.917a.344.344,0,0,0,.272.21,3.614,3.614,0,0,0,.9-.172,1.649,1.649,0,0,0,.97-2.072A1.528,1.528,0,0,0,259.081,357.586Z" transform="translate(-206.733 -355.952)"/><path d="M252.075,360.051a2.047,2.047,0,0,1,2.51-2.2,2.195,2.195,0,0,1,.237.073,2.522,2.522,0,0,1,1.242,2.9,1.985,1.985,0,0,1-2.18,1.531,2.1,2.1,0,0,1-1.8-2.04C252.078,360.209,252.078,360.1,252.075,360.051Zm.567-.152a3.075,3.075,0,0,0,.453,1.376,1.228,1.228,0,0,0,1.292.558,1.2,1.2,0,0,0,.991-.865,2.3,2.3,0,0,0-.275-2.078,1.227,1.227,0,0,0-2.09-.038A4.881,4.881,0,0,0,252.642,359.9Z" transform="translate(-217.375 -354.664)"/><path d="M259.6,364.489a1.905,1.905,0,0,1,2.353-1.938,2.723,2.723,0,0,1,1.745,1.005,1.883,1.883,0,0,1,.164,2.11,1.8,1.8,0,0,1-1.724,1.046,2.718,2.718,0,0,1-2.069-.953A1.8,1.8,0,0,1,259.6,364.489Zm2.385,1.587c.856.006,1.289-.257,1.5-.775a1.261,1.261,0,0,0-.342-1.458,2.354,2.354,0,0,0-1.733-.7,1.19,1.19,0,0,0-1.2.772,1.252,1.252,0,0,0,.289,1.412A2.29,2.29,0,0,0,261.982,366.076Z" transform="translate(-202.914 -345.58)"/><path d="M262.857,362.558c.775-.365,1.485-.012,2.212.032-.041.508-.143.59-.6.523-.316-.05-.631-.114-.95-.134a.9.9,0,0,0-.938.827c-.006.076.111.193.2.234.4.187.8.362,1.2.526.19.079.263.172.169.377-.085.184-.161.3-.4.2-1.16-.511-2.326-1-3.484-1.52-.1-.044-.219-.251-.19-.33a9.092,9.092,0,0,1,.6-1.394,1.047,1.047,0,0,1,1.181-.532,1.177,1.177,0,0,1,.959,1.014C262.837,362.424,262.843,362.47,262.857,362.558Zm-.713,1.213a8.718,8.718,0,0,0,.243-1.134.65.65,0,0,0-.485-.631.622.622,0,0,0-.775.161,4.092,4.092,0,0,0-.429.795.246.246,0,0,0,.1.219C261.206,363.373,261.63,363.549,262.144,363.771Z" transform="translate(-201.986 -347.834)"/><path d="M261.565,356.874a1.7,1.7,0,0,1,.5.064.43.43,0,0,1,.2.3c.021.184-.117.193-.283.2a4.71,4.71,0,0,0-1.257.134,1.623,1.623,0,0,0-.932,2.142,1.546,1.546,0,0,0,1.827,1.192l.105-.018c.608-.1.611-.105.538-.719-.009-.061-.018-.12-.026-.178-.085-.552-.085-.555-.628-.482-.184.026-.324.038-.357-.208s.129-.26.3-.281c.272-.032.544-.064.81-.111.216-.038.336.015.362.254.056.506.126,1.011.2,1.514.035.237-.035.409-.275.456a6.9,6.9,0,0,1-1.73.272,2.041,2.041,0,0,1-1.847-2.195,2.188,2.188,0,0,1,1.8-2.236C261.115,356.921,261.364,356.9,261.565,356.874Z" transform="translate(-203.93 -356.415)"/><path d="M250.331,360.329c.374-.6.772-1.193,1.114-1.812a.766.766,0,0,1,.912-.377c-.24.374-.459.719-.678,1.064-.155.24-.3.482-.471.713a.288.288,0,0,0,.032.43c.526.582,1.038,1.172,1.555,1.759.076.088.149.178.228.272-.43.228-.593.2-.871-.108l-1.438-1.634a.809.809,0,0,0-.322.8c.067.336.073.684.134,1.023.041.228-.02.328-.251.36s-.327-.047-.357-.272c-.114-.941-.237-1.882-.356-2.82-.041-.319-.076-.637-.129-.953-.035-.219.029-.33.26-.362s.327.07.354.284c.064.538.137,1.076.2,1.613Z" transform="translate(-222.47 -354.016)"/><path d="M265.689,361.665c-.053.476-.146.581-.576.66-.684.126-1.368.257-2.066.389a.672.672,0,0,0,.43.663c.342.134.672.3,1.014.432.208.082.272.184.178.4s-.184.269-.4.172c-1.172-.517-2.35-1.02-3.524-1.523-.187-.079-.269-.164-.164-.374.091-.181.169-.3.4-.193.4.184.8.351,1.207.523.105.044.213.079.4.149l-1.032-1.99c-.2-.392-.187-.488.155-.926.21.418.4.815.608,1.21.152.292.251.71.494.83s.631-.058.956-.114c.608-.108,1.213-.222,1.818-.33A.326.326,0,0,1,265.689,361.665Z" transform="translate(-201.118 -350.305)"/><path d="M260.135,369.156l1.42.611c.219-.5.421-.991.649-1.467a.377.377,0,0,1,.292-.181c.2.021.266.149.172.357q-.4.894-.771,1.8c-.085.2-.2.222-.389.14q-1.762-.767-3.527-1.522c-.2-.082-.243-.187-.155-.383.254-.564.5-1.131.734-1.7.073-.175.155-.243.348-.155s.184.208.111.371c-.2.441-.38.891-.59,1.385.377.164.728.324,1.09.456.056.02.207-.085.245-.167.169-.339.316-.69.462-1.04.07-.164.14-.263.345-.172s.2.2.123.365C260.506,368.276,260.33,368.7,260.135,369.156Z" transform="translate(-206.4 -337.68)"/><path d="M261.229,361.367c-.14.029-.207-.082-.234-.283q-.228-1.85-.479-3.7c-.041-.286.041-.409.336-.438.576-.058,1.152-.143,1.724-.225.181-.023.292.012.324.216.035.222-.082.263-.257.284-.389.047-.774.105-1.163.149-.248.029-.362.143-.3.4.015.058.023.117.032.175.12.845.12.845.979.713.164-.026.327-.035.491-.061.181-.029.324-.032.351.213.026.228-.1.254-.269.275-.351.041-.7.1-1.055.134-.234.026-.336.111-.289.368.058.3.082.608.114.915.023.213.1.31.345.269a10.873,10.873,0,0,1,1.268-.149.41.41,0,0,1,.333.184c.085.213-.088.283-.272.307C262.576,361.195,261.945,361.276,261.229,361.367Z" transform="translate(-201.167 -356.717)"/><path d="M257.9,361.277c.473-.061.874-.111,1.271-.164.19-.026.319,0,.339.24s-.137.246-.289.266c-.622.079-1.248.146-1.87.234-.237.035-.321-.062-.348-.275q-.237-1.907-.485-3.811c-.023-.178.023-.269.207-.292.634-.082,1.268-.178,1.905-.24.085-.009.187.137.281.213-.076.09-.14.243-.234.263-.383.076-.772.114-1.16.158-.248.029-.368.1-.321.406.146,1,.131,1.005,1.148.859a1.248,1.248,0,0,1,.386-.032.449.449,0,0,1,.3.178c.079.173-.021.284-.219.3-.342.038-.681.1-1.023.128-.284.023-.406.143-.357.436.044.254.079.514.1.774S257.621,361.417,257.9,361.277Z" transform="translate(-208.835 -355.721)"/><path d="M262.146,359.454a8.378,8.378,0,0,0-.482.83.641.641,0,0,0,1.005.757c.307-.243.576-.535.9-.748a1.2,1.2,0,0,1,1.824.623,2.043,2.043,0,0,1-.7,2c-.1.061-.316-.059-.564-.114a5.992,5.992,0,0,0,.474-.549,2.105,2.105,0,0,0,.283-.567.708.708,0,0,0-.257-.854.7.7,0,0,0-.888.053c-.219.178-.418.383-.634.567a1.165,1.165,0,0,1-1.949-1.2,2.982,2.982,0,0,1,.377-.792C261.787,359.077,261.892,359.091,262.146,359.454Z" transform="translate(-200.033 -351.986)"/><path d="M259.848,365.641c-.126.286-.211.535-.333.763-.152.292-.114.453.219.587.964.391,1.914.827,2.873,1.23.231.1.313.193.2.45s-.266.19-.45.111c-.967-.421-1.938-.83-2.9-1.26-.266-.12-.409-.091-.506.2-.07.213-.178.412-.263.62-.067.167-.152.251-.351.167s-.213-.178-.134-.359c.368-.836.722-1.675,1.1-2.507a.359.359,0,0,1,.278-.164C259.664,365.474,259.755,365.579,259.848,365.641Z" transform="translate(-205.673 -339.881)"/><path d="M256.14,361.879c-.175.032-.155-.213-.178-.386-.134-.985-.257-1.973-.383-2.957-.029-.249-.047-.5-.094-.742s.038-.322.266-.348.316.061.345.283c.129,1.058.284,2.113.4,3.174.035.345.167.4.479.342a8.1,8.1,0,0,1,1.16-.143.377.377,0,0,1,.3.187c.067.167-.018.286-.222.313C257.56,361.681,256.915,361.774,256.14,361.879Z" transform="translate(-210.84 -355.324)"/></g><g transform="translate(491.336 651.355)"><path class="a" d="M15.9,40.768A15.056,15.056,0,0,1,9.71,39.447a15.828,15.828,0,0,1-5.053-3.6A17.2,17.2,0,0,1,0,23.954V0H31.791V23.954a17.207,17.207,0,0,1-4.655,11.89,15.823,15.823,0,0,1-5.052,3.6A15.052,15.052,0,0,1,15.9,40.768Zm2.8-10.28h0a.561.561,0,0,0,.188.368l.033-.064a.918.918,0,0,1,.158-.243.636.636,0,0,1-.12.012.512.512,0,0,1-.259-.073Zm3.634-.086h0c0,.025,0,.046.005.065a.89.89,0,0,0,.053.267.518.518,0,0,1,.2-.156A.254.254,0,0,1,22.333,30.4Zm.967.017a.7.7,0,0,0,.211.211.94.94,0,0,1,.065-.234l.013-.035a.216.216,0,0,1-.17.083A.335.335,0,0,1,23.3,30.419Zm-5.489-.209h0a.725.725,0,0,0-.024.348v.008a1.216,1.216,0,0,0,.11-.075.5.5,0,0,1,.2-.1c-.173-.023-.243-.067-.289-.179Zm-6.743-.038a.6.6,0,0,0,.171.258c.022-.042.043-.092.063-.141a1.058,1.058,0,0,1,.061-.132l-.011,0a.7.7,0,0,1-.176.031A.276.276,0,0,1,11.068,30.172Zm11.4-.492a.98.98,0,0,1,.348.084.394.394,0,0,0-.391.2.33.33,0,0,0,.035.337.254.254,0,0,0,.195.1.3.3,0,0,0,.219-.112.532.532,0,0,0,.092-.209.441.441,0,0,1,.3-.365.58.58,0,0,0-.043.408.2.2,0,0,0,.184.145.182.182,0,0,0,.146-.082.676.676,0,0,0,.043-.434.586.586,0,0,0,.442-.154.48.48,0,0,0,.087-.384,2.628,2.628,0,0,0-.085-.405,2.75,2.75,0,0,1-.074-.33.7.7,0,0,0,.406-.226.593.593,0,0,1-.388-.283l.062-.019c.091-.026.2-.059.245-.138h-.044a.334.334,0,0,1-.369-.233c-.037-.082-.073-.159-.183-.185l-.115-.019a.968.968,0,0,1-.649-.28,1.514,1.514,0,0,1-.275-1.167,1.179,1.179,0,0,0,.385.142,2.566,2.566,0,0,1-.512-.579c.063.006.158.013.253.013a1.372,1.372,0,0,0,.149-.007l0,0,.032,0h-.035a4.658,4.658,0,0,1-.366-.35c-.065-.066-.111-.113-.115-.113a3.874,3.874,0,0,1,.038.483c0,.083,0,.167,0,.248,0,.179,0,.364.018.546a1.16,1.16,0,0,0,.628,1.088c.059.02.119.039.178.058.084.027.17.054.253.085a.436.436,0,0,1,.249.524,1.814,1.814,0,0,0,.1,1.071,1.059,1.059,0,0,1-.3-1.117.26.26,0,0,0-.1-.241,2.031,2.031,0,0,0-.279-.095l-.127-.038a1.24,1.24,0,0,1-.787-.985,9.023,9.023,0,0,1-.073-1.014v-.008q0-.079-.005-.158a6.723,6.723,0,0,0-.075-.837l-.038-.168a1.861,1.861,0,0,1,.3.449,2.039,2.039,0,0,0,.443.078,1.549,1.549,0,0,0-.614-.7c.209.021.385.035.562.035a1.309,1.309,0,0,0,1-.327.837.837,0,0,0,.03-1.068,3.861,3.861,0,0,0-1.408-.859c-.144-.062-.28-.121-.413-.184a.4.4,0,0,1-.078.185c.152.08.306.159.455.236.264.135.536.276.8.422.35.2.654.413.539.84a.638.638,0,0,1-.708.455,2.693,2.693,0,0,1-1.073-.278,5.511,5.511,0,0,0-2.463-.509l-.2,0c-.489.019-.984.064-1.464.107l-.5.043c.05.093.108.185.165.274l.038.059a1.692,1.692,0,0,1-.652-.163.215.215,0,0,0-.049-.02,1.745,1.745,0,0,0,0,.264l0,.047a.858.858,0,0,1-.6-.333,2.837,2.837,0,0,1-1.167,1.332l-.154-.376a2.112,2.112,0,0,1-.383.483,1.492,1.492,0,0,0-.46.708.618.618,0,0,1-.458-.414,1.413,1.413,0,0,0,.122.944,1.821,1.821,0,0,1-.343.041.8.8,0,0,1-.352-.076,1.818,1.818,0,0,1-.871,1.468l-.582.755a1.049,1.049,0,0,1-.876.55,1.379,1.379,0,0,1-.146-.008,2.287,2.287,0,0,0-.312-.027c-.163,0-.264.034-.31.1a.3.3,0,0,0,.019.286l.006.009a.5.5,0,0,1,.354-.135,1.6,1.6,0,0,1,.284.036l.068.012c-.06.023-.119.042-.175.06a.629.629,0,0,0-.344.186.332.332,0,0,0-.037.345.312.312,0,0,0,.29.155.709.709,0,0,0,.3-.075c.054-.367.2-.54.493-.6-.191.286-.265.491-.218.612a.184.184,0,0,0,.139.109.247.247,0,0,0,.054.006c.222,0,.336-.32.4-.492a.513.513,0,0,0,.344.207.178.178,0,0,0,.152-.079.5.5,0,0,0,0-.435c.377-.19.742-.413,1.083-.626a1.04,1.04,0,0,0,.335.065.8.8,0,0,0,.122-.01l-.009,0a2.667,2.667,0,0,1-.341-.42l-.009.008a2.019,2.019,0,0,1-1.013.577c.187-.171.4-.341.622-.521.745-.6,1.589-1.28,1.686-2.185a1.1,1.1,0,0,1,.075.541,5.108,5.108,0,0,0,2.362-.88,3.126,3.126,0,0,1-2.408,1.083h-.035a1.285,1.285,0,0,1-.131.249c-.018.029-.035.056-.049.081a1.329,1.329,0,0,0,.645.106,6.556,6.556,0,0,0,.826-.06,1.181,1.181,0,0,1-.084-.434,2.443,2.443,0,0,0,.548.061h.037l-.045-.036a1.267,1.267,0,0,1-.213-.2l1.726-.889a3.3,3.3,0,0,1,1.184-.414,1.281,1.281,0,0,1,1.158.758c.063.121.124.245.183.364a7.435,7.435,0,0,0,.42.776,2.136,2.136,0,0,0,1.369.927,1.656,1.656,0,0,1,.782.42.833.833,0,0,1,.156.739.326.326,0,0,1-.346.187,2.071,2.071,0,0,1-.244-.02,2.063,2.063,0,0,0-.238-.02.276.276,0,0,0-.322.281c.013.12.1.2.244.235A.314.314,0,0,1,22.469,29.68Zm-3.532.069,0,0-.014.011c-.105.086-.265.217-.259.362a.313.313,0,0,0,.161.23.165.165,0,0,0,.092.027c.155,0,.348-.179.4-.51a.8.8,0,0,0,.354.1.256.256,0,0,0,.263-.153c.038-.11-.007-.293-.247-.48l.006,0a1.292,1.292,0,0,1,.558-.173.8.8,0,0,1,.256.044.7.7,0,0,0-.206-.293l-.014-.014-.1-.1a3.808,3.808,0,0,0-.644.688c-.058.073-.118.149-.178.221a1.834,1.834,0,0,1,1.225-1.361c.113-.049.162-.086.168-.129s-.03-.093-.125-.172c-.362-.3-.51-.458-.232-.932l-.031-.075c-.276-.669-.589-1.427-1.211-1.483a2.4,2.4,0,0,1-.42.561,1.313,1.313,0,0,0-.519.927,1.357,1.357,0,0,0,.773.842c.323.169.461.3.374.617a1.816,1.816,0,0,1-.29.547.508.508,0,0,1-.414.258.88.88,0,0,1-.376-.11.638.638,0,0,0-.273-.085.36.36,0,0,0-.239.1.266.266,0,0,0,0,.388.476.476,0,0,1,.294-.153.583.583,0,0,1,.346.179.913.913,0,0,0-.179-.02.318.318,0,0,0-.316.153.262.262,0,0,0,.019.258.333.333,0,0,0,.282.167.388.388,0,0,0,.237-.09.49.49,0,0,1,.481-.35Zm.686.359a.807.807,0,0,0,.08.113.758.758,0,0,1,.1.156.459.459,0,0,0,.1-.182c.008-.024.016-.051.031-.087a.531.531,0,0,1-.143.027A.821.821,0,0,1,19.623,30.109ZM10,30.025a.574.574,0,0,0-.026.272l0,0a.53.53,0,0,1,.232-.136A.726.726,0,0,1,10,30.025Zm2.14-.154h0c-.036.057-.178.063-.231.066h-.016l.029.039a.878.878,0,0,1,.1.166.388.388,0,0,0,.113-.272Zm12-.084a.333.333,0,0,1-.211.113l.136.159A.559.559,0,0,0,24.139,29.788Zm.851-1.873-.092,2.14h3.057v-2.14Zm-20.516,0v2.14H7.562l-.091-2.14Zm17.3,1.861a.5.5,0,0,0-.141.251.645.645,0,0,1,.137-.014c.038,0,.076,0,.114.005A.412.412,0,0,1,21.771,29.776Zm-4.256-.53a.737.737,0,0,0-.254.272.818.818,0,0,1,.272.1l.046.023a.749.749,0,0,1-.057-.289C17.521,29.316,17.519,29.282,17.515,29.246Zm-7.936.046a.611.611,0,0,1,.214.046h0a1.552,1.552,0,0,1-.064-.313,1.117,1.117,0,0,0-.222.272A.379.379,0,0,1,9.579,29.292Zm10.673-.549a1.515,1.515,0,0,1,.543.133.608.608,0,0,0-.134-.275.07.07,0,0,0-.044-.027H20.61c-.04.018-.081.032-.122.046a.775.775,0,0,0-.25.123h.014Zm-6.567-.848c-.09.066-.178.134-.287.222a2.456,2.456,0,0,0,.448.037,2.556,2.556,0,0,0,.484-.043,3.778,3.778,0,0,0-.551-.19l-.006,0-.089-.026Zm.645-.689a4.274,4.274,0,0,1-.55.611h0a.5.5,0,0,0,.061-.009c.043-.007.1-.017.173-.027a3.382,3.382,0,0,1,.469-.036c.053,0,.1,0,.152.005a2.15,2.15,0,0,0-.16-.282A2.285,2.285,0,0,1,14.331,27.205Zm11.326-1.294h0c.079.613.129,1.185.151,1.751h1.714l-.052-1.751ZM16.247,15.372h0a15.681,15.681,0,0,1,4.031,2.24,12.579,12.579,0,0,1,3.093,3.426,14.037,14.037,0,0,1,1.792,6.624h.4a17.536,17.536,0,0,0-.157-1.786,13.183,13.183,0,0,0-4.965-8.764A15.838,15.838,0,0,0,16.2,14.907a13.618,13.618,0,0,0-6.948,5.014l-.174.26a15.452,15.452,0,0,0-2.215,7.472h.411a14.573,14.573,0,0,1,2.362-7.585,13.144,13.144,0,0,1,4.1-3.668,11.487,11.487,0,0,1,2.513-1.028ZM4.963,25.911l-.049,1.742H6.621v-.072a13.97,13.97,0,0,1,.182-1.67Zm7.075.063h0c.375.28.347.5.29.927l0,.015v.017a1.784,1.784,0,0,1,.01.317,2.454,2.454,0,0,0,.516-1.491l.049.034a.914.914,0,0,0,.495.22h.012a1.539,1.539,0,0,1,.153-1.2l.022.035a3.346,3.346,0,0,0,.352.495,1.345,1.345,0,0,1,.415-.546c.04-.037.079-.073.118-.111a1.452,1.452,0,0,0,.324-.883c-.075.125-.16.245-.241.361a3.638,3.638,0,0,0-.372.611l-.012-.055c-.106-.484-.183-.834.339-1.124l-.022.044a1.235,1.235,0,0,0-.158.462,3.394,3.394,0,0,1,.475-.367l.011-.133c.128.313.246.6.374.909a2.173,2.173,0,0,0,.59-.634,3.962,3.962,0,0,0,.4-.935l.044.086a1.4,1.4,0,0,0,.376.528,3.171,3.171,0,0,1,.127-.481l.008.01a1.1,1.1,0,0,0,.346.337,1.862,1.862,0,0,1-.139-.7l-.168-.4a1.922,1.922,0,0,1-.529.573,1.109,1.109,0,0,1,.031-1.011c0,.023,0,.047,0,.071a1.113,1.113,0,0,0,.074.543,2.5,2.5,0,0,0,.5-1.019l.015-.049c-.044-.083-.084-.163-.122-.244a.892.892,0,0,1-.473.551l-.021.014a3.247,3.247,0,0,0,.35-1.117,1.848,1.848,0,0,1,.325.465c.186.332.379.675.854.73a2.074,2.074,0,0,1-.434-.956,3.4,3.4,0,0,0-.131-.436c-.455-.135-.557-.4-.585-.848.1.164.434.635.743.635a.3.3,0,0,0,.187-.067.9.9,0,0,1-.443-.437L17.1,19.7a1.634,1.634,0,0,0-.415-.585l0,0a.694.694,0,0,1-.277.334l-.024.019a1.773,1.773,0,0,0,.04-1.054,1.261,1.261,0,0,0-.883.489V18.9a.66.66,0,0,1,.024-.323l-.09-.024a2.03,2.03,0,0,0-.519-.091,1,1,0,0,0-.28.04c-.069.03-.136.067-.2.1s-.107.058-.161.084a1.9,1.9,0,0,0,.7.232l.06.011a.537.537,0,0,1-.016.479.281.281,0,0,1-.244.12.721.721,0,0,1-.29-.074c.09-.023.537-.146.507-.484a2.866,2.866,0,0,0-.718.634.776.776,0,0,1,.307-.576.507.507,0,0,1-.365-.321.926.926,0,0,1-.231.054h0a1.5,1.5,0,0,0-.57.113,1.447,1.447,0,0,0-.481.336l.017.058.021,0a.276.276,0,0,0,.134-.058l.029-.018a.426.426,0,0,1,.234-.077.459.459,0,0,1,.146.026c-.036.024-.075.045-.116.068a.623.623,0,0,0-.3.259c-.061.139.011.3.214.481A2.455,2.455,0,0,0,13.7,19.9c.082-.017.166-.034.251-.045a.35.35,0,0,1,.365.24.325.325,0,0,1-.035.273.63.63,0,0,1-.452.173l-.127,0a2.761,2.761,0,0,1-.426-.03l-.011.023a.386.386,0,0,0,0,.348.363.363,0,0,0,.31.111,1.6,1.6,0,0,0,.275-.028c.049-.009.1-.015.151-.022a1.062,1.062,0,0,0,.5-.149.887.887,0,0,0,.338-.553c.016-.052.033-.106.053-.162.034.721-.219,1.042-.871,1.109a1.384,1.384,0,0,1-.947.62,2.35,2.35,0,0,0,.617.23c.07.019.137.037.2.057l-.082.006a3.036,3.036,0,0,0-.836.139,2.265,2.265,0,0,0-.63.4l-.034.027a1.023,1.023,0,0,1-.307.18.476.476,0,0,0,.2.044,1.916,1.916,0,0,0,.948-.455l.13-.093a1.04,1.04,0,0,1-.2.7l.011.006h0a1.028,1.028,0,0,0,.732-.55c-.077.56-.286.809-.677.809a1.711,1.711,0,0,1-.591-.132l.08-.055a1.115,1.115,0,0,0,.325-.284,3.364,3.364,0,0,1-.385.188c-.081.036-.165.072-.247.113a1.71,1.71,0,0,0-.561.842,1.736,1.736,0,0,1-.535.747.46.46,0,0,0,.265.071,1.628,1.628,0,0,0,.3-.038l.083-.015a1.648,1.648,0,0,0-.249.573,3.667,3.667,0,0,0,0,.43c0,.112.009.228.006.343l.217-.209a2.494,2.494,0,0,1,.072,1.149,1.017,1.017,0,0,0,.108-1.049Zm-3.026.845a.437.437,0,0,0,.032.3.2.2,0,0,1,.1-.1.115.115,0,0,0,.053-.044l-.04-.015c-.1-.037-.112-.04-.145-.139h0Zm.7-.177h0a2.22,2.22,0,0,0,.363.44s0,0,0-.006A5.408,5.408,0,0,1,10,26.392a.544.544,0,0,1-.356-.258,4.284,4.284,0,0,0,1.014.148,1.915,1.915,0,0,0,.738-.134,3.244,3.244,0,0,0,0-.443,2.711,2.711,0,0,1,.01-.533,4.8,4.8,0,0,1-1.9.49.353.353,0,0,1-.241-.122,1.464,1.464,0,0,1-.141-.448.551.551,0,0,0-.156-.308.109.109,0,0,0-.04-.006c-.088,0-.23.054-.247.1a.032.032,0,0,0,.015.037.833.833,0,0,1,.246.542l.009.049a1.644,1.644,0,0,0-.371-.324.361.361,0,0,0-.127-.027.158.158,0,0,0-.136.066.581.581,0,0,0-.01.45.783.783,0,0,1,.206-.028,1.355,1.355,0,0,1,.358.062c-.309.052-.515.287-.506.466,0,.1.084.167.217.177h.019a1.2,1.2,0,0,0,.431-.151l.06-.029c0,.285.023.431.095.5a.213.213,0,0,0,.16.058,1.163,1.163,0,0,0,.376-.092Zm.37-.226a1,1,0,0,0,.53.576l-.011-.058a4.293,4.293,0,0,1-.081-.455l-.437-.063Zm1.645-.09-.426.405h.006a2.862,2.862,0,0,0,.42.048A2.155,2.155,0,0,0,11.728,26.328Zm-1.117.153h0l.083.035a3.636,3.636,0,0,0,.54.2l.027-.08v0c.022-.065.043-.126.061-.191l.006-.011a3.554,3.554,0,0,1-.648.052Zm-2.479-.272,0,0a.472.472,0,0,0-.113.3,1.022,1.022,0,0,1,.27-.072.377.377,0,0,1-.154-.229ZM25.756,24V25.67h1.707L27.415,24ZM5.017,24h0L4.968,25.67H6.677V24H5.017Zm3.072,1.174a.445.445,0,0,0-.26.124c.056,0,.188.1.214.125v-.011a.432.432,0,0,1,.046-.238ZM6.914,24.006h0l0,1.234c.085-.453.176-.857.276-1.234H6.914Zm18.363,0c.1.38.175.727.241,1.062V24.006ZM8.512,24.5a.648.648,0,0,1,.055.232.29.29,0,0,1,.171-.136C8.708,24.538,8.531,24.5,8.512,24.5Zm16.114-2.4a14.291,14.291,0,0,1,.585,1.665h2.2L27.362,22.1H24.626ZM5.07,22.1l-.046,1.665H7.255A15.6,15.6,0,0,1,7.823,22.1H5.07Zm11.939-.432L17,21.734c-.038.394-.089.933.351,1.067a2.107,2.107,0,0,1-.174-.941,1.034,1.034,0,0,1-.086-.1A.971.971,0,0,0,17.009,21.667Zm4.125-.813a.331.331,0,0,0-.233.276.534.534,0,0,0,.308.46l.437.159-.052,0a3.024,3.024,0,0,0-.382.045.507.507,0,0,0-.369.286.307.307,0,0,0,.059.3c.028-.261.233-.281.45-.3.168-.017.341-.034.424-.172s-.131-.307-.264-.4l-.063-.045A.6.6,0,0,1,21.134,20.853Zm-.386.69a.754.754,0,0,0-.586.3h.009a2.534,2.534,0,0,1,.351.033l.147.019a1.092,1.092,0,0,1,.246-.249.556.556,0,0,1-.119-.1ZM23.63,20.19a14.739,14.739,0,0,1,.892,1.668h1V20.19Zm-16.716,0h0v1.668h1.01a13.982,13.982,0,0,1,.869-1.668H6.914Zm-1.793,0-.043,1.668H6.673v-.829q0-.418,0-.838Zm20.635,0v1.666h1.6l-.048-1.666Zm-6.965-1.348a.723.723,0,0,0-.678.453.917.917,0,0,0,.176.981,4.088,4.088,0,0,0,2.047,1.155c.087-.036.166-.068.246-.093-.073-.024-.148-.056-.221-.087a2.312,2.312,0,0,0-.263-.1,5.731,5.731,0,0,1-1.164-.588,1.5,1.5,0,0,1-.6-.637.669.669,0,0,1,.222-.851.761.761,0,0,1,.277-.061.875.875,0,0,1,.256.046.835.835,0,0,1,.1-.133A1.075,1.075,0,0,0,18.791,18.843ZM13.35,20.1h0a.8.8,0,0,0,.1.215l0-.008a.428.428,0,0,1,.1-.212.4.4,0,0,1-.116.021.258.258,0,0,1-.087-.015Zm6.5-.536.083.082a2.143,2.143,0,0,0,.966.655l-.014-.024a3.761,3.761,0,0,0-.686-.656l-.133-.108.1.039a1.777,1.777,0,0,0,.6.147.587.587,0,0,0,.364-.114,2.415,2.415,0,0,1-.784-.371l-.079-.061a.784.784,0,0,0-.478-.228.626.626,0,0,0-.2.034.517.517,0,0,0-.3.243.97.97,0,0,0-.016.292.964.964,0,0,1-.013.278c.173-.035.291-.282.369-.446l0,0,.032-.066,0,.018a1.493,1.493,0,0,0,.366,1.025,4.014,4.014,0,0,0-.187-.736Zm3.97-1.281-1.662.008a13.545,13.545,0,0,1,1.317,1.659h.344Zm-15.2,0v1.665h.33a12.487,12.487,0,0,1,1.311-1.665Zm15.438,0v1.667H27.3l-.048-1.667Zm-18.876,0L5.13,19.952H8.38V18.287Zm16.828-1.906-2.14.029A13.841,13.841,0,0,1,21.9,18.045h.107Zm-11.581,0h0v1.665h.064a12.764,12.764,0,0,1,2.064-1.665H10.425Zm-3.512,0h0v1.664h3.273V16.381H6.914Zm-1.683,0-.046,1.664H6.677V16.381Zm20.525,0v1.664h1.49L27.2,16.381Zm-3.509,0v1.664h3.27V16.381Zm1.807-1.906v1.666h3.139l-.048-1.666Zm-3.829,0v1.666h3.59V14.475Zm-8.019,0H8.616v1.665h3.591Zm-6.921,0h0l-.047,1.665H8.38V14.475H5.285Zm10.916.18h0A16.936,16.936,0,0,1,19.45,16.14h.535V14.475H12.446V16.14h.489A16.917,16.917,0,0,1,16.2,14.655Zm9.555-1.831v1.411h1.385L27.1,12.824Zm-3.509,0v1.411h3.27V12.824Zm-3.724,0v1.411h3.484V12.824Zm-4.374,0v1.411h4.134V12.824Zm-3.723,0h0v1.411h3.484V12.824H10.425Zm-3.512,0h0v1.411h3.273V12.824H6.914Zm-1.583,0L5.3,14.236H6.677V12.824Zm-.714-.707.14.462H27.674l.137-.461H4.617ZM20.07,10.46h0v1.417H21V10.46H20.07ZM16.3,10.22v1.657h2.336V10.22Zm-.239,0H13.793v1.656h2.272Zm-4.855.24v1.417h.931V10.46H11.21Zm-5.795-.224v1.627H7.484v-.852H7.138v-.775Zm2.309.775v.851H9.793V10.235H8.067v.777Zm17.174,0v.851h2.07V10.236H25.243v.775Zm-2.307-.775v1.626h2.069v-.851h-.347v-.775Zm1.722-1.3h.931V10h1.724V8.37H22.59V10h1.722V8.936Zm-17.174,0h.929V10H9.793V8.37H5.415V10H7.138V8.936Zm11.026-.813V9.98h.476V8.123Zm-3.658,0V9.98h3.42V8.123H16.682V9.129h-.931V8.123Zm-.713,0V9.98h.475V8.123ZM21.937,6.01V8.119l5.685,0V6.01H26.611V7.253H25.3V6.01H24.259V7.253H22.945V6.01Zm-17.175,0v2.11h5.683V6.009H9.437V7.253H8.125V6.009H7.083V7.253H5.77V6.009H4.761Zm11.575.245v.8h.346V7.88h1.959V6.255Zm-2.543,0V7.88h1.958V7.054H16.1v-.8ZM13.225,3.9V6h5.987V3.9H18.139V5.138H16.771V3.9H15.663V5.138H14.3V3.9ZM43.571,34.61H42.6V25.679h.652l.252.828a1.9,1.9,0,0,1,1.508-.958c1.477,0,2.227,1.215,2.227,3.61,0,2.372-.749,3.575-2.227,3.575a1.735,1.735,0,0,1-1.445-.854V34.61Zm1.32-8.193c-1.184,0-1.32,1.565-1.32,2.742,0,1.255.15,2.7,1.32,2.7,1.227,0,1.369-1.545,1.369-2.707S46.118,26.417,44.891,26.417Zm9.588,7.742h-.756V31.814l.391-.075c.746-.682,1.015-2.268,1.03-6.06h3.6v6.06h.631v2.42h-.755L58.5,32.6H54.6l-.124,1.555Zm1.583-7.611c-.1,2.762-.246,4.094-.918,5.191h2.637V26.548Zm5.953,6.187c-1.084,0-1.758-.779-1.758-2.033,0-1.559.9-2.383,2.591-2.383.241,0,.49,0,.727.014v-.544c0-1.157-.388-1.384-1.057-1.384a1.113,1.113,0,0,0-1.08.9l-.877-.257a1.9,1.9,0,0,1,1.972-1.514c1.38,0,2.023.719,2.023,2.264v3.314c0,.469.123.66.426.66a.809.809,0,0,0,.129-.016l.062-.01V32.6a1.9,1.9,0,0,1-.368.041c-.529,0-.869-.3-1.1-.985A1.659,1.659,0,0,1,62.016,32.735ZM63.588,29.1c-1.312.011-2.348.02-2.348,1.525,0,.813.343,1.242.993,1.242a1.142,1.142,0,0,0,1.072-.621,3.04,3.04,0,0,0,.282-1.438ZM50.006,32.735c-1.086,0-1.76-.779-1.76-2.033,0-1.559.9-2.383,2.588-2.383.24,0,.489,0,.73.014v-.544c0-1.157-.388-1.384-1.057-1.384a1.121,1.121,0,0,0-1.08.9l-.88-.257a1.9,1.9,0,0,1,1.972-1.514c1.38,0,2.023.719,2.023,2.264v3.314c0,.463.128.66.429.66a.79.79,0,0,0,.124-.015l.064-.011V32.6a1.882,1.882,0,0,1-.365.038c-.536,0-.866-.294-1.106-.982A1.656,1.656,0,0,1,50.006,32.735ZM51.576,29.1c-1.313.011-2.351.02-2.351,1.525,0,.567.172,1.242.993,1.242a1.145,1.145,0,0,0,1.075-.621,3.035,3.035,0,0,0,.283-1.438Zm-31.157-.973h0a.725.725,0,0,1-.636-.561c-.029-.24.133-.456.444-.591-.356.578-.208.759.192,1.151Zm-5.13-1.891h0a1.373,1.373,0,0,0,.358-.917.436.436,0,0,1,.153.5.652.652,0,0,1-.51.413Zm-2.617-.023h0c-.453-.159-.545-.357-.427-.92l.007.017a2.374,2.374,0,0,0,.274.533,1.508,1.508,0,0,1,.811-1.158,2.45,2.45,0,0,0-.663,1.528Zm8.089-.041h0a1.1,1.1,0,0,1-.462-.593,3.173,3.173,0,0,0-.584-.819c-.058-.065-.116-.131-.175-.2a1.284,1.284,0,0,1,.9.7,5.855,5.855,0,0,1,.324.907Zm-4.992-.044h0a1.3,1.3,0,0,0,.375-1.043.581.581,0,0,1,.245.505C16.352,25.789,16.144,25.97,15.769,26.127Zm.571-.187h0a1.143,1.143,0,0,0,.311-.9c.2.179.274.358.23.517a.658.658,0,0,1-.541.383Zm-4.216-.7h0a.744.744,0,0,1-.081,0,1.334,1.334,0,0,1,.13-.675.94.94,0,0,1-.257.044.728.728,0,0,1-.084-.006l-.053,0a2.086,2.086,0,0,1,.162-.468c.326-.5.435-.633,1-.721a2.478,2.478,0,0,0-.822.926,2.794,2.794,0,0,0,.392-.189c.055-.03.112-.061.167-.089L12.6,24.2l0,0a3.235,3.235,0,0,0-.316.758,1.552,1.552,0,0,0,.65-.532c.054-.063.1-.121.154-.175C12.95,24.73,12.62,25.241,12.124,25.241Zm3.135-1.1h0a2.622,2.622,0,0,0,0-.878,1.471,1.471,0,0,1-.747.4l.1-.4a5.414,5.414,0,0,1-1.048.781,1.686,1.686,0,0,1,.982-1.6c-.063.091-.137.184-.216.283a2.277,2.277,0,0,0-.511.881,6.343,6.343,0,0,0,1.262-1.251l-.229.932a1.067,1.067,0,0,0,.373-.338,1.62,1.62,0,0,1,.186-.209c.014.075.028.142.042.207A1.206,1.206,0,0,1,15.259,24.137Zm.32-1.306h0a1.292,1.292,0,0,1,.11-1.449l-.011.066a2.144,2.144,0,0,0-.027.828,2.842,2.842,0,0,1,.819-1.308c-.122.246-.238.5-.349.748-.168.372-.341.755-.542,1.116Zm-1.451-.44h0a1.649,1.649,0,0,1,.7-1.166l-.053.115-.015.032a2.268,2.268,0,0,0-.183.478,2.854,2.854,0,0,0,.877-1.141,1.955,1.955,0,0,1-1.325,1.682Zm56.445-1.083c-1.084,0-1.758-.78-1.758-2.036,0-1.557.9-2.38,2.588-2.38.24,0,.489,0,.73.011v-.541c0-1.159-.387-1.386-1.056-1.386a1.108,1.108,0,0,0-1.08.906l-.88-.257a1.9,1.9,0,0,1,1.972-1.514c1.38,0,2.023.719,2.023,2.264v3.312c0,.328.051.663.429.663a.8.8,0,0,0,.124-.015l.064-.01v.854a1.892,1.892,0,0,1-.365.038c-.536,0-.867-.294-1.106-.985A1.658,1.658,0,0,1,70.573,21.308Zm1.572-3.639h0c-1.313.011-2.351.02-2.351,1.528,0,.567.172,1.242.993,1.242a1.145,1.145,0,0,0,1.075-.621,3.036,3.036,0,0,0,.283-1.437v-.712ZM55.032,21.308c-1.514,0-2.25-1.17-2.25-3.576a5.745,5.745,0,0,1,.427-2.487,1.888,1.888,0,0,1,1.823-1.119,2.142,2.142,0,0,1,2.11,2.107l-.944.22c-.148-.97-.54-1.462-1.167-1.462-1.12,0-1.271,1.361-1.271,2.693,0,1.282.144,2.753,1.271,2.753.631,0,1-.46,1.167-1.448l.392.094h0a5.593,5.593,0,0,1,.548.14A2.148,2.148,0,0,1,55.032,21.308Zm12.651-.078a1.342,1.342,0,0,1-1.271-1.1l-.527-1.54c-.177-.4-.409-.608-.689-.608h-.744v3.2h-.967V14.252h.967v2.872h.5a.827.827,0,0,0,.741-.567l.591-1.45a1.379,1.379,0,0,1,1.294-.88,1.787,1.787,0,0,1,.365.026v.866a1.76,1.76,0,0,0-.241-.011c-.332,0-.541.176-.677.57l-.4,1a1.263,1.263,0,0,1-.778.8,1.405,1.405,0,0,1,.941.854l.417,1.358a.838.838,0,0,0,.692.648.39.39,0,0,0,.162-.026v.868A1.406,1.406,0,0,1,67.684,21.229Zm-51.9-.034v0a1.779,1.779,0,0,0,.254-1.2.854.854,0,0,1,.2.769.636.636,0,0,1-.452.436Zm27.789-.017H42.6V14.252h.967l2.047,4.128,2.05-4.128h.97v6.924h-.97V18.821c0-.609.066-2.346.139-2.846l-1.861,3.7h-.652l-1.861-3.7c.065.52.139,2.265.139,2.846v2.356Zm7.779,0h-.967V14.252h.967v6.925Zm9.131,0H58.359V14.252h.967V17h1.129a1.988,1.988,0,0,1,1.444.6,2.217,2.217,0,0,1,.594,1.56A2,2,0,0,1,60.481,21.177Zm-1.155-3.314v2.446h1.092c.736,0,1.109-.414,1.109-1.231a1.086,1.086,0,0,0-1.094-1.216Zm-45.2,2.867a.536.536,0,0,1-.284-.082c.223-.025.378-.062.46-.173a.6.6,0,0,0,.041-.464.529.529,0,0,1,.133.534A.377.377,0,0,1,14.126,20.73Zm.807-.158h0a1.122,1.122,0,0,0,.383-1.194.8.8,0,0,1,.226.71C15.467,20.379,15.253,20.489,14.933,20.572Zm1.255-1.038h0c0-.04,0-.078.007-.115v0a1.535,1.535,0,0,0-.039-.582h-.012a1.351,1.351,0,0,0-.527.353A.948.948,0,0,1,16.3,18.5.983.983,0,0,1,16.188,19.533ZM14.325,19.3c-.058,0-.1-.087-.1-.2s.047-.2.1-.2.1.092.1.2S14.382,19.3,14.325,19.3Zm36.533-5.912a.587.587,0,0,1-.576-.608.579.579,0,0,1,.576-.593.586.586,0,0,1,.591.593A.6.6,0,0,1,50.858,13.384ZM86.34,9.88c-1.086,0-1.761-.78-1.761-2.035,0-1.557.9-2.38,2.588-2.38.24,0,.489,0,.73.011V4.933c0-1.158-.388-1.384-1.057-1.384a1.121,1.121,0,0,0-1.08.906l-.88-.257a1.9,1.9,0,0,1,1.974-1.514c1.379,0,2.021.719,2.021,2.264V8.26c0,.464.128.663.429.663a.807.807,0,0,0,.147-.021l.041-.008v.857a1.915,1.915,0,0,1-.365.037c-.536,0-.867-.294-1.106-.985A1.656,1.656,0,0,1,86.34,9.88Zm1.569-3.639h0c-1.313.014-2.351.025-2.351,1.528,0,.567.172,1.242.993,1.242.888,0,1.358-.712,1.358-2.058V6.242ZM70.773,9.878c-1.515,0-2.252-1.169-2.252-3.572a5.745,5.745,0,0,1,.427-2.487,1.886,1.886,0,0,1,1.82-1.12h0a1.9,1.9,0,0,1,1.473.622,2.778,2.778,0,0,1,.638,1.486l-.941.22c-.154-.986-.536-1.465-1.17-1.465-1.12,0-1.271,1.362-1.271,2.7,0,1.283.144,2.756,1.271,2.756.626,0,1-.461,1.17-1.451l.449.108c.3.072.488.116.492.124A2.148,2.148,0,0,1,70.773,9.878ZM83.448,9.8A1.34,1.34,0,0,1,82.18,8.7l-.53-1.543c-.178-.4-.41-.608-.689-.608H80.22v3.2h-.97V2.825h.97V5.7h.5a.83.83,0,0,0,.741-.567l.59-1.45a1.384,1.384,0,0,1,1.3-.88,1.77,1.77,0,0,1,.362.026v.866a1.726,1.726,0,0,0-.238-.011c-.335,0-.544.176-.678.57l-.405,1a1.265,1.265,0,0,1-.776.8,1.414,1.414,0,0,1,.941.854L82.97,8.26a.838.838,0,0,0,.692.648.38.38,0,0,0,.162-.026v.869A1.423,1.423,0,0,1,83.448,9.8ZM42.262,9.774a1.659,1.659,0,0,1-.35-.026V8.8a.318.318,0,0,0,.113.014c1.317,0,1.459-2.437,1.471-8h4.488V9.751H46.964V1.763H44.526a23.6,23.6,0,0,1-.585,6.36C43.587,9.249,43.053,9.774,42.262,9.774Zm33.893-.023H74.03V2.822H75V5.57h1.129a1.985,1.985,0,0,1,1.442.6,2.22,2.22,0,0,1,.593,1.561A2,2,0,0,1,76.155,9.751ZM75,6.436V8.882h1.091c.734,0,1.106-.414,1.106-1.231a1.085,1.085,0,0,0-1.091-1.216ZM65.411,9.751H63.364V2.822H65.4A1.8,1.8,0,0,1,67.348,4.47a1.646,1.646,0,0,1-1.094,1.6A1.7,1.7,0,0,1,67.536,7.86a1.74,1.74,0,0,1-.7,1.4A2.382,2.382,0,0,1,65.411,9.751Zm-1.08-3.2v2.33H65.5c.674,0,1.031-.4,1.031-1.164a1.048,1.048,0,0,0-1.008-1.167Zm0-2.872V5.7h1.042a.974.974,0,0,0,.982-1.01c0-.833-.513-1.008-.944-1.008ZM61.515,9.751h-.967V2.822h.967V9.75Zm-4.462,0H55.007V2.822h2.035A1.8,1.8,0,0,1,58.99,4.47a1.627,1.627,0,0,1-1.094,1.6A1.7,1.7,0,0,1,59.178,7.86a1.74,1.74,0,0,1-.7,1.4A2.383,2.383,0,0,1,57.053,9.751Zm-1.08-3.2v2.33h1.17c.673,0,1.028-.4,1.028-1.164a1.047,1.047,0,0,0-1-1.167Zm0-2.872V5.7h1.042A.974.974,0,0,0,58,4.687c0-.659-.326-1.008-.944-1.008ZM51.926,9.751H49.8V2.822h.967V5.57H51.9a1.984,1.984,0,0,1,1.441.6,2.218,2.218,0,0,1,.594,1.56A2,2,0,0,1,51.926,9.751ZM50.771,6.436V8.882h1.094c.734,0,1.106-.414,1.106-1.231a1.086,1.086,0,0,0-1.094-1.216ZM61.025,1.957a.588.588,0,0,1-.579-.608.585.585,0,1,1,1.17,0A.6.6,0,0,1,61.025,1.957Z" transform="translate(0 0)"/></g></g></svg>