<svg xmlns="http://www.w3.org/2000/svg" width="71" height="43.617" viewBox="0 0 71 43.617"><defs><style>.a{fill:#f05a2b;}</style></defs><path class="a" d="M-497,43.617v-.022l-.016.007-4.675-9.684a13.36,13.36,0,0,1-3.643.483,12.377,12.377,0,0,1-9-3.586A11.684,11.684,0,0,1-518,22.14a12.372,12.372,0,0,1,1.671-6.29,12.029,12.029,0,0,1,3.915-4.147L-517.586.991-515.34,0l5.086,10.575a12.483,12.483,0,0,1,4.726-.9,12.553,12.553,0,0,1,9.112,3.569,11.78,11.78,0,0,1,3.668,8.788,11.838,11.838,0,0,1-3.66,8.771,12.622,12.622,0,0,1-3.046,2.235l4.128,8.583H-447v2ZM-514.186,16.99a10.061,10.061,0,0,0-1.337,5.142,9.518,9.518,0,0,0,2.962,7.088,9.847,9.847,0,0,0,7.139,2.892,10.715,10.715,0,0,0,2.7-.336l-8.634-17.885A9.807,9.807,0,0,0-514.186,16.99Zm4.961-4.277,8.747,18.189c.074-.039.147-.079.22-.12a9.609,9.609,0,0,0,3.7-3.636,10.082,10.082,0,0,0,1.33-5.126,9.83,9.83,0,0,0-1.33-5.07,9.852,9.852,0,0,0-3.745-3.629,10.28,10.28,0,0,0-5.124-1.361A9.887,9.887,0,0,0-509.225,12.713Z" transform="translate(518)"/></svg>